<svg id="_Layer_" data-name="&lt;Layer&gt;" xmlns="http://www.w3.org/2000/svg" xmlns:xlink="http://www.w3.org/1999/xlink" viewBox="0 0 998.71 1210.75"><defs><style>.cls-1{mask:url(#mask);}.cls-2{mix-blend-mode:multiply;fill:url(#linear-gradient);}.cls-3{fill:#c6c3b2;}.cls-4{fill:#6d6865;}.cls-5{fill:#fff;}.cls-6{fill:#f5dd71;}.cls-7{fill:#d2b844;}.cls-8{fill:#c7c7c7;}.cls-9{fill:#dba585;}.cls-10{fill:#c99a7d;}.cls-11{fill:#b74242;}.cls-12{fill:#dedfe6;}.cls-13{fill:#dca787;}.cls-14{fill:#454971;}.cls-15{fill:#2e3048;}.cls-16{fill:#dcd0c8;}.cls-17{fill:url(#linear-gradient-2);}.cls-18{fill:url(#linear-gradient-3);}.cls-19{fill:url(#linear-gradient-4);}.cls-20{fill:url(#linear-gradient-5);}.cls-21{fill:url(#linear-gradient-6);}.cls-22{fill:url(#linear-gradient-7);}.cls-23{fill:url(#linear-gradient-8);}.cls-24{fill:url(#linear-gradient-9);}.cls-25{mask:url(#mask-2);}.cls-26{fill:url(#linear-gradient-10);}.cls-27{filter:url(#luminosity-noclip-2);}.cls-28{filter:url(#luminosity-noclip);}</style><filter id="luminosity-noclip" x="2512.12" y="-9027" width="130.88" height="32766" filterUnits="userSpaceOnUse" color-interpolation-filters="sRGB"><feFlood flood-color="#fff" result="bg"/><feBlend in="SourceGraphic" in2="bg"/></filter><mask id="mask" x="2512.12" y="-9027" width="130.88" height="32766" maskUnits="userSpaceOnUse"><g class="cls-28"/></mask><linearGradient id="linear-gradient" x1="2512.12" y1="1338.47" x2="2643" y2="1338.47" gradientUnits="userSpaceOnUse"><stop offset="0" stop-color="#fff"/><stop offset="0.99"/></linearGradient><linearGradient id="linear-gradient-2" x1="2555.86" y1="1127.43" x2="2788.18" y2="1127.43" gradientUnits="userSpaceOnUse"><stop offset="0" stop-color="#4d759d"/><stop offset="1" stop-color="#769a42"/></linearGradient><linearGradient id="linear-gradient-3" x1="2535.68" y1="1093.56" x2="2839" y2="1093.56" xlink:href="#linear-gradient-2"/><linearGradient id="linear-gradient-4" x1="2465.99" y1="1047.67" x2="2661.64" y2="1047.67" xlink:href="#linear-gradient-2"/><linearGradient id="linear-gradient-5" x1="2520.37" y1="1089.98" x2="2579.69" y2="1089.98" xlink:href="#linear-gradient-2"/><linearGradient id="linear-gradient-6" x1="2386.12" y1="1101.73" x2="2577.62" y2="1101.73" xlink:href="#linear-gradient-2"/><linearGradient id="linear-gradient-7" x1="2514.34" y1="1535.63" x2="2675.46" y2="909.05" xlink:href="#linear-gradient-2"/><linearGradient id="linear-gradient-8" x1="2572.91" y1="1210.83" x2="2643.71" y2="1210.83" xlink:href="#linear-gradient-2"/><linearGradient id="linear-gradient-9" x1="671.83" y1="1129.72" x2="802.71" y2="1129.72" gradientUnits="userSpaceOnUse"><stop offset="0" stop-color="#becedb"/><stop offset="1" stop-color="#f3f1fd"/></linearGradient><filter id="luminosity-noclip-2" x="2512.12" y="1279.84" width="130.88" height="117.26" filterUnits="userSpaceOnUse" color-interpolation-filters="sRGB"><feFlood flood-color="#fff" result="bg"/><feBlend in="SourceGraphic" in2="bg"/></filter><mask id="mask-2" x="671.83" y="1071.09" width="130.88" height="117.26" maskUnits="userSpaceOnUse"><g class="cls-27"><g transform="translate(-1840.29 -208.75)"><g class="cls-1"><path class="cls-2" d="M2643,1279.84s-68,12.78-68,117.26H2543l-30.9-117.26Z"/></g></g></g></mask><linearGradient id="linear-gradient-10" x1="2512.12" y1="1338.47" x2="2643" y2="1338.47" gradientUnits="userSpaceOnUse"><stop offset="0" stop-color="#9d9eaa"/><stop offset="0.99" stop-color="#7ab3fb"/></linearGradient></defs><title>Векторный смарт-объект</title><path class="cls-3" d="M2680.49,946.57l-620.86,3.2a39.81,39.81,0,0,1-40-39.61l-2.29-444.07a39.81,39.81,0,0,1,39.6-40l620.86-3.2a39.81,39.81,0,0,1,40,39.61l2.28,444.06A39.81,39.81,0,0,1,2680.49,946.57Z" transform="translate(-1840.29 -208.75)"/><rect class="cls-4" x="2294.64" y="418.48" width="148.14" height="33.45" transform="translate(-1842.5 -196.53) rotate(-0.3)"/><rect class="cls-5" x="2058.35" y="593.55" width="99.01" height="99.01" transform="translate(-1843.59 -197.85) rotate(-0.3)"/><rect class="cls-6" x="1994.76" y="404.89" width="99.01" height="99.01" transform="translate(-1658.83 -711.15) rotate(14.65)"/><rect class="cls-6" x="2147.3" y="373.25" width="99.01" height="99.01" transform="translate(-1818.31 738.23) rotate(-24.44)"/><rect class="cls-6" x="2051.73" y="261.5" width="99.01" height="99.01" transform="translate(-1647.19 1035.49) rotate(-34.48)"/><rect class="cls-5" x="2271.42" y="591.98" width="99.01" height="99.01" transform="matrix(1, -0.01, 0.01, 1, -1843.56, -196.82)"/><rect class="cls-6" x="2377.96" y="591.43" width="99.01" height="99.01" transform="translate(-1843.58 -196.18) rotate(-0.3)"/><rect class="cls-5" x="2377.41" y="485.36" width="99.01" height="99.01" transform="translate(-1843.01 -196.27) rotate(-0.29)"/><rect class="cls-5" x="2165.43" y="699.06" width="99.01" height="99.01" transform="translate(-1844.11 -197.36) rotate(-0.29)"/><rect class="cls-6" x="2272.52" y="805.06" width="99.01" height="99.01" transform="matrix(1, -0.01, 0.01, 1, -1844.65, -196.81)"/><rect class="cls-5" x="2058.9" y="699.85" width="99.01" height="99.01" transform="translate(-1844.12 -197.91) rotate(-0.29)"/><path class="cls-6" d="M2369.63,485.66s.16,45.83-10.38,84.73l-22.82,14.45-80.73.42c15.13-40.9,14.92-99.09,14.92-99.09Z" transform="translate(-1840.29 -208.75)"/><polygon class="cls-7" points="496.14 376.09 496.06 361.43 518.96 361.31 496.14 376.09"/><path class="cls-5" d="M2158.2,805.9s.16,45.83-10.38,84.74L2125,905.09l-80.73.41c15.12-40.9,14.92-99.09,14.92-99.09Z" transform="translate(-1840.29 -208.75)"/><polygon class="cls-8" points="284.71 696.34 284.63 681.67 307.53 681.56 284.71 696.34"/><path class="cls-6" d="M2263.64,592.74s.17,45.83-10.38,84.74l-22.82,14.45-80.73.42c15.12-40.9,14.92-99.1,14.92-99.1Z" transform="translate(-1840.29 -208.75)"/><polygon class="cls-7" points="390.15 483.18 390.07 468.51 412.97 468.4 390.15 483.18"/><path class="cls-5" d="M2477.26,697.71s.17,45.83-10.37,84.74l-22.83,14.45-80.73.41c15.13-40.89,14.92-99.09,14.92-99.09Z" transform="translate(-1840.29 -208.75)"/><polygon class="cls-8" points="603.77 588.15 603.69 573.49 626.59 573.37 603.77 588.15"/><rect class="cls-5" x="2484.43" y="590.96" width="99.01" height="99.01" transform="translate(-1843.55 -195.72) rotate(-0.29)"/><rect class="cls-6" x="2484.43" y="696.95" width="99.01" height="99.01" transform="translate(-1844.09 -195.72) rotate(-0.29)"/><rect class="cls-6" x="2590.97" y="590.41" width="99.01" height="99.01" transform="translate(-1843.57 -195.08) rotate(-0.3)"/><rect class="cls-6" x="2206.19" y="228.81" width="99.01" height="99.01" transform="translate(-1522.99 1256.27) rotate(-38.51)"/><rect class="cls-5" x="2590.43" y="484.35" width="99.01" height="99.01" transform="translate(-1843.02 -195.09) rotate(-0.3)"/><rect class="cls-6" x="1893.13" y="253.21" width="99.01" height="99.01" transform="translate(-1700.51 -690.37) rotate(14.65)"/><path class="cls-6" d="M2582.64,484.64s.17,45.83-10.37,84.74l-22.83,14.45-80.73.41c15.13-40.89,14.92-99.09,14.92-99.09Z" transform="translate(-1840.29 -208.75)"/><polygon class="cls-7" points="709.15 375.08 709.07 360.41 731.97 360.3 709.15 375.08"/><path class="cls-9" d="M1869.17,991.14s3.07,5,3.46,9.14c.3,3.26,3,8.12,4.22,10.8s5,14.84,5.13,18c.06,1.29-2.83,9.44-2.42,12.05s1.9,7.77-.44,8.12-5-3.9-5-3.9a3.44,3.44,0,0,1-1.76,3.32c-3.85,1.78-5.89.21-5.89.21s-1.42,2.64-3.2,3c-3.94.78-5.86-.79-5.86-.79a7.05,7.05,0,0,1-4.45,1.42,5.84,5.84,0,0,1-4.94-3.07s-4.4.89-5.67-1.16-1.06-4.24-1.59-6.1-.13-18.67,5.58-30.76-1.45-23.9-1.45-23.9Z" transform="translate(-1840.29 -208.75)"/><path class="cls-10" d="M1874.75,1043.78s.39-15.08-3.58-18.29-4.42,2.23-4.42,2.23.54-5.37-3.79-6.1-4.52,5.67-4.52,5.67a4.2,4.2,0,0,0-5.27-3.3c-4.55.85-3.47,6.14-3.47,6.14s-4.35-5.19-7.17-.2c-4.77,8.41-.44,18.45-.44,18.45s1.54,2.38,5.88,1.26c0,0,3,5.94,9.48,1.74,0,0,6.7,3.66,9.12-2.19C1866.57,1049.19,1874.44,1052.25,1874.75,1043.78Z" transform="translate(-1840.29 -208.75)"/><path class="cls-11" d="M1920.31,774s-25.81,86-34.52,117.74c-2.74,10-9.36,105-10.53,108.81s-33.9,9.07-33.9,9.07,4-118.88,4.34-125.37,36.12-139.24,46.51-144c7.79-3.54,11.9-.61,21.72,6.68C1927.71,757.14,1920.31,774,1920.31,774Z" transform="translate(-1840.29 -208.75)"/><rect class="cls-12" x="2167.68" y="633.71" width="70.61" height="5.24" transform="translate(-1829.1 1101.46) rotate(-33.2)"/><path class="cls-13" d="M2240.25,637s-.56,3.34-1.52,4.68c0,0-1.94,2.3-3.21,4a16.1,16.1,0,0,0-.93,1.37c-.78,1.4-2.06,4.73-4.88,7.58s-13.77,11.93-13.77,11.93l-9.39-8-9.74-4.37s5.45-23.72,7.77-26.68a8,8,0,0,1,.7-.81c2.21-2.32,4.82-3.12,6.11-4.21.48-.39,5.49-4,7.28-3.54a6.07,6.07,0,0,1,4.51,3.76s4.8,1.48,6.67,4.29c0,0,4.48,1.22,5.8,5.39C2235.65,632.49,2240.05,634.24,2240.25,637Z" transform="translate(-1840.29 -208.75)"/><path class="cls-14" d="M1899.37,1361.28s-2.35,16.33-2.64,18.78-26.17-1.44-26.17-1.44l-2.1-19.44S1896.14,1359,1899.37,1361.28Z" transform="translate(-1840.29 -208.75)"/><path class="cls-15" d="M1897,1378s8.2,9.84,16.13,14.12,20.39,6,25.08,10.43c3.38,3.21,12.33,17-20.61,16.73s-48.81,2-52.34-3.35,5.11-39,5.11-39S1878.17,1379.69,1897,1378Z" transform="translate(-1840.29 -208.75)"/><path class="cls-14" d="M2084.78,1361.28s-2.35,16.33-2.64,18.78-26.17-1.44-26.17-1.44l-2.1-19.44S2081.55,1359,2084.78,1361.28Z" transform="translate(-1840.29 -208.75)"/><path class="cls-15" d="M2082.41,1378s8.2,9.84,16.13,14.12,37.11,7.82,41.8,12.26c3.39,3.2,9,16.1-37.32,14.9-32.93-.86-48.82,2-52.35-3.35s5.11-39,5.11-39S2063.13,1379.88,2082.41,1378Z" transform="translate(-1840.29 -208.75)"/><path class="cls-15" d="M1920.8,941.68s-24.31,38.64-22.5,73.56-8.82,73-12.47,109.52c-4.07,40.66-20.73,136.94-21.34,158.69s2.59,91.22,2.59,91.22l33.35.76s28-168.31,35.28-185.48,43.23-139.61,44.44-153.35S1920.8,941.68,1920.8,941.68Z" transform="translate(-1840.29 -208.75)"/><path class="cls-15" d="M2048.8,946.92s18.32,95.71,20.74,117.08,4,103.43,5.24,116.79,11.3,174.39,14.51,194.64h-42.65s-32.73-117.36-32.73-172.89-25.29-120.72-41.62-157.35-53.69-37.51-63.72-105.48C1908.57,939.71,2035.21,925.36,2048.8,946.92Z" transform="translate(-1840.29 -208.75)"/><path class="cls-9" d="M1961.38,616.9s32.63-12.19,47.68,12.65,13.6,74.58-2.85,80.7-41.17,2.91-49.59-12.63-16-38-15.66-53S1952.8,621.24,1961.38,616.9Z" transform="translate(-1840.29 -208.75)"/><path class="cls-9" d="M2002.66,711.38s-1.35,8.81.89,13.16-42.28,4.45-42.28,4.45-3.62-23.61-10.47-43.56S2002.66,711.38,2002.66,711.38Z" transform="translate(-1840.29 -208.75)"/><path class="cls-15" d="M1950.8,685.43s3.07,5.07,15.62,3.11,27.85-18.66,33.08-20.49,5.29-4.91,5.29-4.91l3.28,4.78,5.56.36s-5.07-14.93,2.58-21S2008.27,598.94,1968,613c0,0-30.9,8.52-29.78,26.09S1943.89,676.68,1950.8,685.43Z" transform="translate(-1840.29 -208.75)"/><path class="cls-16" d="M2006.19,724s-.14-8.29-3.9-9.08-41.49-4.43-46.1-2.61V722S1965.07,727.45,2006.19,724Z" transform="translate(-1840.29 -208.75)"/><path class="cls-9" d="M2004,656.74c-.7-2.94-8.2-11.37-11.07-2.35s4.34,21.15,8.36,20.11S2005.75,664.22,2004,656.74Z" transform="translate(-1840.29 -208.75)"/><path class="cls-11" d="M2068.6,736.57c-25.87-3.41-62.41-12.56-62.41-12.56l-50-2s-45.89,10.1-64,18.26c-1.71.78-1.72,41-6.42,51.48l15,31.62s8.66,62.62,10.45,90.48c.83,12.78-17.85,119.89-17.85,119.89s20,5.9,54.14,9.66,119.41-1.36,120-5.39-16.52-150.1-17.27-157.67c-1.16-11.61,4-73.31,4-73.31,7.88-6.11,77.07-38.23,95.95-55,5.05-4.48,26.37-25.24,32.43-32.41,21.46-25.38,39.06-47.15,41.2-51.84,2.43-2.67-24.13-17.07-26.46-17.85-2-.68-30.25,37.31-41.42,49.41-5,5.39-25.68,20.44-25.68,20.44S2084.79,737.5,2068.6,736.57Z" transform="translate(-1840.29 -208.75)"/><path class="cls-15" d="M1952.08,619.83s-41.61,3.26-1.28,65.6Z" transform="translate(-1840.29 -208.75)"/><polygon class="cls-12" points="393.66 410.44 397.07 405.24 390.79 406.06 393.66 410.44"/><rect class="cls-3" x="619.04" y="179.05" width="202.96" height="7.34"/><path class="cls-17" d="M2559,1307.59c-12.26-56.06,14.24-70,39.88-83.57,21-11.06,40.73-21.5,39.68-54.54-1.4-43.8,28.44-59.74,54.76-73.8,19.58-10.46,38.08-20.34,40.84-40.27,6.64-48,50.87-107.55,51.32-108.15l2.75,2.06c-.45.59-44.15,59.49-50.67,106.56-3,21.67-22.25,31.95-42.63,42.83-26.68,14.25-54.27,29-52.94,70.66,1.12,35.18-20.56,46.62-41.51,57.68-25.63,13.52-49.83,26.29-38.13,79.81Z" transform="translate(-1840.29 -208.75)"/><path class="cls-18" d="M2572.42,1293.3q-.89,0-1.77-.06c-11.09-.82-22-9.24-34.2-26.51l-.77-1.08.86-1c.2-.23,19.83-24.15,12.62-69.07a210.79,210.79,0,0,0-5.74-24.94c-2.63-9.4-4.37-15.61-1.46-20.56,3.7-6.29,13.71-9.59,41.89-16.3,30-7.15,40.05-41,48.9-70.8,8.35-28.09,16.24-54.6,39.59-53.78,21.46.82,54.06-32.8,82.81-62.45,26.68-27.5,51.86-53.42,68-52.9a12.8,12.8,0,0,1,9.7,4.81c14.35,17.1,1,43-12,68.11-11,21.39-21.48,41.6-14.76,54.93,8.44,16.75,9.62,31.9,3.41,43.82-7.34,14.1-24.46,23.2-50.88,27-24.15,3.5-26.77,29.84-29.53,57.74-3.23,32.55-6.89,69.44-47.42,72.94-30.1,2.61-50.39,23.74-68.29,42.39C2599.11,1280.42,2586.74,1293.3,2572.42,1293.3ZM2540,1265.79c11.15,15.45,21.27,23.31,30.91,24,13.47,1,25.75-11.79,40-26.6,18.32-19.08,39.08-40.71,70.47-43.42,37.69-3.26,41.05-37.13,44.3-69.87,2.9-29.27,5.64-56.92,32.45-60.8,25.27-3.66,41.53-12.14,48.33-25.22,5.67-10.89,4.49-25-3.44-40.69-7.5-14.89,3.32-35.85,14.79-58.05,12.43-24.08,25.29-49,12.4-64.32a9.42,9.42,0,0,0-7.19-3.6c-14.56-.48-39.24,24.93-65.38,51.87-30.29,31.23-61.6,63.5-84.51,63.51l-.88,0c-20.71-.77-27.88,23.38-36.18,51.33-9.11,30.73-19.45,65.55-51.39,73.16-25.49,6.07-36.64,9.45-39.73,14.7-2.18,3.7-.68,9,1.8,17.89a212.51,212.51,0,0,1,5.82,25.33C2559.24,1236.76,2543.87,1260.57,2540,1265.79Z" transform="translate(-1840.29 -208.75)"/><path class="cls-19" d="M2573.67,1281.56c-.4,0-.8,0-1.21-.06-18.18-1.65-32.16-41.48-45.68-80-6.41-18.28-12.47-35.53-18.37-46.61-4.58-8.6-10.39-17.56-16-26.22-15-23.08-30.46-46.94-25.43-67.89,2.66-11,10.56-20.18,24.18-28,29.8-17.17,25.21-26.87,15.17-48.11-7.37-15.6-17.47-36.95-17.86-70.56-.16-14.44-.5-26.93-.8-38-.94-35.42-1.42-53.19,6.14-59.62,3.13-2.67,7.51-3.35,13.79-2.16,10.72,2,15.36,10.7,20.27,19.87,6.26,11.69,13.36,24.95,34.8,29.44,20.11,4.21,39.45,9.94,44.79,23.31,3.75,9.39.2,21.75-10.86,37.77-2.69,3.89-3.61,7.2-2.82,10.1,1.75,6.46,11.77,11.13,23.37,16.55,16.52,7.7,37.07,17.29,42.89,37.14,4.68,16-.74,36-16.6,61-37.5,59.28-36,99.48-34.66,135,1,26.28,1.91,51.1-13.94,78.84C2587.83,1275.58,2580.9,1281.56,2573.67,1281.56Zm-71.46-464.35a9.16,9.16,0,0,0-6.2,1.91c-6.31,5.36-5.82,23.68-4.92,56.92.29,11,.62,23.53.79,38,.38,32.86,10.29,53.82,17.53,69.13,10,21.08,16,33.81-16.56,52.56-12.76,7.35-20.13,15.81-22.55,25.85-4.69,19.51,10.39,42.75,25,65.22,5.67,8.73,11.52,17.75,16.17,26.48,6,11.3,12.12,28.68,18.58,47.08,12.55,35.75,26.77,76.27,42.76,77.73,6.1.55,12.51-5,19.07-16.45,15.36-26.89,14.49-50.12,13.48-77-1.35-36-2.88-76.74,35.19-136.91,15.3-24.18,20.6-43.22,16.2-58.22-5.38-18.37-24.32-27.21-41-35-12.38-5.78-23.07-10.77-25.24-18.76-1.07-3.94,0-8.18,3.3-13,10.36-15,13.8-26.31,10.5-34.55-4.75-11.89-24.05-17.41-42.31-21.23-23-4.81-30.82-19.43-37.11-31.17-4.71-8.8-8.78-16.39-17.9-18.12A25.14,25.14,0,0,0,2502.21,817.21Z" transform="translate(-1840.29 -208.75)"/><path class="cls-20" d="M2574,1302.82l-3.27-1c18.33-57.93-14.83-187.92-24.71-219.55-4.86-15.56-.37-39,4-61.62,5.61-29.25,11.41-59.49-3.38-70.83-27.77-21.29-26.31-70.55-26.23-72.64l3.43.12c0,.5-1.47,49.59,24.89,69.8,16.47,12.63,10.47,43.93,4.66,74.19-4.26,22.23-8.67,45.22-4.07,60C2561.54,1120.33,2592.32,1245,2574,1302.82Z" transform="translate(-1840.29 -208.75)"/><path class="cls-21" d="M2435.39,926.51c-7.63-19.37-37.43-16.44-34.69,11s21.91,56.61-7.31,103.17,37.44,55.7,61.17,84.91,32,69.39,52,95,33.78,86.73,50.22,63.91,1-52.5,2.79-93.59,38.39-67.1,1.82-93.57-73.35-34.6-61.27-94.31C2505.49,976.58,2459.13,986.76,2435.39,926.51Z" transform="translate(-1840.29 -208.75)"/><path class="cls-5" d="M2583.43,1289.69c-.2-1.22-20.51-121.57-66-154.55-46.36-33.63-54.77-64.7-71-138l3.35-.74c16,72.36,24.29,103,69.64,135.93,46.6,33.81,66.51,151.75,67.33,156.76Z" transform="translate(-1840.29 -208.75)"/><path class="cls-22" d="M2542.41,1285.38s13.51-33.41-11.08-80.89-44.47-40.18,14.78-76.7.38-151.58,50.82-166.19,94.28-200.83,132.63-177.12-12.79,115,14.61,142.42,31,62.25-25.57,90.48,40.18,136-36.52,168.84S2627.38,1348,2542.41,1285.38Z" transform="translate(-1840.29 -208.75)"/><path class="cls-5" d="M2565.84,1320.8c-.08-.42-8.33-43.19,17.73-98.46,26.55-56.3,39.25-117.85,34-164.64-2.85-25.34,13.38-35.26,29.08-44.84,15.46-9.44,31.44-19.2,30.56-44.16-.8-22.56,8.75-75.43,9.15-77.67l3.38.61c-.1.54-9.89,54.75-9.1,76.94.95,27-15.9,37.26-32.2,47.21-15.47,9.44-30.07,18.36-27.46,41.53,5.33,47.39-7.49,109.64-34.3,166.48-25.54,54.17-17.55,95.91-17.47,96.32Z" transform="translate(-1840.29 -208.75)"/><path class="cls-5" d="M2627.82,1084.79c17.23-16,40-18.3,35.26,5.43s-21,30.52-12.88,45.43,21.7,29.84-1.36,48.14-35.94,20.35-42.72,54.93-5.42,58.2-35.26,59.67-18.3-42-8.81-61.7c0,0,14.24-22.44,4.75-51.91s-27.81-45.38,10.84-55.39S2616.21,1095.58,2627.82,1084.79Z" transform="translate(-1840.29 -208.75)"/><path class="cls-23" d="M2573,1320.5c-.1-4.23-2.15-103.85,16.48-120.62,19-17.12,22.69-47.39,23.18-63.9.63-21.52,28.43-34.3,29.61-34.83l1.42,3.13c-.28.12-27,12.43-27.6,31.8-.62,20.84-5.33,49.27-24.31,66.35-17.47,15.73-15.38,117-15.35,118Z" transform="translate(-1840.29 -208.75)"/><polygon class="cls-24" points="802.71 1071.09 771.8 1188.35 702.73 1188.35 671.83 1071.09 802.71 1071.09"/><g class="cls-25"><path class="cls-26" d="M2643,1279.84s-68,12.78-68,117.26H2543l-30.9-117.26Z" transform="translate(-1840.29 -208.75)"/></g><rect class="cls-3" x="919.47" y="256.82" width="7.34" height="219.86"/><rect class="cls-3" x="270.22" y="777.9" width="181.6" height="7.33"/></svg>