<svg xmlns="http://www.w3.org/2000/svg" viewBox="0 0 357.37 307.37"><defs><style>.cls-1{isolation:isolate;}.cls-16,.cls-2{fill:#9fc6ff;}.cls-2{opacity:0.7;}.cls-3{fill:#fff;}.cls-4{fill:#d4e9ff;}.cls-12,.cls-5{fill:#14365b;}.cls-5{opacity:0.3;mix-blend-mode:multiply;}.cls-6{fill:#0053cc;}.cls-7{fill:#407bff;}.cls-8{fill:#dce9ff;}.cls-9{fill:#ff8b7b;}.cls-10{fill:#0f264c;}.cls-11{fill:#ff5652;}.cls-13{fill:#ea7063;}.cls-14{fill:#236ae8;}.cls-15{fill:#004daa;}</style></defs><title>Векторный смарт-объект1</title><g class="cls-1"><g id="Objects"><polygon class="cls-2" points="152.98 14.13 51.94 1.78 60.15 290.13 147.74 299.95 152.98 14.13"/><polygon class="cls-2" points="254.81 3.47 152.98 14.13 147.74 299.95 235.92 292.48 254.81 3.47"/><polygon class="cls-2" points="355.49 15.85 254.81 3.47 235.92 292.48 323.24 302.32 355.49 15.85"/><path class="cls-3" d="M232.56,313.53a12.14,12.14,0,1,0-19.9,9.29,24.13,24.13,0,0,1,4.4,4.95l1.89,2.77,2.34-2.41a23.44,23.44,0,0,1,5.12-4.09A12.13,12.13,0,0,0,232.56,313.53Z" transform="translate(-91.72 -112.91)"/><path class="cls-3" d="M417.7,161.23a12.14,12.14,0,1,0-19.9,9.29,23.59,23.59,0,0,1,4.4,4.95l1.89,2.76,2.35-2.41a22.93,22.93,0,0,1,5.12-4.08A12.12,12.12,0,0,0,417.7,161.23Z" transform="translate(-91.72 -112.91)"/><path class="cls-4" d="M244.17,125.4l103-10.78,101.88,12.53L416.45,417l-88.36-10-89.22,7.56-88.64-9.94-8.31-291.78Zm12.54,247.5,72.92-51.22.29-.21,15.87-8.78-13.73-10.51-93-33.35-18.37-10.64-27.09,63.87,49.92,42.11Zm-73.77-59.79,25.77-61.84-50.06-29,1.57,71.66ZM244.37,141l-1.46-.18-86.28-10.49,1.66,75.79,56,32.66,22.37-38,28.16-61.88-19,2Zm37.18-3.85L248.77,208l-22.52,37.73,18.06,10.53,94.32,34,19.86,15.33,23.57-13L370.33,133.31l-23.66-2.9Zm103.32-2.07L395,285.46,419.33,272,433.21,141Zm-56.42,260,1.29.14,75.63,8.56,12.27-115.84-80.92,44.46-68.8,47.92,26.63,17.56-.06.1,32.66-2.79Zm-89.79,7.67,36.53-3.12L235.94,373.9l-75.35-63.06,1.83,83.31Z" transform="translate(-91.72 -112.91)"/><polygon class="cls-5" points="255.49 1.71 152.45 12.49 147.15 301.72 236.38 294.16 255.49 1.71"/><path class="cls-6" d="M168.57,203.84l-6.27-8.71a1.16,1.16,0,0,1,.43-1.74l23-12a1.62,1.62,0,0,1,2,.47l6.26,8.71a1.16,1.16,0,0,1-.42,1.75l-23,12A1.62,1.62,0,0,1,168.57,203.84Z" transform="translate(-91.72 -112.91)"/><path class="cls-7" d="M167.8,202.77l-6.27-8.71a1.16,1.16,0,0,1,.43-1.74l23-12a1.62,1.62,0,0,1,2,.47l6.27,8.71a1.17,1.17,0,0,1-.43,1.75l-23,12A1.62,1.62,0,0,1,167.8,202.77Z" transform="translate(-91.72 -112.91)"/><polygon class="cls-8" points="100.28 78.71 89.95 84.12 89 84.62 84.36 87.05 83.37 87.57 79.67 89.51 71.81 78.59 72.72 78.11 73.69 77.61 82.62 72.93 85.42 71.46 92.42 67.79 95.03 71.4 95.69 72.33 99.25 77.27 99.81 78.04 100.28 78.71"/><path class="cls-3" d="M191.52,191l-.56-.77-7.72,3.54-2.74,1.9-.94-1.13-2-5.74L174.88,187l.92-1.71,11.6-.07-.66-.93-9.61.06-2.79,1.47-2.1,4.11-3.72,3.64-3.11-3.07-1,.5,5.37,5.33,5.28,4.13,1-.52-.72-.56,4.82-2.53.54.66.95-.5-.56-.68,2.75-1.89Zm-17,7.81-3.92-3.07-1.37-1.37,3.94-3.95,1.18-2.41,2.23,1.33,2,5.66,0,0,1,1.15Z" transform="translate(-91.72 -112.91)"/><path class="cls-9" d="M110.84,185.18l-.58,1.15-.6,1.28c-.4.86-.78,1.74-1.14,2.62-.71,1.79-1.41,3.59-2,5.42a77.56,77.56,0,0,0-2.73,11.23c-.18,1-.26,1.91-.4,2.86l-.06.45,0,.26a.58.58,0,0,0,0,.32.78.78,0,0,0,.39.37,6.83,6.83,0,0,0,1.94.69,27,27,0,0,0,5.41.43c1.91,0,3.93-.14,5.83-.32l1.06,4.11c-1.06.42-2,.74-3.1,1s-2.09.58-3.17.79a26.56,26.56,0,0,1-6.85.59,13.27,13.27,0,0,1-4-.82,9,9,0,0,1-2.2-1.25,7.59,7.59,0,0,1-1.94-2.21,7.8,7.8,0,0,1-.94-2.76,8.53,8.53,0,0,1-.1-1.31v-.59l0-.41c.08-1.08.11-2.17.23-3.25a68.29,68.29,0,0,1,2.52-12.76,62.17,62.17,0,0,1,2.14-6.15c.41-1,.84-2,1.31-3,.23-.49.47-1,.73-1.49s.5-1,.85-1.57Z" transform="translate(-91.72 -112.91)"/><path class="cls-9" d="M116.19,211.73l6.18-5.79.45,8.51s-4.57,2.84-7.59,1.1Z" transform="translate(-91.72 -112.91)"/><polygon class="cls-9" points="37.66 92.4 37.66 99.55 31.1 101.54 30.65 93.03 37.66 92.4"/><path class="cls-6" d="M105.75,412.22a10.27,10.27,0,0,1-2.22-.3.22.22,0,0,1-.15-.16.2.2,0,0,1,.09-.2c.29-.19,2.83-1.83,3.81-1.39a.7.7,0,0,1,.39.56,1.16,1.16,0,0,1-.33,1.06A2.42,2.42,0,0,1,105.75,412.22Zm-1.65-.58c1.45.29,2.55.24,3-.15a.74.74,0,0,0,.21-.7c0-.17-.1-.23-.17-.25C106.6,410.3,105.13,411,104.1,411.64Z" transform="translate(-91.72 -112.91)"/><path class="cls-6" d="M103.58,411.93a.17.17,0,0,1-.1,0,.21.21,0,0,1-.1-.17c0-.1,0-2.52.92-3.32a1,1,0,0,1,.84-.27.7.7,0,0,1,.67.56c.19.94-1.33,2.75-2.13,3.2A.19.19,0,0,1,103.58,411.93Zm1.43-3.4a.62.62,0,0,0-.44.18,4.5,4.5,0,0,0-.78,2.63c.8-.63,1.75-2,1.63-2.57,0-.09-.07-.2-.32-.23Z" transform="translate(-91.72 -112.91)"/><path class="cls-6" d="M143.85,412.22a14.44,14.44,0,0,1-2.64-.3.18.18,0,0,1-.15-.16.19.19,0,0,1,.1-.21c.38-.19,3.72-1.9,4.74-1.34a.64.64,0,0,1,.34.53,1.13,1.13,0,0,1-.36,1A3.19,3.19,0,0,1,143.85,412.22Zm-2-.58c1.86.31,3.24.23,3.75-.23a.71.71,0,0,0,.22-.63.26.26,0,0,0-.13-.22C145.15,410.26,143.24,411,141.87,411.64Z" transform="translate(-91.72 -112.91)"/><path class="cls-6" d="M141.25,411.93a.15.15,0,0,1-.11,0,.21.21,0,0,1-.09-.18c0-.09.2-2.35,1.26-3.22a1.44,1.44,0,0,1,1.1-.35c.55.06.71.34.74.56.16.95-1.82,2.76-2.82,3.21Zm2-3.4a1.08,1.08,0,0,0-.69.26,4.65,4.65,0,0,0-1.07,2.58c1-.61,2.36-2,2.27-2.6,0,0,0-.2-.39-.23Z" transform="translate(-91.72 -112.91)"/><path class="cls-9" d="M121.41,152.11c1,5,3.18,15-.3,18.35,0,0,1.36,5,10.6,5,10.15,0,4.85-5,4.85-5-5.54-1.32-5.4-5.43-4.43-9.29Z" transform="translate(-91.72 -112.91)"/><path class="cls-10" d="M140.85,140.56a.34.34,0,0,1-.22-.07.38.38,0,0,1-.11-.55,4,4,0,0,1,3.12-1.83.4.4,0,0,1,0,.8,3.13,3.13,0,0,0-2.45,1.47A.4.4,0,0,1,140.85,140.56Z" transform="translate(-91.72 -112.91)"/><path class="cls-11" d="M143.27,145.24a18.09,18.09,0,0,0,2.41,4.31,2.92,2.92,0,0,1-2.41.45Z" transform="translate(-91.72 -112.91)"/><path class="cls-10" d="M142.66,144.08c0,.67.36,1.22.8,1.22s.8-.55.8-1.22-.35-1.23-.8-1.23S142.66,143.4,142.66,144.08Z" transform="translate(-91.72 -112.91)"/><path class="cls-10" d="M143.27,142.89l1.62-.47S144.06,143.69,143.27,142.89Z" transform="translate(-91.72 -112.91)"/><polygon class="cls-9" points="40.33 298.82 48.7 298.82 49.26 279.42 40.88 279.42 40.33 298.82"/><polygon class="cls-9" points="2.27 298.82 10.64 298.82 13.34 279.42 4.96 279.42 2.27 298.82"/><path class="cls-12" d="M102.88,410.76H93.47a.67.67,0,0,0-.67.57l-1.07,7.45a1.35,1.35,0,0,0,1.34,1.49c3.28-.06,4.86-.25,9-.25,2.55,0,6.27.26,9.78.26s3.71-3.48,2.24-3.79c-6.56-1.41-7.6-3.36-9.81-5.22A2.21,2.21,0,0,0,102.88,410.76Z" transform="translate(-91.72 -112.91)"/><path class="cls-12" d="M140.7,410.76h-9.41a.65.65,0,0,0-.66.57l-1.08,7.45a1.35,1.35,0,0,0,1.35,1.49c3.28-.06,4.86-.25,9-.25,2.54,0,7.81.26,11.32.26s3.71-3.48,2.24-3.79c-6.56-1.41-9.14-3.36-11.36-5.22A2.17,2.17,0,0,0,140.7,410.76Z" transform="translate(-91.72 -112.91)"/><polygon class="cls-13" points="49.26 279.42 48.97 289.42 40.59 289.42 40.88 279.42 49.26 279.42"/><polygon class="cls-13" points="4.96 279.42 13.34 279.42 11.95 289.42 3.57 289.42 4.96 279.42"/><path class="cls-7" d="M150.72,172.61s4,1.41-4,50.55h-34c.57-13.84.58-22.38-6-50.79a100.85,100.85,0,0,1,14.44-1.91,110.52,110.52,0,0,1,15.45,0C143.19,171.07,150.72,172.61,150.72,172.61Z" transform="translate(-91.72 -112.91)"/><polygon class="cls-14" points="52.2 81.3 58.01 87.81 58.74 75.05 52.2 81.3"/><path class="cls-9" d="M169.58,201.34c-1.28,1.75-2.63,3.54-4,5.23a41.06,41.06,0,0,1-4.18,4.59c-.19.17-.39.33-.58.48l-.3-.91c-.32-1-.64-2-.93-3.11-1.2-4.21-2.26-8.54-3.29-12.88l-3-13.06L145,183.42c.9,4.51,1.91,8.93,3.08,13.36q.85,3.32,1.8,6.63c.66,2.21,1.32,4.41,2.09,6.63.36,1.1.79,2.21,1.2,3.32l.68,1.67a9.76,9.76,0,0,0,.52,1.12,8.85,8.85,0,0,0,.89,1.34,6.44,6.44,0,0,0,1.58,1.38,5.67,5.67,0,0,0,2.34.8,6.27,6.27,0,0,0,3.72-.81,12.32,12.32,0,0,0,3.47-3,35.34,35.34,0,0,0,4.06-6.16c.56-1,1.08-2.09,1.56-3.16s.95-2.12,1.37-3.25Z" transform="translate(-91.72 -112.91)"/><path class="cls-7" d="M150.72,172.61c3.45.88,5.87,15.09,5.87,15.09l-13.32,9.05S138,179.83,140.61,176C143.37,172.08,145.68,171.33,150.72,172.61Z" transform="translate(-91.72 -112.91)"/><path class="cls-9" d="M171.51,204.54l7.47-2.69-4.84-4s-5.7.73-5.81,5.31Z" transform="translate(-91.72 -112.91)"/><polygon class="cls-9" points="91.43 86.28 92.37 84.33 82.43 84.97 87.26 88.94 91.43 86.28"/><polygon class="cls-9" points="85.4 84.78 84.44 83.71 85.66 80.85 83.93 81.05 78.96 86.26 85.4 84.78"/><path class="cls-9" d="M120,141.76c.51,8.3.55,11.82,4.74,16.08,6.3,6.4,16.38,4,18.36-4.32,1.78-7.45.65-19.77-7.47-23.07A11.33,11.33,0,0,0,120,141.76Z" transform="translate(-91.72 -112.91)"/><path class="cls-6" d="M137.73,223.17s-.84,9.94-2.19,23.87h0c-1.64,17-4,40-6.56,58.2-.38,2.72-.77,5.34-1.15,7.81-4.08,26.17-22.15,87.34-22.15,87.34H94.26s9.42-59.08,11.48-85c5.24-65.5-3.94-77.09,7-92.27Z" transform="translate(-91.72 -112.91)"/><path class="cls-15" d="M135.54,247h0c-1.64,17-4,40-6.56,58.2-2.53-7.74-7.14-34.8-3.11-58.58C128.3,232.33,133,238.6,135.54,247Z" transform="translate(-91.72 -112.91)"/><path class="cls-6" d="M146.72,223.16s6.6,64.53,6.05,90.07c-.57,26.57-10.3,87.17-10.3,87.17H131.14s1.79-59,.79-85.14c-1.09-28.45-10.13-92.1-10.13-92.1Z" transform="translate(-91.72 -112.91)"/><polygon class="cls-7" points="15.29 288.07 1.23 288.07 0.97 283.25 16.37 282.84 15.29 288.07"/><polygon class="cls-7" points="52.2 288.07 38.15 288.07 37.62 282.84 53.29 282.84 52.2 288.07"/><path class="cls-7" d="M106.67,172.37c-3.48.76-8.17,13.55-8.17,13.55l14.67,8.47s4.3-10,2.64-14.36C114.08,175.53,110.78,171.47,106.67,172.37Z" transform="translate(-91.72 -112.91)"/><path class="cls-10" d="M127.05,127c-11.59-.85-15.73,7.47-13.75,17.54,2.16,11-1.63,15.88-6,19.94-3.37,3.16-4.63,9-1.79,16.69,2.33,6.3-.63,9.92,0,15.19.74,5.65,10.21,8.09,15.5,2.51,5.11-5.39,3.91-9.06,8.42-10.78,7.18-2.73,13.82-7.22,12.07-15.4-1.14-5.28-7.71-8.9-5.74-15.76C138.08,149.2,147.05,128.49,127.05,127Z" transform="translate(-91.72 -112.91)"/><path class="cls-10" d="M118.29,129.25l19.65,14.83c.19-2.54,2.77-6.68,4.6-9.21C145.38,131,130.13,115.83,118.29,129.25Z" transform="translate(-91.72 -112.91)"/><path class="cls-9" d="M135.4,145.1a6.82,6.82,0,0,0,1.61,4.35c1.36,1.6,3,.67,3.35-1.23.34-1.7,0-4.58-1.68-5.49S135.41,143.17,135.4,145.1Z" transform="translate(-91.72 -112.91)"/><path class="cls-10" d="M112.19,221.17l-1.54,3c-.12.24.16.48.56.48h35.67c.31,0,.56-.15.58-.34l.31-3c0-.21-.24-.39-.58-.39H112.74A.61.61,0,0,0,112.19,221.17Z" transform="translate(-91.72 -112.91)"/><path class="cls-16" d="M116.81,225h-.92c-.18,0-.32-.09-.31-.21l.43-4c0-.11.18-.21.36-.21h.92c.19,0,.33.1.31.21l-.43,4C117.16,224.93,117,225,116.81,225Z" transform="translate(-91.72 -112.91)"/><path class="cls-16" d="M139.18,225h-.92c-.19,0-.33-.09-.32-.21l.44-4c0-.11.17-.21.35-.21h.93c.18,0,.32.1.31.21l-.44,4C139.52,224.93,139.36,225,139.18,225Z" transform="translate(-91.72 -112.91)"/><path class="cls-3" d="M190.4,160a12.3,12.3,0,1,0-19.28,11.11,24.79,24.79,0,0,1,4.88,4.61l2.14,2.64,2.16-2.64a23.16,23.16,0,0,1,4.81-4.57A12.28,12.28,0,0,0,190.4,160Z" transform="translate(-91.72 -112.91)"/><path class="cls-10" d="M178.88,169.91a8.88,8.88,0,0,1-7.23-2.77l0,0a9.4,9.4,0,0,1-1.17-1.55,9.08,9.08,0,0,1-1.21-3.82A8.93,8.93,0,0,1,186,156.7a4,4,0,0,1,.24.46,8.74,8.74,0,0,1,.84,3.12A8.92,8.92,0,0,1,178.88,169.91Z" transform="translate(-91.72 -112.91)"/><path class="cls-7" d="M178.88,169.91a8.88,8.88,0,0,1-7.23-2.77l0,0a9.5,9.5,0,0,1-.63-.93,9.17,9.17,0,0,1-.82-3.07A8.92,8.92,0,0,1,186,156.7a4,4,0,0,1,.24.46,8.74,8.74,0,0,1,.84,3.12A8.92,8.92,0,0,1,178.88,169.91Z" transform="translate(-91.72 -112.91)"/></g></g></svg>