<svg id="_Layer_" data-name="&lt;Layer&gt;" xmlns="http://www.w3.org/2000/svg" xmlns:xlink="http://www.w3.org/1999/xlink" viewBox="0 0 2135.49 1030.01"><defs><style>.cls-1{fill:#eff8ff;}.cls-2{fill:#e3dcd2;}.cls-3{fill:#ff556f;}.cls-4{fill:#fff;}.cls-5{fill:#1d3b54;}.cls-6{fill:#a1a5b3;}.cls-7{fill:#9497a3;}.cls-8{fill:#bcc0cf;}.cls-9{fill:#d3d7e8;}.cls-10{fill:#ede5df;}.cls-11{fill:#285173;}.cls-12{fill:#eea886;}.cls-13{fill:#fcf5f5;}.cls-14{fill:#a9adba;}.cls-15{fill:#1c4154;}.cls-16{fill:#2a617d;}.cls-17{fill:#eb4747;}.cls-18{fill:#a83333;}.cls-19{fill:#e8734d;}.cls-20{fill:#446580;}.cls-21{fill:#faca7d;}.cls-22{fill:#fff8e6;}.cls-23{fill:#385369;}.cls-24{fill:#cf8c6c;}.cls-25{fill:#db9c7c;}.cls-26{fill:#f7f0f0;}.cls-27{fill:#31485c;}.cls-28{fill:#754836;}.cls-29{fill:#555c94;}.cls-30{fill:#fab546;}.cls-31{fill:#9c2f2f;}.cls-32{fill:#a77860;}.cls-33{fill:#bbd9a7;}.cls-34{fill:#8878ff;}.cls-35{fill:#88bf63;}.cls-36{fill:#cf973a;opacity:0.99;}.cls-37{fill:#dbdff0;}.cls-38{fill:#b3b7c4;}.cls-39{fill:#fccca2;}.cls-40{fill:#c46141;}.cls-41{fill:#4f4f4f;}.cls-42{fill:url(#linear-gradient);}</style><linearGradient id="linear-gradient" x1="1143.99" y1="1383.52" x2="961.24" y2="1291.24" gradientUnits="userSpaceOnUse"><stop offset="0" stop-color="#ba233a"/><stop offset="1" stop-color="#fa7126"/></linearGradient></defs><title>Векторный смарт-объект3</title><path class="cls-1" d="M1774.25,421h-61.17V395.73h61.17Zm-58.64-2.53h56.11V398.26h-56.11Z" transform="translate(-103.14 -358.66)"/><path class="cls-1" d="M1803.57,443.73H1742.4V418.47h61.17Zm-58.64-2.52H1801V421h-56.11Z" transform="translate(-103.14 -358.66)"/><rect class="cls-2" x="204.88" width="1569.36" height="931.19"/><path class="cls-1" d="M599,1035.1H537.84v-25.26H599Zm-58.64-2.53h56.11v-20.2H540.37Z" transform="translate(-103.14 -358.66)"/><path class="cls-1" d="M628.33,1057.84H567.16v-25.27h61.17Zm-58.64-2.53H625.8V1035.1H569.69Z" transform="translate(-103.14 -358.66)"/><path class="cls-1" d="M969.38,477.84H908.21V452.57h61.17Zm-58.65-2.53h56.12V455.1H910.73Z" transform="translate(-103.14 -358.66)"/><path class="cls-1" d="M985,455.1H923.86V429.84H985Zm-58.64-2.53H982.5V432.36H926.39Z" transform="translate(-103.14 -358.66)"/><path class="cls-1" d="M998.7,500.57H937.53V475.31H998.7ZM940.06,498h56.11v-20.2H940.06Z" transform="translate(-103.14 -358.66)"/><ellipse class="cls-3" cx="1244.37" cy="974.39" rx="67.4" ry="8.45"/><path class="cls-3" d="M1420.93,1342.41c0,3.07-19.83,5.55-44.29,5.55s-44.3-2.48-44.3-5.55,19.83-5.55,44.3-5.55S1420.93,1339.34,1420.93,1342.41Z" transform="translate(-103.14 -358.66)"/><polygon class="cls-3" points="1250.55 971.72 1195.93 972.06 1195.52 907.85 1196.76 907.84 1199.06 907.83 1246.61 907.52 1248.92 907.51 1250.15 907.5 1250.55 971.72"/><rect class="cls-4" x="1298.92" y="1284.34" width="54.62" height="46.21" transform="translate(-111.31 -350.32) rotate(-0.36)"/><path class="cls-5" d="M1349.75,1266.19c-1.57,12-11.54,21.37-23.65,21.45s-22.19-9.14-23.91-21.15h-2.29a26.24,26.24,0,0,0,52.15-.32Z" transform="translate(-103.14 -358.66)"/><rect class="cls-2" x="1709.85" y="588.15" width="425.63" height="345.61"/><rect class="cls-6" x="197.61" y="1045.47" width="7.66" height="35.45" transform="translate(1161.5 503.09) rotate(90)"/><rect class="cls-6" x="68.07" y="737.13" width="35.45" height="7.66"/><rect class="cls-6" x="55.56" y="773.55" width="35.45" height="7.66"/><rect class="cls-6" x="43.05" y="809.98" width="35.45" height="7.66"/><rect class="cls-6" x="30.54" y="846.41" width="35.45" height="7.66"/><rect class="cls-6" x="18.03" y="882.84" width="35.45" height="7.66"/><rect class="cls-6" x="122.55" y="1264.03" width="7.66" height="35.45" transform="translate(1305 796.71) rotate(90)"/><rect class="cls-7" x="232.05" y="1130.79" width="5.5" height="193.07" transform="translate(1358.99 633.85) rotate(90)"/><rect class="cls-8" x="182.97" y="841.23" width="9.52" height="500.72" transform="translate(255.88 -361.36) rotate(18.65)"/><rect class="cls-9" x="295.51" y="936.64" width="7.66" height="403.04" transform="translate(843.91 1762.09) rotate(161.34)"/><rect class="cls-8" x="230.97" y="993.95" width="7.66" height="49.73" transform="translate(1150.49 425.35) rotate(90)"/><rect class="cls-10" x="1025.28" y="620.18" width="118.91" height="118.91" rx="7"/><path class="cls-10" d="M1076.33,682.61h66.32a4.43,4.43,0,0,1,4.43,4.43v66.32a4.43,4.43,0,0,1-4.43,4.43h-66.32a4.43,4.43,0,0,1-4.43-4.43V687A4.42,4.42,0,0,1,1076.33,682.61Z"/><rect class="cls-11" x="1127.54" y="694.3" width="30.39" height="48.22"/><path class="cls-12" d="M1214.21,1087.38a6.8,6.8,0,0,0,3.23-2.06c1.88-2.53,1.43-7.27,5.79-8.2s10.27,11.86,10,14.71-5.87,5.85-15.14,6.68S1214.21,1087.38,1214.21,1087.38Z" transform="translate(-103.14 -358.66)"/><path class="cls-12" d="M1221.79,1077.64a140.36,140.36,0,0,1,12.14-7.5c5.82-3.17,13.17-5.87,14.14-4.93,2.16,2.09-4.77,4.73-10.34,8.25-5.13,3.24-4.25,2.71-4.25,2.71s-.42-.08,5.8-2.56c6.68-2.66,13.76-4.73,14.87-3.56.53.56,1.64,2.65-1.27,3,1.47-.51,1.2-.7,1.43-.12,1.21,3-8.09,8.43-11.79,10.57,2.85-1.63,5.1-2.53,4.61-.13-.57,2.74-14,9.82-18.63,12.81C1223.47,1099.39,1221.79,1077.64,1221.79,1077.64Z" transform="translate(-103.14 -358.66)"/><path class="cls-13" d="M1116.83,993.73s-14-1-23.91,0-23.56,9.1-31.83,11.44-28.23,15.76-27.7,17.59,8.28,23.67,22.57,41.4C1068.2,1079.33,1116.83,993.73,1116.83,993.73Z" transform="translate(-103.14 -358.66)"/><path class="cls-14" d="M1086.58,1002.53s-15.11,11.18-20.37,21.44-7,22.46-7,22.46Z" transform="translate(-103.14 -358.66)"/><path class="cls-15" d="M1098,1335.66s4.31,4.59,6.81,5.8,32.3,6.34,34.32,8.77,2,12-5.66,12-33.32-.13-37.63,0-22.55,3.78-24.43,0-1.7-21.4,1.63-25.62S1098,1335.66,1098,1335.66Z" transform="translate(-103.14 -358.66)"/><path class="cls-16" d="M1097.12,1330.31l.92,5.35s-8,3.64-25,.95v-5.53Z" transform="translate(-103.14 -358.66)"/><path class="cls-15" d="M916.1,1320.83s-4.72,5.53-5,8.9-6.07,18.21-3.91,21.85,19.15,4.18,27.64,2.83,27,1.49,28.87-2.16,3-9-2.56-11-18.21-7.46-20.51-13.13S916.1,1320.83,916.1,1320.83Z" transform="translate(-103.14 -358.66)"/><path class="cls-16" d="M943,1322l-2.36,6.07s-24.34-1.82-24.54-7.28l7.69-11.2Z" transform="translate(-103.14 -358.66)"/><path class="cls-12" d="M1142.89,983.39s-13.57,11.53-17.43,10.59,13.31,24.38,13.31,24.38,16.35-16.09,20-16.58S1142.89,983.39,1142.89,983.39Z" transform="translate(-103.14 -358.66)"/><path class="cls-13" d="M1146.34,1078.3a23.16,23.16,0,0,1-2.71,3.3c-.41.36-.9.77-1.48,1.24h0c-5.49,4.39-17.81,12.93-23.5,16-6.3,3.42-21.58,33.44-21.58,33.44s-53-5-65.91-34.16c0,0,9.17-20.5,17.53-32.64s26.71-55.84,36.42-62,18.07-10.25,37.22-9.71,29.77,15.74,29.77,15.74,14.56,15.65,16,23.92C1169.33,1040.52,1153.52,1068.29,1146.34,1078.3Z" transform="translate(-103.14 -358.66)"/><path class="cls-13" d="M1143.81,1028.91c-4.62,2.79-5.39,3.69-4.85,16.91s6,23.87,6.43,27.51,7.74,39.76,9.77,41.79,26.2-2.69,31.09-4.21c7.32-2.27,38.3-12.76,38.3-12.76l-6.81-14.21s-39.11,8.72-40.37,5.66-4.33-28.73-5.4-34.3.8-14.34-5.86-27.56C1160.14,1015.9,1143.81,1028.91,1143.81,1028.91Z" transform="translate(-103.14 -358.66)"/><path class="cls-17" d="M1098,1128.36s8.09,9,10.61,11.68,37.5,55.66,40.19,62-13.36,50.8-20,66.36c-3.46,8.15-26.34,64.34-25.62,65.59s-24.21,2.09-35.36-3.66c0,0,16-47.5,19.4-56.81,5.1-14.06,22.79-53,23.33-56.79s-28.59-34.92-38.3-40.85-33.45-27-36.15-29.68-18-9.89-16.54-23.55,11.6-24.46,11.6-24.46Z" transform="translate(-103.14 -358.66)"/><path class="cls-17" d="M1054.37,1162.17s-1.51,4-3.65,9.59c-4.57,12-12,31.4-13.19,34.47-1.8,4.5-10.79,23.92-15.11,27.69s-75.34,89-75.53,89.74-26.61-13-28.23-18.16c0,0,38.48-50.18,44.42-57.55s18.34-18.34,22.48-35.79,33.8-84.52,33.89-87c0,0,4.77-20.68,11.7-27s32.1,1.08,36,14.2S1054.37,1162.17,1054.37,1162.17Z" transform="translate(-103.14 -358.66)"/><path class="cls-17" d="M1142.14,1082.84s-31.06-13.11-21.17-38.28c0,0,4.14-6.84,4.5-7.38,0,0-30.93-20.85-37.23-22.28,0,0-15.55,13.17-24.77,23,0,0-30.62,54.42-36.5,66s70.09,28.39,70.09,28.39,16.59-30.29,20.54-32.72S1140.47,1087,1142.14,1082.84Z" transform="translate(-103.14 -358.66)"/><path class="cls-17" d="M1125.47,1037.18s15.77-20.89,35-17.66c0,0-2.21-3.61-3.65-4.62,0,0-22.49-.62-36.48,18.92S1125.47,1037.18,1125.47,1037.18Z" transform="translate(-103.14 -358.66)"/><path class="cls-17" d="M1088.24,1014.9s16.08-16.61,28.59-21.17a10.88,10.88,0,0,1,5.49,0s-25.3,17-27.28,24.81S1088.24,1014.9,1088.24,1014.9Z" transform="translate(-103.14 -358.66)"/><path class="cls-13" d="M1124.23,993.86l5.74-2.26s14.47,3.32,22.83,14.92l-.71,3.47S1130,1005.2,1124.23,993.86Z" transform="translate(-103.14 -358.66)"/><path class="cls-14" d="M1146.34,1078.3a23.16,23.16,0,0,1-2.71,3.3c-.41.36-.9.77-1.48,1.24h0l-.54-21.75s2.73,8.38,3.13,9.62S1146.34,1078.3,1146.34,1078.3Z" transform="translate(-103.14 -358.66)"/><path class="cls-18" d="M1054.37,1162.17s-1.51,4-3.65,9.59c-4.83-5.56-15.86-26.59-15.86-26.59.72.51,3,2.68,3.56,3.16S1054.37,1162.17,1054.37,1162.17Z" transform="translate(-103.14 -358.66)"/><path class="cls-12" d="M1172.41,937.8s22.43,4,22.63,23-17.18,46.5-28.48,44.47-24.14-12.07-23.7-23.62,3.64-26.74,8.84-35.07S1166.14,937.38,1172.41,937.8Z" transform="translate(-103.14 -358.66)"/><path class="cls-19" d="M1143.64,972.85s0,3.88,7.76,6.95,21.89-1.23,25.44-.52,4.61-1,4.61-1l.26,3.79,3,2s2.11-10.09,8.45-11,11.62-29.85-15.71-35.33c0,0-20.23-5.5-25.45,4.77S1142.66,965.62,1143.64,972.85Z" transform="translate(-103.14 -358.66)"/><path class="cls-12" d="M1177.91,977.58c.51-1.65-.72-8-4.74-4.37s-4,11.62-1.74,12.28S1176.62,981.75,1177.91,977.58Z" transform="translate(-103.14 -358.66)"/><path class="cls-19" d="M1162.88,942.21s-19.46-13.83-19.57,33.35Z" transform="translate(-103.14 -358.66)"/><path class="cls-12" d="M258.27,1087.25s2.37,8.65,2.69,10-1,4.92-2.9,8.9-6.23,8.51-7,8.62a3.89,3.89,0,0,1-3.2-.31,7.42,7.42,0,0,1-2.73-2.58,4.51,4.51,0,0,1-3.72-2.25,3.92,3.92,0,0,1-3.3-2.86s-2.43-.25-2.85-2.24a29.75,29.75,0,0,0,1.44-5.07c.11-1.47,4.07-8.34,8.29-14.84C245,1084.6,248.7,1076.83,258.27,1087.25Z" transform="translate(-103.14 -358.66)"/><rect class="cls-20" x="454.93" y="871.97" width="12.09" height="5.67" transform="translate(-234.78 -275.43) rotate(-9.03)"/><rect class="cls-20" x="456.49" y="874.04" width="9.62" height="5.67" transform="translate(-235.15 -275.31) rotate(-9.04)"/><path class="cls-21" d="M469,857.38h0a12,12,0,1,0-20.22,4.43c1.64,2.09,5.09,6.9,5.76,11.14l6-1,6-.94c-.68-4.25,1.11-9.89,2-12.39a11.8,11.8,0,0,0,.49-1.29Z" transform="translate(-103.14 -358.66)"/><path class="cls-22" d="M452.07,845.7s-6,4-3.06,12.35c0,0,1.13,2.49,2.79,2.23a1.25,1.25,0,0,0,1.16-1.69c-2.95-8.34,2.92-12.14,2.92-12.14s2-1.24.22-2.29C454.84,843.4,452.07,845.7,452.07,845.7Z" transform="translate(-103.14 -358.66)"/><path class="cls-23" d="M210.13,1207.88c-1.21-2.6-29.26-64.06-9.74-94.13,7-10.76,19.22-16.08,36.35-15.85,3.66,0,9.13.68,16,1.49,18.11,2.1,45.47,5.28,69.17,1,28.25-5,43.67-18.93,47.14-42.45,5.93-40.14,30.53-52.73,54.32-64.91,15.61-8,31.76-16.26,42.19-32.42,10.71-16.6,13.56-33.8,8.47-51.12a61.85,61.85,0,0,0-11-21.26l2.32-2c.3.34,29.61,34.53,2.79,76.11-10.88,16.86-27.4,25.32-43.38,33.5-24.16,12.36-47,24-52.67,62.6-8.41,57-83.59,48.23-119.73,44-6.83-.79-12.23-1.42-15.73-1.47-16-.24-27.35,4.64-33.72,14.45-18.58,28.63,9.67,90.52,10,91.14Z" transform="translate(-103.14 -358.66)"/><path class="cls-24" d="M251.55,1098.07s-2.79-3.53-3.07-4.92-9.75,2.26-9.75,2.26S247.17,1101.35,251.55,1098.07Z" transform="translate(-103.14 -358.66)"/><path class="cls-12" d="M253.76,1082.89a27.38,27.38,0,0,0,3.13,6.24c1.74,2.26-14.75,2.46-14.75,2.46s1.52-6.63,2.74-11.63C245.85,1076,253.76,1082.89,253.76,1082.89Z" transform="translate(-103.14 -358.66)"/><path class="cls-25" d="M251.62,1113.72s4.54-10.2,3-11.14a2.84,2.84,0,0,0-2.69-.33l0-5s-1.91-3.33-5-.28c0,0-1.46-3.29-4.07,0,0,0-1.94-1.74-3.42-.42s-4.13,8-4.13,8-.08,1.89,2.69,2.47a3.94,3.94,0,0,0,3.32,2.92,4.26,4.26,0,0,0,3.73,2.28s2.31,4,6.06,2.57C251.08,1114.75,251.43,1114.15,251.62,1113.72Z" transform="translate(-103.14 -358.66)"/><path class="cls-12" d="M260.85,1097.57s-6,4.81-10.38,6c-1,.27-2,.35-2.64-.48s-.23-2.78,2.25-5a27.9,27.9,0,0,0,4.66-6.22S258,1090.36,260.85,1097.57Z" transform="translate(-103.14 -358.66)"/><path class="cls-26" d="M316.92,973.59s13.66-17.23-5.18-24.87c-10.37-4.21-22,4.93-35.45,33.55,0,0-17,27.12-18.53,33.51-4.1,17-15.23,62.39-14.55,70l16.32,4.12s11.58-34.74,15.11-50.05c2.92-12.66,5.87-18.39,5.87-18.39Z" transform="translate(-103.14 -358.66)"/><path class="cls-12" d="M474,894.56a10.81,10.81,0,0,1-2.42,2.39s-1.83.73-3.1,1.35a6.71,6.71,0,0,0-1,.52,18.06,18.06,0,0,1-5.23,3c-2.49.75-13.91.81-13.91.81l-1.62-7.09-2.35-6.37s11.23-13,13.5-14a6.49,6.49,0,0,1,.65-.24c2-.64,3.67-.17,4.74-.37.39-.07,4.34-.47,5.15.5a4.79,4.79,0,0,1,1.16,4.07s2.1,2.74,2.15,5.23A7.11,7.11,0,0,1,473,890S474.82,892.71,474,894.56Z" transform="translate(-103.14 -358.66)"/><path class="cls-27" d="M340.75,1330.3s13-1.67,13.44-2,3.54-5.25,5.46-4.24,1.56,7.17,3.43,8.33,16.5,12.46,18.26,14.46,13.41,1.62,14.53,5,.74,11.08-16.41,8.17-37-1.35-40.64-3.62S339.25,1335.19,340.75,1330.3Z" transform="translate(-103.14 -358.66)"/><path class="cls-27" d="M254.76,1327.21s13-1.37,13.48-1.72,3.66-5.16,5.56-4.1,1.39,7.2,3.23,8.4,16.21,12.84,17.92,14.88,13.36,1.94,14.41,5.32.48,11.09-16.6,7.78-37-2.21-40.54-4.57S253.14,1332.07,254.76,1327.21Z" transform="translate(-103.14 -358.66)"/><path class="cls-12" d="M336.91,932c-.08.25-.18.5-.26.75-.48,1.45-.91,2.91-1.26,4.32a68,68,0,0,0-2,14.71c1.16,4.73-18.95-14.4-18.95-14.4a235.42,235.42,0,0,0-.55-33.22C312.31,886.69,336.91,932,336.91,932Z" transform="translate(-103.14 -358.66)"/><path class="cls-17" d="M345.37,1027.68c-.51,2-1,4-1.54,6.18-.24,1-.46,2-.66,3.08-2.92,15.21-1.4,37.18,1,61.89,0,0-10.75,3.37-67.68,12.54-2.26-73.83,11.74-142.67,11.74-142.67,2.47-16.16,12.36-22,25.6-32,0,0,2.56.1,20.55,13,1.26.9,7.09,12.54,10.74,25.5C351.6,998.07,350,1009.94,345.37,1027.68Z" transform="translate(-103.14 -358.66)"/><path class="cls-26" d="M329.52,1007.09a37.5,37.5,0,0,1-4.14,5.82c-4.32,5-9.64,8.62-14.27,9.92a10.23,10.23,0,0,1-6.53,0c-.16-.07-.33-.14-.48-.22-9.05-4.57-16.81-58.51-.21-68,0,0,7.94-4,15.67-.79,6.54,2.74,11.49,12.92,13.48,28,.23,1.74.41,3.54.56,5.4.09,1.07.16,2.16.22,3.26A30.24,30.24,0,0,1,329.52,1007.09Z" transform="translate(-103.14 -358.66)"/><path class="cls-12" d="M348.74,888.05s6.77,10.16,4.07,12.09c-2.24,1.6,3.88,11.62,4.71,13.28s-4,3.36-4.95,4.56-2.8,15.09-6.84,15.88-23-3.88-28.52-8.62-11.8-27.86-9.39-38.09S336.8,870.31,348.74,888.05Z" transform="translate(-103.14 -358.66)"/><path class="cls-28" d="M350.16,890.13s1-5.21-10.46-12.79-26.12,2.56-28.29,3.34-11.67,11.64-6.27,24.4c9,21.33,9.68,20.64,9.68,20.64s.06-12.82,4-14.13c4.25-1.42,11-3.64,11-3.64s-4.72-9.67,1.05-11.65S344,888.47,350.16,890.13Z" transform="translate(-103.14 -358.66)"/><path class="cls-12" d="M327.32,908.91c-.4-1.14-2.24-6.27-6.28-5.09s-2.05,7.5,1.49,11S329.58,915.3,327.32,908.91Z" transform="translate(-103.14 -358.66)"/><path class="cls-20" d="M351.55,890S339,858.37,312.77,872.91c-30.48,16.92-3.39,42-3.39,42S316.76,900.57,351.55,890Z" transform="translate(-103.14 -358.66)"/><polygon class="cls-17" points="210.73 578.01 211.11 575.41 231.6 587.5 231.29 590.98 210.73 578.01"/><polygon class="cls-29" points="237.15 965.31 237.62 971.63 254.76 969.88 254.45 960.46 237.15 965.31"/><path class="cls-17" d="M323.1,1125.38s-3.23,22.38-6.74,45.31c-.72,4.7-1.44,9.41-2.16,14l-.24,1.53c-.64,4-1.26,7.94-1.85,11.56-1.82,11.11-3.35,19.53-4,21.38-2.47,6.58-28.71,107.55-28.71,107.55s-27.73,5.11-28.5,2.37c0,0,24.35-116.17,24.14-120s1.29-110,1.29-110S322,1119.24,323.1,1125.38Z" transform="translate(-103.14 -358.66)"/><path class="cls-17" d="M343.43,1090.69S355.76,1195.5,357,1203.58s9.71,128.82,9.71,128.82a41.81,41.81,0,0,1-29.49,2.55s-15.6-127.68-17.3-131.64c-6.58-15.37-22.42-91.91-25.35-102.44s-17.64-20.45-17.64-20.45S306.76,1067.29,343.43,1090.69Z" transform="translate(-103.14 -358.66)"/><path class="cls-26" d="M315.8,950.94s-25.49,3.41-15.84,23.58c9.46,19.78,26.47,7.47,79.54-5.39,0,0,16-5,24.35-12.13,13.41-11.37,46-48.17,50.45-51.52l-9.79-17S424,908.61,412.25,916.7,383,940.56,383,940.56Z" transform="translate(-103.14 -358.66)"/><path class="cls-23" d="M216.06,1193.13c-13.58,0-24.22-19.74-24.22-44.94s10.64-44.94,24.22-44.94,24.22,19.74,24.22,44.94S229.64,1193.13,216.06,1193.13Zm0-86.78c-11.65,0-21.12,18.77-21.12,41.84s9.47,41.84,21.12,41.84,21.12-18.77,21.12-41.84S227.71,1106.35,216.06,1106.35Z" transform="translate(-103.14 -358.66)"/><polygon class="cls-30" points="112.35 846.67 104.47 849.78 105.61 852.65 106.47 852.31 107.8 855.71 109.58 855 108.25 851.61 110.85 850.59 112.19 853.98 113.97 853.27 112.63 849.88 113.48 849.54 112.35 846.67"/><path class="cls-20" d="M347.62,891.25l25.12-7.53s1.32-5.59-24.29,2.21S347.62,891.25,347.62,891.25Z" transform="translate(-103.14 -358.66)"/><path class="cls-14" d="M333.6,987.22a50.88,50.88,0,0,1-19.6-2.36c7.38.18,18.79-3,19-3C333.27,983.56,333.45,985.36,333.6,987.22Z" transform="translate(-103.14 -358.66)"/><path class="cls-31" d="M314.2,1184.65l-.24,1.53c-.64,4-1.26,7.94-1.85,11.56a344.21,344.21,0,0,1-9.7-62.64C303.29,1145.33,314.12,1184.35,314.2,1184.65Z" transform="translate(-103.14 -358.66)"/><path class="cls-32" d="M336.65,932.79c-.48,1.45-.91,2.91-1.26,4.32a31.17,31.17,0,0,1-14-9.3A101,101,0,0,0,336.65,932.79Z" transform="translate(-103.14 -358.66)"/><path class="cls-33" d="M1852.48,1327.68c0,6.43-41.58,11.65-92.88,11.65s-92.89-5.22-92.89-11.65S1708.3,1316,1759.6,1316,1852.48,1321.25,1852.48,1327.68Z" transform="translate(-103.14 -358.66)"/><path class="cls-33" d="M1860.78,1340.57c0,4.22-27.33,7.65-61,7.65s-61-3.43-61-7.65,27.33-7.66,61-7.66S1860.78,1336.34,1860.78,1340.57Z" transform="translate(-103.14 -358.66)"/><path class="cls-34" d="M1715.29,1357.74c0,1.8-11.65,3.26-26,3.26s-26-1.46-26-3.26,11.65-3.26,26-3.26S1715.29,1355.94,1715.29,1357.74Z" transform="translate(-103.14 -358.66)"/><ellipse class="cls-34" cx="1532.79" cy="985.23" rx="53.35" ry="6.69"/><path class="cls-5" d="M1790.42,1263.08c-21.8.13-39.65-17.83-39.79-40s17.48-40.41,39.28-40.55,39.65,17.83,39.79,40S1812.22,1262.94,1790.42,1263.08Zm-.49-77.56c-19.91.13-36,16.94-35.87,37.49s16.43,37.15,36.34,37,36-16.94,35.87-37.49S1809.84,1185.4,1789.93,1185.52Z" transform="translate(-103.14 -358.66)"/><rect class="cls-35" x="1749.45" y="1228.02" width="82.11" height="96.53" transform="translate(-111.11 -347.4) rotate(-0.36)"/><rect class="cls-4" x="1749.53" y="1255.08" width="82.11" height="69.47" transform="translate(-111.2 -347.4) rotate(-0.36)"/><polygon class="cls-34" points="1601.79 982.52 1526.52 982.99 1525.96 894.5 1527.67 894.48 1530.83 894.47 1596.36 894.05 1599.54 894.04 1601.23 894.02 1601.79 982.52"/><rect class="cls-4" x="1629.45" y="1277.73" width="75.27" height="63.69" transform="translate(-111.31 -348.19) rotate(-0.36)"/><path class="cls-5" d="M1699.5,1252.71c-2.16,16.59-15.91,29.45-32.58,29.56s-30.59-12.59-33-29.14l-3.17,0c2.42,18.09,17.75,32,36.14,31.91s33.53-14.24,35.74-32.36Z" transform="translate(-103.14 -358.66)"/><rect class="cls-36" x="293.11" width="232.09" height="409.24"/><rect class="cls-36" x="522.67" width="232.09" height="561.91"/><rect class="cls-17" x="1868.47" y="1088.88" width="448.87" height="5.84" transform="translate(-187.69 1644.7) rotate(-50.27)"/><path class="cls-37" d="M2193.65,1037.82c-.48,8.78.95,25.1-5.3,25.73-2,.2-6.7-.58-12.84-1.93l-1-.21c-1.34-.3-2.74-.63-4.19-1l-.92-.21c-22.22-5.3-55.07-15-55.07-15l12.47-15s33.79,9,47.18,11.36l.61.1c-.08-.49-.18-1-.27-1.49-.19-1-.39-2.06-.6-3.08-2.31-11.71-5-21.94-5-21.94s-19.09-46.75,4.12-43.09a31.92,31.92,0,0,1,14.62,21.5C2190.12,1008.54,2194.12,1029,2193.65,1037.82Z" transform="translate(-103.14 -358.66)"/><path class="cls-38" d="M2175.51,1061.62l-1-.21c-1.34-.3-2.74-.63-4.19-1l10.43-49.76C2183.43,1032.37,2175.51,1061.62,2175.51,1061.62Z" transform="translate(-103.14 -358.66)"/><path class="cls-15" d="M2089.31,1360.54s-10-1-12.63-1.57-4.23-3.73-6.09-2-8.64,12.56-13.71,14.19-20.41,4.49-20.8,12.88,48.92,2.66,53.9,4S2089.31,1360.54,2089.31,1360.54Z" transform="translate(-103.14 -358.66)"/><path class="cls-15" d="M2157.4,1354.31s-10-1-12.63-1.57-4.23-3.72-6.09-2-8.64,12.56-13.7,14.19-20.41,4.49-20.81,12.88,48.92,2.66,53.9,4S2157.4,1354.31,2157.4,1354.31Z" transform="translate(-103.14 -358.66)"/><path class="cls-12" d="M2131.28,944.28s5.69,14.66,1.26,26c0,0,20.88-1.32,21.67-3.69s-.84-24.34,2-30.84S2131.28,944.28,2131.28,944.28Z" transform="translate(-103.14 -358.66)"/><path class="cls-37" d="M2129.26,965.31s-12.34,4.27-17.92,5.46-17.24,6.57-16.29,26.81,4.43,37.81,5.7,46.51.47,30.85-1.58,41.6c0,0,29.58,7.28,64.38,0,0,0-6.17-18.35-6-23.09s20.56-43.82,21.51-50,5.06-33.38-4.27-39.39-16.93-5.22-20.88-7.91S2135,963.38,2129.26,965.31Z" transform="translate(-103.14 -358.66)"/><path class="cls-19" d="M2099.17,1085.69s-5.38,12.72-5.86,15.93-17.33,45.19-18.51,57.47-4.74,45.56-6,50.31,2.85,25.94,3.48,30.68.32,82.26-5.37,120.54c0,0,20.23,5.17,30.35-.53,0,0,9.82-59.26,8.87-93.75s-2.52-48,2.83-61.89,33.87-56.75,37-61.18,23-28.9,4.21-55.42S2099.17,1085.69,2099.17,1085.69Z" transform="translate(-103.14 -358.66)"/><path class="cls-19" d="M2163.94,1199c-1.67,11.08.08,25.63,3.56,66.13s-2.16,89.56-2.16,89.56c-12,4.12-29.79,0-29.79,0,.32-2.85,0-98.71,0-107.25s-2.46-18.24-3.09-28c-.43-6.68-3.54-19-7-31.58-1-3.77-2.13-7.55-3.18-11.22h0c-.59-2-1.17-4.07-1.74-6-4.92-17.08-11.55-83-11.55-83s37.56-30.1,54.6-1.73c16.88,28.12,8.7,48.08,8.06,51.56S2165.6,1187.88,2163.94,1199Z" transform="translate(-103.14 -358.66)"/><path class="cls-37" d="M2096.3,1033.9s3.61,54-8.26,82.75c0,0,35.07,11,85.62-2,0,0-6.07-37.23-5.21-42.69s18-69.11,12.15-83.92S2102.13,987.17,2096.3,1033.9Z" transform="translate(-103.14 -358.66)"/><path class="cls-12" d="M2143,886.54c-8.81-1-31.64.79-29.9,35.12s14.24,32.26,26.74,28.63,27.36-30.22,27.36-37.33S2168.13,889.38,2143,886.54Z" transform="translate(-103.14 -358.66)"/><path class="cls-39" d="M2114.35,905.94s9.93,12.66,19.91,15.69c0,0,7.69,13.74,21.1,17.25,0,0,28.59-27.35,4.55-47.91S2114.19,895.44,2114.35,905.94Z" transform="translate(-103.14 -358.66)"/><path class="cls-12" d="M2132.38,916.91c.34-1.88,4.5-5.7,7.71-1.42s-2.64,14.23-4.86,14.23S2131.12,924,2132.38,916.91Z" transform="translate(-103.14 -358.66)"/><path class="cls-40" d="M2148.71,1139.46c-.28.63-18.58,41.24-23.29,48.28-1-3.77-2.13-7.55-3.18-11.22h0S2148.1,1140.35,2148.71,1139.46Z" transform="translate(-103.14 -358.66)"/><path class="cls-19" d="M2177.41,1031.6s-1.9-26.27-1.9-29.19c0,0-25.54-1-39,2.24,0,0-12.47,32.23-37,31.78,0,0,1.13,37.09-11.49,80.22,0,0,46.29,19.78,85.8-1.88,0,0-6.67-40.82-5.21-43.71S2177.41,1031.6,2177.41,1031.6Z" transform="translate(-103.14 -358.66)"/><path class="cls-19" d="M2136.55,1004.65s-1.59-23.46-17.18-36.1c0,0,2.84-1.65,4.86-1.55,0,0,9.22.65,19.09,36.46S2136.55,1004.65,2136.55,1004.65Z" transform="translate(-103.14 -358.66)"/><path class="cls-19" d="M2175.51,1002.41s-.9-22.85-9.64-33.38a3.83,3.83,0,0,0-2.75-.8s7.34,16.58,7.89,34.18S2175.51,1002.41,2175.51,1002.41Z" transform="translate(-103.14 -358.66)"/><path class="cls-39" d="M2163.94,897.15c.71-1.08,22.39-10.85,26.89,9.56s-17.45,44.13-21.3,54.33,1.74,34.12,1.74,34.12-13.22-12.16-17.22-24.89C2149.67,956.3,2148.19,921.05,2163.94,897.15Z" transform="translate(-103.14 -358.66)"/><path class="cls-19" d="M2165,896.46s-6.63,5.1-7.49,13.17c0,0-1.25-6.29,1.43-10.13S2165,896.46,2165,896.46Z" transform="translate(-103.14 -358.66)"/><path class="cls-38" d="M2111.8,1028.4s3.46-9.66,5.45-18.16a29.39,29.39,0,0,0-.77-15.68S2111,1020.92,2111.8,1028.4Z" transform="translate(-103.14 -358.66)"/><path class="cls-12" d="M2050.46,1125.47s-1.07,4.32-1.74,6.51-1.08,4.87.5,6,5,5.12,7.26,6.93,15.29-3.67,16.74-5.82-1.39-14.24-5.36-16.66-9.92-5.8-9.92-5.8Z" transform="translate(-103.14 -358.66)"/><path class="cls-37" d="M2107.86,971.88s-17.31,6.68-18.34,30.09-.33,37-1.27,40.65-3.79,17.37-8.72,25.47-22.37,49.64-22.37,49.64l12.19,7.09s30.3-46.89,32.65-53.79,13.53-56.53,12.79-63S2124.25,972.37,2107.86,971.88Z" transform="translate(-103.14 -358.66)"/><path class="cls-12" d="M2107.15,1050.32s-9.08,1.72-19.75-4.2c0,0-4.19,16.89-7.87,22s-22.37,49.64-22.37,49.64l12,7.54s30.52-45.68,32.82-54.24S2107.15,1050.32,2107.15,1050.32Z" transform="translate(-103.14 -358.66)"/><polygon class="cls-17" points="1885.02 902.37 1841.37 863.46 1878.15 862.86 1882.03 867.33 1885.02 902.37"/><polygon class="cls-41" points="1858.03 936.74 1810.17 893.55 1841.56 863.25 1885.21 902.15 1858.03 936.74"/><polygon class="cls-4" points="546.33 1014.28 553.91 1015.01 621.63 329.25 614.05 328.51 546.33 1014.28"/><polygon class="cls-4" points="423.7 1002.38 431.28 1003.11 499.01 317.35 491.43 316.61 423.7 1002.38"/><rect class="cls-4" x="654.47" y="634.11" width="7.62" height="123.2" transform="translate(-200.9 925.04) rotate(-84.46)"/><rect class="cls-4" x="648.94" y="691.13" width="7.62" height="123.2" transform="translate(-262.65 971.04) rotate(-84.46)"/><rect class="cls-4" x="643.4" y="748.15" width="7.62" height="123.2" transform="translate(-324.41 1017.05) rotate(-84.46)"/><rect class="cls-4" x="637.87" y="805.17" width="7.62" height="123.2" transform="translate(-386.16 1063.06) rotate(-84.46)"/><rect class="cls-4" x="632.34" y="862.19" width="7.62" height="123.2" transform="translate(-447.91 1109.07) rotate(-84.46)"/><rect class="cls-4" x="626.8" y="919.21" width="7.62" height="123.2" transform="translate(-509.67 1155.07) rotate(-84.46)"/><rect class="cls-4" x="621.27" y="976.23" width="7.62" height="123.2" transform="translate(-571.42 1201.08) rotate(-84.46)"/><rect class="cls-4" x="615.74" y="1033.26" width="7.62" height="123.2" transform="translate(-633.18 1247.08) rotate(-84.46)"/><rect class="cls-4" x="610.2" y="1090.28" width="7.62" height="123.2" transform="translate(-694.93 1293.09) rotate(-84.46)"/><rect class="cls-4" x="595.81" y="1204.32" width="7.62" height="123.2" transform="translate(-821.44 1381.79) rotate(-84.46)"/><rect class="cls-4" x="590.27" y="1261.34" width="7.62" height="123.2" transform="translate(-883.2 1427.8) rotate(-84.46)"/><rect class="cls-4" x="604.67" y="1147.3" width="7.62" height="123.2" transform="translate(-756.68 1339.1) rotate(-84.46)"/><rect class="cls-4" x="599.13" y="1204.32" width="7.62" height="123.2" transform="translate(-818.43 1385.1) rotate(-84.46)"/><path class="cls-42" d="M1098.78,1298.29c-47.15,11-112,27.71-157.07,45.49A295.41,295.41,0,0,1,1098.78,1298.29Z" transform="translate(-103.14 -358.66)"/></svg>