<svg xmlns="http://www.w3.org/2000/svg" viewBox="0 0 420.38 303.68"><defs><style>.cls-1{isolation:isolate;}.cls-2{fill:#68a9b2;}.cls-3{fill:#72bcc6;}.cls-4{fill:#165f67;}.cls-11,.cls-15,.cls-16,.cls-30,.cls-5{fill:none;}.cls-5{stroke:#706f6f;stroke-width:0.49px;}.cls-15,.cls-16,.cls-30,.cls-5{stroke-miterlimit:10;}.cls-6{fill:#b0b0b0;}.cls-7,.cls-8{fill:#8c8c8b;}.cls-35,.cls-8{mix-blend-mode:multiply;}.cls-9{fill:#fab700;}.cls-10{fill:#ffde00;}.cls-12{fill:#352e35;}.cls-13{fill:#a4a3a3;}.cls-14{fill:#fff;mix-blend-mode:soft-light;}.cls-15,.cls-30{stroke:#352e35;}.cls-15{stroke-width:1.97px;}.cls-16{stroke:#b2b2b2;stroke-width:2.47px;}.cls-17{fill:#b2b2b2;}.cls-18{fill:#1d171b;}.cls-19{fill:#161013;}.cls-20{fill:#413942;}.cls-21{fill:#383139;}.cls-22{fill:#c6c6c6;}.cls-23{fill:#dadada;}.cls-24{fill:#fbba00;}.cls-25{fill:#f28a15;}.cls-26{fill:#61b9d9;}.cls-27{fill:#56a3bf;}.cls-28{fill:#272127;}.cls-29{fill:#ed6b19;}.cls-30{stroke-width:1.26px;}.cls-31{fill:#ec621a;}.cls-32{fill:#ee7019;}.cls-33{fill:#c13a2a;}.cls-34{fill:#e9511b;}.cls-35{fill:#878787;}.cls-36{fill:#ee7718;}.cls-37{fill:#da6816;}.cls-38{fill:#b54111;}.cls-39{fill:#706f6f;}.cls-40{fill:#ef7b18;}.cls-41{fill:#9d9d9c;}.cls-42{fill:#f28e14;}.cls-43{fill:#ededed;}.cls-44{fill:#d2d2d2;}.cls-45{fill:#432918;}</style></defs><title>Векторный смарт-объект4</title><g class="cls-1"><g id="Режим_изоляции" data-name="Режим изоляции"><path class="cls-2" d="M388.31,85.43h-2.88V82.57h-1.92V69.79H369.38V82.57h-1.92v2.86H350.83l-2.46,3.29V75.39h-1V51.09H333.82v25l-5.64,9.08v3.57l-2.48-3.33H252.28V99h3.88v25.82a6.59,6.59,0,0,0-.94,3.41,6.68,6.68,0,0,0,4.5,6.31v6.4h.92V143a5.33,5.33,0,1,0,5.44,5.94s.12-.89-1.16-.89-1.23.89-1.23.89a3,3,0,0,1-5.87-.61c0-3.79,4.79-3,4.79-3V140.9h1.24v-6.32a6.68,6.68,0,0,0,3.78-9.8V99h60.55v2.12h2.88v4.57h2.76V232.16H333v3.59h-2.88v3.6H351v-3.6h-2.88v-3.59h-.81V105.65h1V99h19.09v.1h18V99h2.88Zm-53.18,21.78,4.53,4.43-4.53,4.44Zm.95-.9h9l-4.51,4.42Zm0,10.67,4.51-4.42L345.1,117Zm9.61,1.3-5.1,5-5.11-5Zm-10.56,1.49,4.53,4.43-4.53,4.43Zm.95,9.76,4.51-4.42,4.51,4.42Zm9.61,1.31-5.1,5-5.11-5Zm-10.56,1.48,4.53,4.44-4.53,4.43Zm.95,9.77,4.51-4.42,4.51,4.42Zm9.61,1.31-5.1,5-5.11-5Zm-10.56,1.48,4.53,4.43-4.53,4.44Zm.95,9.77,4.51-4.42,4.51,4.42Zm9.61,1.3-5.1,5-5.11-5Zm-10.56,1.49,4.53,4.43-4.53,4.43Zm.35,10.35,5.11-5,5.1,5Zm9.62,1.3-4.51,4.42-4.51-4.42Zm-10,.91,4.53,4.43-4.53,4.43Zm.35,10.35,5.11-5,5.1,5Zm9.62,1.3-4.51,4.42-4.51-4.42Zm-10,.9,4.53,4.44-4.53,4.43Zm.95,9.77,4.51-4.42,4.51,4.42Zm9.3,1.31-4.79,4.69-4.79-4.69Zm-10.25,1.18,4.53,4.43-4.53,4.43Zm.95,9.76,4.51-4.42,4.51,4.42Zm9.3,1.31-4.79,4.7-4.79-4.7Zm-10.25,1.18,4.53,4.43-4.53,4.44Zm.95,9.77,4.51-4.42,4.51,4.42Zm9.3,1.3-4.79,4.7-4.79-4.7Zm-10.25,1.18,4.53,4.43-4.53,4.44Zm5.46,5.35,4.51,4.42h-9Zm5.46,3.52-4.53-4.44,4.53-4.43Zm0-12.26-4.53-4.43,4.53-4.43Zm0-12.25-4.53-4.43,4.53-4.43Zm0-12.25L341.52,187l4.53-4.44Zm0-12.56-4.53-4.43,4.53-4.43Zm0-12.56-4.53-4.43,4.53-4.43Zm0-12.55-4.53-4.44,4.53-4.43Zm0-12.56-4.53-4.43,4.53-4.44Zm0-12.56-4.53-4.43,4.53-4.43Zm0-12.55-4.53-4.44,4.53-4.43ZM335.13,232.16v-1.77h10.92v1.77ZM385.43,95.1V89.3L387,87.69v9Zm-28.29-3.83-4.43-4.53h8.86Zm5.92-4.18V97.3l-5-5.1Zm-6.83,5.11-4.42,4.51v-9Zm.91.93,4.43,4.53h-8.86Zm7.22-5.44,3.1,3.16v2.69l-3.1,3.17Zm21.75-1-.68.69v-.69ZM367.46,89l-2.2-2.25h2.2Zm-31.14-13.6,4.27-4.19,4.27,4.19Zm5.2-5.1,4.53-4.43v8.86Zm4.17-5.92-5.1,5-5.11-5Zm-9.61-1.3,4.51-4.42,4.51,4.42Zm10-.91-4.53-4.43,4.53-4.43Zm-5.46-5.34-4.51-4.42h9Zm-.93.91-4.53,4.43V53.3Zm0,12.56-4.53,4.43V65.86Zm-26.19,16.8,5,5.11-5,5.1Zm-1.31,9.62-4.42-4.51,4.42-4.51Zm2.79-10h8.86l-4.43,4.53Zm-8.13,4.53-4.43-4.53h8.87Zm-5.33-3.58,4.42,4.51-4.42,4.51Zm-1.31,9-4.42-4.51,4.42-4.51Zm-5.33-5.44-4.44-4.53h8.87Zm-5.34-3.58,4.42,4.51-4.42,4.51Zm-1.3,9-4.42-4.51,4.42-4.51Zm-5.34-5.44-4.43-4.53h8.86Zm-5.33-3.58L282,92.2l-4.42,4.51Zm-1.31,9-4.42-4.51,4.42-4.51Zm-5.33-5.44-4.44-4.53h8.87Zm-9.37,2.66-1.7-1.73,4.42-4.51v6.24Zm-1.83,0h-1.56l.78-.8Zm5.86,0V87.69L270,92.2l-1.7,1.73Zm-6.64-2.66-4.43-4.53h8.86Zm-.92.93-1.7,1.73h-2.72V87.69ZM270.9,96v-2h-.79l.79-.8,4.43,4.53H270.9Zm12-2.85,4.43,4.53h-8.86Zm12,0,4.43,4.53h-8.87Zm12,0,4.44,4.53h-8.87Zm12.56,0,4.43,4.53H315Zm.91-.93,4.42-4.51v9Zm-53.1,31.94a6.66,6.66,0,0,0-10.6,0V99h10.6ZM326,97.66v-9.6L328.18,91v6.71Zm22.35-6.75,2.13-2.85v9.6h-2.13Zm16.89,6.75,2.2-2.25v2.25Zm20.17-.7.68.7h-.68Z" transform="translate(-2.49 -41.64)"/><path class="cls-2" d="M231,182.65h-.8V56.14h1V49.45h1.62V48.14h-1.62v-6.5H211.06v6.5h-.19v1.31h.19v2.12h2.88v4.57h2.76V182.65h-.8v3.59H213v3.59h20.91v-3.59H231ZM228,56.79l-4.51,4.43L219,56.79Zm-9.31,111.83h9.59l-4.79,4.7ZM228,179.57h-9l4.51-4.42Zm-9-12.26,4.51-4.42,4.51,4.42Zm-.29-10.94h9.59l-4.79,4.69Zm.29-1.31,4.51-4.42,4.51,4.42Zm-.29-10.95h9.59l-4.79,4.7Zm.29-1.3,4.51-4.42,4.51,4.42Zm0-10.67h9l-4.51,4.42Zm-.6-1.31,5.11-5,5.1,5Zm.6-11.25h9L223.47,124Zm-.6-1.3,5.11-5,5.1,5Zm0-11.84h10.21l-5.1,5Zm.6-1.3,4.51-4.42,4.51,4.42Zm-.6-11.25h10.21l-5.1,5Zm.6-1.31,4.51-4.42L228,92.58Zm-.6-11.25h10.21l-5.1,5ZM219,80l4.51-4.42L228,80Zm-.6-11.25h10.21l-5.1,5Zm.6-1.31L223.47,63,228,67.46Zm-1-9.76,4.52,4.43L218,66.56Zm0,12.55,4.52,4.44L218,79.12Zm0,12.56,4.52,4.44L218,91.68Zm0,12.56,4.52,4.43L218,104.24Zm0,12.55,4.52,4.44L218,116.79Zm0,12.56,4.52,4.44L218,129.35ZM218,133l4.52,4.43L218,141.91Zm0,12.25,4.52,4.44L218,154.16Zm0,12.26,4.52,4.43L218,166.41Zm0,12.25,4.52,4.43L218,178.66Zm10.91,12.85H218v-1.78h10.91Zm0-4-4.52-4.43,4.52-4.43Zm0-12.25L224.4,162l4.52-4.43Zm0-12.25-4.52-4.43,4.52-4.44Zm0-12.25-4.52-4.44,4.52-4.43Zm0-12.56-4.52-4.43,4.52-4.44Zm0-12.56-4.52-4.43,4.52-4.44Zm0-12.55L224.4,99.8l4.52-4.43Zm0-12.56-4.52-4.43,4.52-4.44Zm0-12.56-4.52-4.43,4.52-4.44Zm0-12.56-4.52-4.43,4.52-4.43Z" transform="translate(-2.49 -41.64)"/><path class="cls-2" d="M48.64,148.31h2v.07H62.74v-.07h12.9v4.53h.69v85.51h-.54v2.43h-2v2.43H88v-2.43H86v-2.43h-.54V152.84h1.86v-3.09h2v-1.44h40.93v17.46a4.49,4.49,0,0,0-.64,2.3,4.53,4.53,0,0,0,3.19,4.32v4.27h.84v3s3.24-.56,3.24,2a2,2,0,0,1-4,.42s0-.6-.83-.6-.78.6-.78.6a3.6,3.6,0,1,0,3.68-4v-1.4h.62v-4.33a4.51,4.51,0,0,0,2.41-6.56V148.31h2.62v-9.14H91l-1.68,2.25V139l-3.81-6.13V116H76.33v16.43h-.69v9L74,139.17H62.74v-1.94h-1.3v-8.64H51.89v8.64h-1.3v1.94h-2Zm36,11.57-3.06-3,3.06-3Zm-3.69-3.61-3.05-3H84Zm-3.05,4.22,3.05-3,3,3Zm6.5.88-3.45,3.38-3.45-3.38Zm.24,7-3.06-3,3.06-3Zm-6.74.61,3.05-3,3,3Zm6.5.88-3.45,3.38-3.45-3.38Zm.24,7-3.06-3,3.06-3Zm-6.74.61,3.05-3,3,3Zm6.5.88-3.45,3.38-3.45-3.38Zm.24,7-3.06-3,3.06-3Zm-6.74.61,3.05-3,3,3Zm6.5.88-3.45,3.38-3.45-3.38Zm.24,7-3.06-3,3.06-3Zm-7.14,1,3.45-3.38,3.45,3.38Zm6.5.88-3,3-3.05-3Zm.64,6.6-3.06-3,3.06-3Zm-7.14,1L80.9,200l3.45,3.38Zm6.5.88-3,3-3.05-3Zm.64,6.6-3.06-3,3.06-3Zm-6.74.61,3.05-3,3,3Zm6.29.88-3.24,3.18-3.24-3.18Zm.45,6.79-3.06-3,3.06-3Zm-6.74.61,3.05-3,3,3Zm6.29.89-3.24,3.17-3.24-3.17Zm.45,6.79-3.06-3,3.06-3Zm-6.74.61,3.05-3,3,3Zm6.29.88L80.9,232l-3.24-3.17Zm.45,6.79-3.06-3,3.06-3Zm-.64.61h-6.1l3.05-3Zm-6.74-6.6,3.06,3-3.06,3Zm0-8.29,3.06,3-3.06,3Zm0-8.28,3.06,3-3.06,3Zm0-8.28,3.06,3-3.06,3Zm0-8.49,3.06,3-3.06,3Zm0-8.49,3.06,3-3.06,3Zm0-8.49,3.06,3-3.06,3Zm0-8.48,3.06,3-3.06,3Zm0-8.49,3.06,3-3.06,3Zm0-8.49,3.06,3-3.06,3Zm0,84.46v-1.2h7.38v1.2ZM49.52,146.79v-6.1l1.07,1.09v3.92Zm17.2-6.74h6l-3,3.06Zm2.38,3.69-3.38,3.45v-6.9Zm4.22-3.05v6.1l-3-3Zm-.61,6.74h-6l3-3.06Zm-7.88-.64-2.09-2.14v-1.82l2.09-2.14Zm-14.24-6.74v.47l-.46-.47Zm12.15,0h1.48l-1.48,1.52ZM78,132.38l2.88-2.83,2.89,2.83Zm-.81-.45v-6l3.06,3Zm7.14-7-3.45,3.38-3.45-3.38Zm-6.5-.88,3.05-3,3,3Zm-.64-6.6,3.06,3-3.06,3Zm.64-.61H84l-3,3Zm6.74.61v6l-3.06-3Zm0,8.48v6l-3.06-3Zm14.65,21.26-3.38-3.45,3.38-3.45Zm.88-6.5,3,3.05-3,3Zm-4.88,2.42-3-3.06h6Zm5.49-3.06h6l-3,3.06Zm6.6,6.74-3-3,3-3.05Zm.89-6.1,3,3.05-3,3Zm.61-.64h6l-3,3.06Zm6.6,6.74-3-3,3-3.05Zm.88-6.1,3,3.05-3,3Zm.61-.64h6l-3,3.06Zm6.6,6.74-3-3,3-3.05Zm.89-6.1,3,3.05-3,3Zm.61-.64h6l-3,3.06Zm7.48,4.86v-4.22l3,3.05-1.15,1.17Zm3.61-.54.53.54h-1.06Zm-6.33.54-1.15-1.17,3-3.05v4.22Zm3.33-4.86h6l-3,3.06Zm6.61.64v4.22h-1.84l-1.15-1.17ZM128,147.43h-3l3-3.06.53.54H128v2.52Zm-5.09,0h-6l3-3.06Zm-8.1,0h-6l3-3.06Zm-8.1,0h-6l3-3.06Zm-8.48,0h-6l3-3.06Zm-6.61-.64v-6.1l3,3.05Zm38.89,1.52h7.16v17a4.51,4.51,0,0,0-7.16,0Zm-41.23-.88V142.9l1.46-2v6.49Zm-13.65,0H74.2v-6.49l1.44,1.93Zm-12.9,0v-1.52l1.48,1.52Zm-12.15,0h-.46l.46-.47Z" transform="translate(-2.49 -41.64)"/><rect class="cls-3" x="200.68" y="153.81" width="38.39" height="135.61"/><rect class="cls-3" x="204.74" y="117.89" width="30.28" height="35.91"/><rect class="cls-3" x="208.67" y="90.9" width="22.42" height="27"/><rect class="cls-3" x="213.61" y="95.76" width="13.81" height="13.41"/><rect class="cls-4" x="215.41" y="97.5" width="10.21" height="9.91"/><rect class="cls-3" x="219.91" y="96.63" width="1.2" height="11.8"/><rect class="cls-3" x="214.43" y="101.95" width="12.16" height="1.17"/><rect class="cls-3" x="208.5" y="121.76" width="10.46" height="10.15"/><rect class="cls-4" x="209.87" y="123.08" width="7.73" height="7.5"/><rect class="cls-3" x="213.28" y="122.42" width="0.91" height="8.94"/><rect class="cls-3" x="209.13" y="126.45" width="9.21" height="0.88"/><rect class="cls-3" x="208.5" y="137.56" width="10.46" height="10.15"/><rect class="cls-4" x="209.87" y="138.88" width="7.73" height="7.5"/><rect class="cls-3" x="213.28" y="138.22" width="0.91" height="8.94"/><rect class="cls-3" x="209.13" y="142.25" width="9.21" height="0.88"/><rect class="cls-3" x="221.46" y="137.56" width="10.46" height="10.15"/><rect class="cls-4" x="222.83" y="138.88" width="7.73" height="7.5"/><rect class="cls-3" x="226.23" y="138.22" width="0.91" height="8.94"/><rect class="cls-3" x="222.09" y="142.25" width="9.21" height="0.88"/><rect class="cls-3" x="203.7" y="158.16" width="9.27" height="9"/><rect class="cls-4" x="204.91" y="159.34" width="6.85" height="6.65"/><rect class="cls-3" x="207.93" y="158.75" width="0.81" height="7.92"/><rect class="cls-3" x="204.26" y="162.32" width="8.16" height="0.78"/><rect class="cls-3" x="203.7" y="169.72" width="9.27" height="9"/><rect class="cls-4" x="204.91" y="170.9" width="6.85" height="6.65"/><rect class="cls-3" x="207.93" y="170.31" width="0.81" height="7.92"/><rect class="cls-3" x="204.26" y="173.88" width="8.16" height="0.78"/><rect class="cls-3" x="215.26" y="169.72" width="9.27" height="9"/><rect class="cls-4" x="216.47" y="170.9" width="6.85" height="6.65"/><rect class="cls-3" x="219.5" y="170.31" width="0.8" height="7.92"/><rect class="cls-3" x="215.82" y="173.88" width="8.16" height="0.78"/><rect class="cls-3" x="226.83" y="169.72" width="9.27" height="9"/><rect class="cls-4" x="228.04" y="170.9" width="6.85" height="6.65"/><rect class="cls-3" x="231.06" y="170.31" width="0.81" height="7.92"/><rect class="cls-3" x="227.38" y="173.88" width="8.16" height="0.78"/><rect class="cls-3" x="203.7" y="181.29" width="9.27" height="9"/><rect class="cls-4" x="204.91" y="182.46" width="6.85" height="6.65"/><rect class="cls-3" x="207.93" y="181.87" width="0.81" height="7.92"/><rect class="cls-3" x="204.26" y="185.44" width="8.16" height="0.78"/><rect class="cls-3" x="226.83" y="181.29" width="9.27" height="9"/><rect class="cls-4" x="228.04" y="182.46" width="6.85" height="6.65"/><rect class="cls-3" x="231.06" y="181.87" width="0.81" height="7.92"/><rect class="cls-3" x="227.38" y="185.44" width="8.16" height="0.78"/><rect class="cls-3" x="215.26" y="192.85" width="9.27" height="9"/><rect class="cls-4" x="216.47" y="194.02" width="6.85" height="6.65"/><rect class="cls-3" x="219.5" y="193.43" width="0.8" height="7.92"/><rect class="cls-3" x="215.82" y="197" width="8.16" height="0.78"/><rect class="cls-3" x="226.83" y="192.85" width="9.27" height="9"/><rect class="cls-4" x="228.04" y="194.02" width="6.85" height="6.65"/><rect class="cls-3" x="231.06" y="193.43" width="0.81" height="7.92"/><rect class="cls-3" x="227.38" y="197" width="8.16" height="0.78"/><rect class="cls-3" x="203.7" y="204.41" width="9.27" height="9"/><rect class="cls-4" x="204.91" y="205.58" width="6.85" height="6.65"/><rect class="cls-3" x="207.93" y="204.99" width="0.81" height="7.92"/><rect class="cls-3" x="204.26" y="208.56" width="8.16" height="0.78"/><rect class="cls-3" x="215.26" y="204.41" width="9.27" height="9"/><rect class="cls-4" x="216.47" y="205.58" width="6.85" height="6.65"/><rect class="cls-3" x="219.5" y="204.99" width="0.8" height="7.92"/><rect class="cls-3" x="215.82" y="208.56" width="8.16" height="0.78"/><rect class="cls-3" x="203.7" y="215.97" width="9.27" height="9"/><rect class="cls-4" x="204.91" y="217.14" width="6.85" height="6.65"/><rect class="cls-3" x="207.93" y="216.55" width="0.81" height="7.92"/><rect class="cls-3" x="204.26" y="220.12" width="8.16" height="0.79"/><rect class="cls-3" x="226.83" y="215.97" width="9.27" height="9"/><rect class="cls-4" x="228.04" y="217.14" width="6.85" height="6.65"/><rect class="cls-3" x="231.06" y="216.55" width="0.81" height="7.92"/><rect class="cls-3" x="227.38" y="220.12" width="8.16" height="0.79"/><rect class="cls-3" x="238" y="177.55" width="38.39" height="111.87"/><rect class="cls-3" x="264.15" y="181.29" width="9.27" height="9"/><rect class="cls-4" x="265.35" y="182.46" width="6.85" height="6.65"/><rect class="cls-3" x="268.38" y="181.87" width="0.81" height="7.92"/><rect class="cls-3" x="264.7" y="185.44" width="8.16" height="0.78"/><rect class="cls-3" x="252.58" y="192.85" width="9.27" height="9"/><rect class="cls-4" x="253.79" y="194.02" width="6.85" height="6.65"/><rect class="cls-3" x="256.81" y="193.43" width="0.81" height="7.92"/><rect class="cls-3" x="253.14" y="197" width="8.16" height="0.78"/><rect class="cls-3" x="264.15" y="192.85" width="9.27" height="9"/><rect class="cls-4" x="265.35" y="194.02" width="6.85" height="6.65"/><rect class="cls-3" x="268.38" y="193.43" width="0.81" height="7.92"/><rect class="cls-3" x="264.7" y="197" width="8.16" height="0.78"/><rect class="cls-3" x="241.02" y="204.41" width="9.27" height="9"/><rect class="cls-4" x="242.23" y="205.58" width="6.85" height="6.65"/><rect class="cls-3" x="245.25" y="204.99" width="0.81" height="7.92"/><rect class="cls-3" x="241.57" y="208.56" width="8.16" height="0.78"/><rect class="cls-3" x="252.58" y="204.41" width="9.27" height="9"/><rect class="cls-4" x="253.79" y="205.58" width="6.85" height="6.65"/><rect class="cls-3" x="256.81" y="204.99" width="0.81" height="7.92"/><rect class="cls-3" x="253.14" y="208.56" width="8.16" height="0.78"/><rect class="cls-3" x="241.02" y="215.97" width="9.27" height="9"/><rect class="cls-4" x="242.23" y="217.14" width="6.85" height="6.65"/><rect class="cls-3" x="245.25" y="216.55" width="0.81" height="7.92"/><rect class="cls-3" x="241.57" y="220.12" width="8.16" height="0.79"/><rect class="cls-3" x="264.15" y="215.97" width="9.27" height="9"/><rect class="cls-4" x="265.35" y="217.14" width="6.85" height="6.65"/><rect class="cls-3" x="268.38" y="216.55" width="0.81" height="7.92"/><rect class="cls-3" x="264.7" y="220.12" width="8.16" height="0.79"/><rect class="cls-3" x="162.29" y="200.67" width="38.39" height="88.74"/><rect class="cls-3" x="165.31" y="204.41" width="9.27" height="9"/><rect class="cls-4" x="166.52" y="205.58" width="6.85" height="6.65"/><rect class="cls-3" x="169.54" y="204.99" width="0.81" height="7.92"/><rect class="cls-3" x="165.87" y="208.56" width="8.16" height="0.78"/><rect class="cls-3" x="176.88" y="204.41" width="9.27" height="9"/><rect class="cls-4" x="178.08" y="205.58" width="6.85" height="6.65"/><rect class="cls-3" x="181.11" y="204.99" width="0.81" height="7.92"/><rect class="cls-3" x="177.43" y="208.56" width="8.16" height="0.78"/><rect class="cls-3" x="165.31" y="215.97" width="9.27" height="9"/><rect class="cls-4" x="166.52" y="217.14" width="6.85" height="6.65"/><rect class="cls-3" x="169.54" y="216.55" width="0.81" height="7.92"/><rect class="cls-3" x="165.87" y="220.12" width="8.16" height="0.79"/><rect class="cls-3" x="188.44" y="215.97" width="9.27" height="9"/><rect class="cls-4" x="189.65" y="217.14" width="6.85" height="6.65"/><rect class="cls-3" x="192.67" y="216.55" width="0.81" height="7.92"/><rect class="cls-3" x="188.99" y="220.12" width="8.16" height="0.79"/><polygon class="cls-3" points="326.86 289.41 299.07 289.41 299.07 112.67 326.86 127.76 326.86 289.41"/><rect class="cls-3" x="325.17" y="170.91" width="27.79" height="118.5"/><rect class="cls-3" x="375.87" y="170.91" width="27.79" height="118.5"/><rect class="cls-3" x="273.2" y="182.62" width="27.79" height="106.8"/><rect class="cls-3" x="348.76" y="138.59" width="27.79" height="150.82"/><rect class="cls-3" x="301.48" y="126.33" width="6.7" height="6.51"/><rect class="cls-4" x="302.35" y="127.17" width="4.95" height="4.81"/><rect class="cls-3" x="304.53" y="126.75" width="0.58" height="5.73"/><rect class="cls-3" x="301.88" y="129.33" width="5.9" height="0.57"/><rect class="cls-3" x="301.48" y="134.69" width="6.7" height="6.51"/><rect class="cls-4" x="302.35" y="135.53" width="4.95" height="4.81"/><rect class="cls-3" x="304.53" y="135.11" width="0.58" height="5.73"/><rect class="cls-3" x="301.88" y="137.69" width="5.9" height="0.57"/><rect class="cls-3" x="309.84" y="134.69" width="6.7" height="6.51"/><rect class="cls-4" x="310.71" y="135.53" width="4.96" height="4.81"/><rect class="cls-3" x="312.9" y="135.11" width="0.58" height="5.73"/><rect class="cls-3" x="310.24" y="137.69" width="5.9" height="0.57"/><rect class="cls-3" x="318.2" y="134.69" width="6.7" height="6.51"/><rect class="cls-4" x="319.07" y="135.53" width="4.95" height="4.81"/><rect class="cls-3" x="321.26" y="135.11" width="0.58" height="5.73"/><rect class="cls-3" x="318.6" y="137.69" width="5.9" height="0.57"/><rect class="cls-3" x="301.48" y="143.05" width="6.7" height="6.51"/><rect class="cls-4" x="302.35" y="143.89" width="4.95" height="4.81"/><rect class="cls-3" x="304.53" y="143.47" width="0.58" height="5.73"/><rect class="cls-3" x="301.88" y="146.05" width="5.9" height="0.57"/><rect class="cls-3" x="318.2" y="143.05" width="6.7" height="6.51"/><rect class="cls-4" x="319.07" y="143.89" width="4.95" height="4.81"/><rect class="cls-3" x="321.26" y="143.47" width="0.58" height="5.73"/><rect class="cls-3" x="318.6" y="146.05" width="5.9" height="0.57"/><rect class="cls-3" x="309.84" y="151.41" width="6.7" height="6.51"/><rect class="cls-4" x="310.71" y="152.25" width="4.96" height="4.81"/><rect class="cls-3" x="312.9" y="151.83" width="0.58" height="5.73"/><rect class="cls-3" x="310.24" y="154.41" width="5.9" height="0.57"/><rect class="cls-3" x="318.2" y="151.41" width="6.7" height="6.51"/><rect class="cls-4" x="319.07" y="152.25" width="4.95" height="4.81"/><rect class="cls-3" x="321.26" y="151.83" width="0.58" height="5.73"/><rect class="cls-3" x="318.6" y="154.41" width="5.9" height="0.57"/><rect class="cls-3" x="301.48" y="159.77" width="6.7" height="6.51"/><rect class="cls-4" x="302.35" y="160.61" width="4.95" height="4.81"/><rect class="cls-3" x="304.53" y="160.19" width="0.58" height="5.73"/><rect class="cls-3" x="301.88" y="162.77" width="5.9" height="0.57"/><rect class="cls-3" x="309.84" y="159.77" width="6.7" height="6.51"/><rect class="cls-4" x="310.71" y="160.61" width="4.96" height="4.81"/><rect class="cls-3" x="312.9" y="160.19" width="0.58" height="5.73"/><rect class="cls-3" x="310.24" y="162.77" width="5.9" height="0.57"/><rect class="cls-3" x="301.48" y="168.13" width="6.7" height="6.51"/><rect class="cls-4" x="302.35" y="168.97" width="4.95" height="4.81"/><rect class="cls-3" x="304.53" y="168.55" width="0.58" height="5.73"/><rect class="cls-3" x="301.88" y="171.13" width="5.9" height="0.57"/><rect class="cls-3" x="318.2" y="168.13" width="6.7" height="6.51"/><rect class="cls-4" x="319.07" y="168.97" width="4.95" height="4.81"/><rect class="cls-3" x="321.26" y="168.55" width="0.58" height="5.73"/><rect class="cls-3" x="318.6" y="171.13" width="5.9" height="0.57"/><rect class="cls-3" x="278.05" y="185.45" width="6.7" height="6.51"/><rect class="cls-4" x="278.92" y="186.3" width="4.95" height="4.81"/><rect class="cls-3" x="281.11" y="185.87" width="0.58" height="5.73"/><rect class="cls-3" x="278.45" y="188.45" width="5.9" height="0.57"/><rect class="cls-3" x="278.05" y="193.81" width="6.7" height="6.51"/><rect class="cls-4" x="278.92" y="194.66" width="4.95" height="4.81"/><rect class="cls-3" x="281.11" y="194.23" width="0.58" height="5.73"/><rect class="cls-3" x="278.45" y="196.81" width="5.9" height="0.57"/><rect class="cls-3" x="286.41" y="193.81" width="6.7" height="6.51"/><rect class="cls-4" x="287.28" y="194.66" width="4.95" height="4.81"/><rect class="cls-3" x="289.47" y="194.23" width="0.58" height="5.73"/><rect class="cls-3" x="286.81" y="196.81" width="5.9" height="0.57"/><rect class="cls-3" x="294.77" y="193.81" width="6.7" height="6.51"/><rect class="cls-4" x="295.65" y="194.66" width="4.96" height="4.81"/><rect class="cls-3" x="297.83" y="194.23" width="0.58" height="5.73"/><rect class="cls-3" x="295.17" y="196.81" width="5.9" height="0.57"/><rect class="cls-3" x="278.05" y="202.17" width="6.7" height="6.51"/><rect class="cls-4" x="278.92" y="203.02" width="4.95" height="4.81"/><rect class="cls-3" x="281.11" y="202.59" width="0.58" height="5.73"/><rect class="cls-3" x="278.45" y="205.17" width="5.9" height="0.57"/><rect class="cls-3" x="294.77" y="202.17" width="6.7" height="6.51"/><rect class="cls-4" x="295.65" y="203.02" width="4.96" height="4.81"/><rect class="cls-3" x="297.83" y="202.59" width="0.58" height="5.73"/><rect class="cls-3" x="295.17" y="205.17" width="5.9" height="0.57"/><rect class="cls-3" x="286.41" y="210.53" width="6.7" height="6.51"/><rect class="cls-4" x="287.28" y="211.38" width="4.95" height="4.81"/><rect class="cls-3" x="289.47" y="210.95" width="0.58" height="5.73"/><rect class="cls-3" x="286.81" y="213.53" width="5.9" height="0.57"/><rect class="cls-3" x="294.77" y="210.53" width="6.7" height="6.51"/><rect class="cls-4" x="295.65" y="211.38" width="4.96" height="4.81"/><rect class="cls-3" x="297.83" y="210.95" width="0.58" height="5.73"/><rect class="cls-3" x="295.17" y="213.53" width="5.9" height="0.57"/><rect class="cls-3" x="278.05" y="218.89" width="6.7" height="6.51"/><rect class="cls-4" x="278.92" y="219.74" width="4.95" height="4.81"/><rect class="cls-3" x="281.11" y="219.31" width="0.58" height="5.73"/><rect class="cls-3" x="278.45" y="221.89" width="5.9" height="0.57"/><rect class="cls-3" x="286.41" y="218.89" width="6.7" height="6.51"/><rect class="cls-4" x="287.28" y="219.74" width="4.95" height="4.81"/><rect class="cls-3" x="289.47" y="219.31" width="0.58" height="5.73"/><rect class="cls-3" x="286.81" y="221.89" width="5.9" height="0.57"/><rect class="cls-3" x="278.05" y="227.25" width="6.7" height="6.51"/><rect class="cls-4" x="278.92" y="228.1" width="4.95" height="4.81"/><rect class="cls-3" x="281.11" y="227.67" width="0.58" height="5.73"/><rect class="cls-3" x="278.45" y="230.25" width="5.9" height="0.57"/><rect class="cls-3" x="294.77" y="227.25" width="6.7" height="6.51"/><rect class="cls-4" x="295.65" y="228.1" width="4.96" height="4.81"/><rect class="cls-3" x="297.83" y="227.67" width="0.58" height="5.73"/><rect class="cls-3" x="295.17" y="230.25" width="5.9" height="0.57"/><rect class="cls-3" x="313.45" y="185.45" width="6.7" height="6.51"/><rect class="cls-4" x="314.33" y="186.3" width="4.95" height="4.81"/><rect class="cls-3" x="316.51" y="185.87" width="0.58" height="5.73"/><rect class="cls-3" x="313.85" y="188.45" width="5.9" height="0.57"/><rect class="cls-3" x="313.45" y="193.81" width="6.7" height="6.51"/><rect class="cls-4" x="314.33" y="194.66" width="4.95" height="4.81"/><rect class="cls-3" x="316.51" y="194.23" width="0.58" height="5.73"/><rect class="cls-3" x="313.85" y="196.81" width="5.9" height="0.57"/><rect class="cls-3" x="321.82" y="193.81" width="6.7" height="6.51"/><rect class="cls-4" x="322.69" y="194.66" width="4.95" height="4.81"/><rect class="cls-3" x="324.87" y="194.23" width="0.58" height="5.73"/><rect class="cls-3" x="322.22" y="196.81" width="5.9" height="0.57"/><rect class="cls-3" x="330.18" y="193.81" width="6.7" height="6.51"/><rect class="cls-4" x="331.05" y="194.66" width="4.95" height="4.81"/><rect class="cls-3" x="333.24" y="194.23" width="0.58" height="5.73"/><rect class="cls-3" x="330.58" y="196.81" width="5.9" height="0.57"/><rect class="cls-3" x="313.45" y="202.17" width="6.7" height="6.51"/><rect class="cls-4" x="314.33" y="203.02" width="4.95" height="4.81"/><rect class="cls-3" x="316.51" y="202.59" width="0.58" height="5.73"/><rect class="cls-3" x="313.85" y="205.17" width="5.9" height="0.57"/><rect class="cls-3" x="330.18" y="202.17" width="6.7" height="6.51"/><rect class="cls-4" x="331.05" y="203.02" width="4.95" height="4.81"/><rect class="cls-3" x="333.24" y="202.59" width="0.58" height="5.73"/><rect class="cls-3" x="330.58" y="205.17" width="5.9" height="0.57"/><rect class="cls-3" x="321.82" y="210.53" width="6.7" height="6.51"/><rect class="cls-4" x="322.69" y="211.38" width="4.95" height="4.81"/><rect class="cls-3" x="324.87" y="210.95" width="0.58" height="5.73"/><rect class="cls-3" x="322.22" y="213.53" width="5.9" height="0.57"/><rect class="cls-3" x="330.18" y="210.53" width="6.7" height="6.51"/><rect class="cls-4" x="331.05" y="211.38" width="4.95" height="4.81"/><rect class="cls-3" x="333.24" y="210.95" width="0.58" height="5.73"/><rect class="cls-3" x="330.58" y="213.53" width="5.9" height="0.57"/><rect class="cls-3" x="313.45" y="218.89" width="6.7" height="6.51"/><rect class="cls-4" x="314.33" y="219.74" width="4.95" height="4.81"/><rect class="cls-3" x="316.51" y="219.31" width="0.58" height="5.73"/><rect class="cls-3" x="313.85" y="221.89" width="5.9" height="0.57"/><rect class="cls-3" x="321.82" y="218.89" width="6.7" height="6.51"/><rect class="cls-4" x="322.69" y="219.74" width="4.95" height="4.81"/><rect class="cls-3" x="324.87" y="219.31" width="0.58" height="5.73"/><rect class="cls-3" x="322.22" y="221.89" width="5.9" height="0.57"/><rect class="cls-3" x="313.45" y="227.25" width="6.7" height="6.51"/><rect class="cls-4" x="314.33" y="228.1" width="4.95" height="4.81"/><rect class="cls-3" x="316.51" y="227.67" width="0.58" height="5.73"/><rect class="cls-3" x="313.85" y="230.25" width="5.9" height="0.57"/><rect class="cls-3" x="330.18" y="227.25" width="6.7" height="6.51"/><rect class="cls-4" x="331.05" y="228.1" width="4.95" height="4.81"/><rect class="cls-3" x="333.24" y="227.67" width="0.58" height="5.73"/><rect class="cls-3" x="330.58" y="230.25" width="5.9" height="0.57"/><rect class="cls-3" x="346.64" y="185.45" width="6.7" height="6.51"/><rect class="cls-4" x="347.51" y="186.3" width="4.96" height="4.81"/><rect class="cls-3" x="349.7" y="185.87" width="0.58" height="5.73"/><rect class="cls-3" x="347.04" y="188.45" width="5.9" height="0.57"/><rect class="cls-3" x="346.64" y="193.81" width="6.7" height="6.51"/><rect class="cls-4" x="347.51" y="194.66" width="4.96" height="4.81"/><rect class="cls-3" x="349.7" y="194.23" width="0.58" height="5.73"/><rect class="cls-3" x="347.04" y="196.81" width="5.9" height="0.57"/><rect class="cls-3" x="355" y="193.81" width="6.7" height="6.51"/><rect class="cls-4" x="355.88" y="194.66" width="4.95" height="4.81"/><rect class="cls-3" x="358.06" y="194.23" width="0.58" height="5.73"/><rect class="cls-3" x="355.4" y="196.81" width="5.9" height="0.57"/><rect class="cls-3" x="363.36" y="193.81" width="6.7" height="6.51"/><rect class="cls-4" x="364.24" y="194.66" width="4.95" height="4.81"/><rect class="cls-3" x="366.42" y="194.23" width="0.59" height="5.73"/><rect class="cls-3" x="363.76" y="196.81" width="5.9" height="0.57"/><rect class="cls-3" x="346.64" y="202.17" width="6.7" height="6.51"/><rect class="cls-4" x="347.51" y="203.02" width="4.96" height="4.81"/><rect class="cls-3" x="349.7" y="202.59" width="0.58" height="5.73"/><rect class="cls-3" x="347.04" y="205.17" width="5.9" height="0.57"/><rect class="cls-3" x="363.36" y="202.17" width="6.7" height="6.51"/><rect class="cls-4" x="364.24" y="203.02" width="4.95" height="4.81"/><rect class="cls-3" x="366.42" y="202.59" width="0.59" height="5.73"/><rect class="cls-3" x="363.76" y="205.17" width="5.9" height="0.57"/><rect class="cls-3" x="355" y="210.53" width="6.7" height="6.51"/><rect class="cls-4" x="355.88" y="211.38" width="4.95" height="4.81"/><rect class="cls-3" x="358.06" y="210.95" width="0.58" height="5.73"/><rect class="cls-3" x="355.4" y="213.53" width="5.9" height="0.57"/><rect class="cls-3" x="363.36" y="210.53" width="6.7" height="6.51"/><rect class="cls-4" x="364.24" y="211.38" width="4.95" height="4.81"/><rect class="cls-3" x="366.42" y="210.95" width="0.59" height="5.73"/><rect class="cls-3" x="363.76" y="213.53" width="5.9" height="0.57"/><rect class="cls-3" x="346.64" y="218.89" width="6.7" height="6.51"/><rect class="cls-4" x="347.51" y="219.74" width="4.96" height="4.81"/><rect class="cls-3" x="349.7" y="219.31" width="0.58" height="5.73"/><rect class="cls-3" x="347.04" y="221.89" width="5.9" height="0.57"/><rect class="cls-3" x="355" y="218.89" width="6.7" height="6.51"/><rect class="cls-4" x="355.88" y="219.74" width="4.95" height="4.81"/><rect class="cls-3" x="358.06" y="219.31" width="0.58" height="5.73"/><rect class="cls-3" x="355.4" y="221.89" width="5.9" height="0.57"/><rect class="cls-3" x="346.64" y="227.25" width="6.7" height="6.51"/><rect class="cls-4" x="347.51" y="228.1" width="4.96" height="4.81"/><rect class="cls-3" x="349.7" y="227.67" width="0.58" height="5.73"/><rect class="cls-3" x="347.04" y="230.25" width="5.9" height="0.57"/><rect class="cls-3" x="363.36" y="227.25" width="6.7" height="6.51"/><rect class="cls-4" x="364.24" y="228.1" width="4.95" height="4.81"/><rect class="cls-3" x="366.42" y="227.67" width="0.59" height="5.73"/><rect class="cls-3" x="363.76" y="230.25" width="5.9" height="0.57"/><rect class="cls-3" x="354.09" y="141.27" width="4.91" height="4.76"/><rect class="cls-4" x="354.73" y="141.89" width="3.63" height="3.52"/><rect class="cls-3" x="356.33" y="141.58" width="0.43" height="4.19"/><rect class="cls-3" x="354.38" y="143.47" width="4.32" height="0.42"/><rect class="cls-3" x="354.09" y="147.39" width="4.91" height="4.76"/><rect class="cls-4" x="354.73" y="148.01" width="3.63" height="3.52"/><rect class="cls-3" x="356.33" y="147.7" width="0.43" height="4.19"/><rect class="cls-3" x="354.38" y="149.59" width="4.32" height="0.42"/><rect class="cls-3" x="360.21" y="147.39" width="4.91" height="4.76"/><rect class="cls-4" x="360.84" y="148.01" width="3.63" height="3.52"/><rect class="cls-3" x="362.45" y="147.7" width="0.43" height="4.19"/><rect class="cls-3" x="360.5" y="149.59" width="4.32" height="0.42"/><rect class="cls-3" x="366.32" y="147.39" width="4.91" height="4.76"/><rect class="cls-4" x="366.96" y="148.01" width="3.63" height="3.52"/><rect class="cls-3" x="368.56" y="147.7" width="0.43" height="4.19"/><rect class="cls-3" x="366.62" y="149.59" width="4.32" height="0.42"/><rect class="cls-3" x="354.09" y="153.51" width="4.91" height="4.76"/><rect class="cls-4" x="354.73" y="154.13" width="3.63" height="3.52"/><rect class="cls-3" x="356.33" y="153.82" width="0.43" height="4.19"/><rect class="cls-3" x="354.38" y="155.7" width="4.32" height="0.42"/><rect class="cls-3" x="366.32" y="153.51" width="4.91" height="4.76"/><rect class="cls-4" x="366.96" y="154.13" width="3.63" height="3.52"/><rect class="cls-3" x="368.56" y="153.82" width="0.43" height="4.19"/><rect class="cls-3" x="366.62" y="155.7" width="4.32" height="0.42"/><rect class="cls-3" x="360.21" y="159.62" width="4.91" height="4.76"/><rect class="cls-4" x="360.84" y="160.24" width="3.63" height="3.52"/><rect class="cls-3" x="362.45" y="159.93" width="0.43" height="4.19"/><rect class="cls-3" x="360.5" y="161.82" width="4.32" height="0.41"/><rect class="cls-3" x="366.32" y="159.62" width="4.91" height="4.76"/><rect class="cls-4" x="366.96" y="160.24" width="3.63" height="3.52"/><rect class="cls-3" x="368.56" y="159.93" width="0.43" height="4.19"/><rect class="cls-3" x="366.62" y="161.82" width="4.32" height="0.41"/><rect class="cls-3" x="354.09" y="165.74" width="4.91" height="4.76"/><rect class="cls-4" x="354.73" y="166.36" width="3.63" height="3.52"/><rect class="cls-3" x="356.33" y="166.05" width="0.43" height="4.19"/><rect class="cls-3" x="354.38" y="167.94" width="4.32" height="0.41"/><rect class="cls-3" x="360.21" y="165.74" width="4.91" height="4.76"/><rect class="cls-4" x="360.84" y="166.36" width="3.63" height="3.52"/><rect class="cls-3" x="362.45" y="166.05" width="0.43" height="4.19"/><rect class="cls-3" x="360.5" y="167.94" width="4.32" height="0.41"/><rect class="cls-3" x="354.09" y="171.86" width="4.91" height="4.76"/><rect class="cls-4" x="354.73" y="172.48" width="3.63" height="3.52"/><rect class="cls-3" x="356.33" y="172.17" width="0.43" height="4.19"/><rect class="cls-3" x="354.38" y="174.06" width="4.32" height="0.41"/><rect class="cls-3" x="366.32" y="171.86" width="4.91" height="4.76"/><rect class="cls-4" x="366.96" y="172.48" width="3.63" height="3.52"/><rect class="cls-3" x="368.56" y="172.17" width="0.43" height="4.19"/><rect class="cls-3" x="366.62" y="174.06" width="4.32" height="0.41"/><rect class="cls-3" x="381.2" y="174.28" width="4.9" height="4.76"/><rect class="cls-4" x="381.84" y="174.9" width="3.63" height="3.52"/><rect class="cls-3" x="383.44" y="174.59" width="0.43" height="4.19"/><rect class="cls-3" x="381.49" y="176.48" width="4.32" height="0.42"/><rect class="cls-3" x="381.2" y="180.4" width="4.9" height="4.76"/><rect class="cls-4" x="381.84" y="181.02" width="3.63" height="3.52"/><rect class="cls-3" x="383.44" y="180.71" width="0.43" height="4.19"/><rect class="cls-3" x="381.49" y="182.6" width="4.32" height="0.42"/><rect class="cls-3" x="387.32" y="180.4" width="4.91" height="4.76"/><rect class="cls-4" x="387.96" y="181.02" width="3.63" height="3.52"/><rect class="cls-3" x="389.56" y="180.71" width="0.43" height="4.19"/><rect class="cls-3" x="387.61" y="182.6" width="4.32" height="0.42"/><rect class="cls-3" x="393.43" y="180.4" width="4.9" height="4.76"/><rect class="cls-4" x="394.07" y="181.02" width="3.63" height="3.52"/><rect class="cls-3" x="395.67" y="180.71" width="0.42" height="4.19"/><rect class="cls-3" x="393.73" y="182.6" width="4.32" height="0.42"/><rect class="cls-3" x="381.2" y="186.52" width="4.9" height="4.76"/><rect class="cls-4" x="381.84" y="187.14" width="3.63" height="3.52"/><rect class="cls-3" x="383.44" y="186.83" width="0.43" height="4.19"/><rect class="cls-3" x="381.49" y="188.71" width="4.32" height="0.41"/><rect class="cls-3" x="393.43" y="186.52" width="4.9" height="4.76"/><rect class="cls-4" x="394.07" y="187.14" width="3.63" height="3.52"/><rect class="cls-3" x="395.67" y="186.83" width="0.42" height="4.19"/><rect class="cls-3" x="393.73" y="188.71" width="4.32" height="0.41"/><rect class="cls-3" x="387.32" y="192.63" width="4.91" height="4.76"/><rect class="cls-4" x="387.96" y="193.25" width="3.63" height="3.52"/><rect class="cls-3" x="389.56" y="192.94" width="0.43" height="4.19"/><rect class="cls-3" x="387.61" y="194.83" width="4.32" height="0.41"/><rect class="cls-3" x="393.43" y="192.63" width="4.9" height="4.76"/><rect class="cls-4" x="394.07" y="193.25" width="3.63" height="3.52"/><rect class="cls-3" x="395.67" y="192.94" width="0.42" height="4.19"/><rect class="cls-3" x="393.73" y="194.83" width="4.32" height="0.41"/><rect class="cls-3" x="381.2" y="198.75" width="4.9" height="4.76"/><rect class="cls-4" x="381.84" y="199.37" width="3.63" height="3.52"/><rect class="cls-3" x="383.44" y="199.06" width="0.43" height="4.19"/><rect class="cls-3" x="381.49" y="200.95" width="4.32" height="0.41"/><rect class="cls-3" x="387.32" y="198.75" width="4.91" height="4.76"/><rect class="cls-4" x="387.96" y="199.37" width="3.63" height="3.52"/><rect class="cls-3" x="389.56" y="199.06" width="0.43" height="4.19"/><rect class="cls-3" x="387.61" y="200.95" width="4.32" height="0.41"/><rect class="cls-3" x="381.2" y="204.87" width="4.9" height="4.76"/><rect class="cls-4" x="381.84" y="205.49" width="3.63" height="3.52"/><rect class="cls-3" x="383.44" y="205.18" width="0.43" height="4.19"/><rect class="cls-3" x="381.49" y="207.07" width="4.32" height="0.41"/><rect class="cls-3" x="393.43" y="204.87" width="4.9" height="4.76"/><rect class="cls-4" x="394.07" y="205.49" width="3.63" height="3.52"/><rect class="cls-3" x="395.67" y="205.18" width="0.42" height="4.19"/><rect class="cls-3" x="393.73" y="207.07" width="4.32" height="0.41"/><polygon class="cls-3" points="58.79 289.41 31 289.41 31 112.67 58.79 127.76 58.79 289.41"/><rect class="cls-3" x="57.09" y="170.91" width="27.79" height="118.5"/><rect class="cls-3" x="107.8" y="170.91" width="27.79" height="118.5"/><rect class="cls-3" x="134.91" y="196.71" width="27.79" height="92.71"/><rect class="cls-3" x="80.69" y="138.59" width="27.79" height="150.82"/><rect class="cls-3" x="33.4" y="126.33" width="6.7" height="6.51"/><rect class="cls-4" x="34.27" y="127.17" width="4.96" height="4.81"/><rect class="cls-3" x="36.46" y="126.75" width="0.58" height="5.73"/><rect class="cls-3" x="33.8" y="129.33" width="5.9" height="0.57"/><rect class="cls-3" x="33.4" y="134.69" width="6.7" height="6.51"/><rect class="cls-4" x="34.27" y="135.53" width="4.96" height="4.81"/><rect class="cls-3" x="36.46" y="135.11" width="0.58" height="5.73"/><rect class="cls-3" x="33.8" y="137.69" width="5.9" height="0.57"/><rect class="cls-3" x="41.76" y="134.69" width="6.7" height="6.51"/><rect class="cls-4" x="42.64" y="135.53" width="4.96" height="4.81"/><rect class="cls-3" x="44.82" y="135.11" width="0.58" height="5.73"/><rect class="cls-3" x="42.16" y="137.69" width="5.9" height="0.57"/><rect class="cls-3" x="50.12" y="134.69" width="6.7" height="6.51"/><rect class="cls-4" x="51" y="135.53" width="4.96" height="4.81"/><rect class="cls-3" x="53.18" y="135.11" width="0.58" height="5.73"/><rect class="cls-3" x="50.52" y="137.69" width="5.9" height="0.57"/><rect class="cls-3" x="33.4" y="143.05" width="6.7" height="6.51"/><rect class="cls-4" x="34.27" y="143.89" width="4.96" height="4.81"/><rect class="cls-3" x="36.46" y="143.47" width="0.58" height="5.73"/><rect class="cls-3" x="33.8" y="146.05" width="5.9" height="0.57"/><rect class="cls-3" x="50.12" y="143.05" width="6.7" height="6.51"/><rect class="cls-4" x="51" y="143.89" width="4.96" height="4.81"/><rect class="cls-3" x="53.18" y="143.47" width="0.58" height="5.73"/><rect class="cls-3" x="50.52" y="146.05" width="5.9" height="0.57"/><rect class="cls-3" x="41.76" y="151.41" width="6.7" height="6.51"/><rect class="cls-4" x="42.64" y="152.25" width="4.96" height="4.81"/><rect class="cls-3" x="44.82" y="151.83" width="0.58" height="5.73"/><rect class="cls-3" x="42.16" y="154.41" width="5.9" height="0.57"/><rect class="cls-3" x="50.12" y="151.41" width="6.7" height="6.51"/><rect class="cls-4" x="51" y="152.25" width="4.96" height="4.81"/><rect class="cls-3" x="53.18" y="151.83" width="0.58" height="5.73"/><rect class="cls-3" x="50.52" y="154.41" width="5.9" height="0.57"/><rect class="cls-3" x="33.4" y="159.77" width="6.7" height="6.51"/><rect class="cls-4" x="34.27" y="160.61" width="4.96" height="4.81"/><rect class="cls-3" x="36.46" y="160.19" width="0.58" height="5.73"/><rect class="cls-3" x="33.8" y="162.77" width="5.9" height="0.57"/><rect class="cls-3" x="41.76" y="159.77" width="6.7" height="6.51"/><rect class="cls-4" x="42.64" y="160.61" width="4.96" height="4.81"/><rect class="cls-3" x="44.82" y="160.19" width="0.58" height="5.73"/><rect class="cls-3" x="42.16" y="162.77" width="5.9" height="0.57"/><rect class="cls-3" x="33.4" y="168.13" width="6.7" height="6.51"/><rect class="cls-4" x="34.27" y="168.97" width="4.96" height="4.81"/><rect class="cls-3" x="36.46" y="168.55" width="0.58" height="5.73"/><rect class="cls-3" x="33.8" y="171.13" width="5.9" height="0.57"/><rect class="cls-3" x="50.12" y="168.13" width="6.7" height="6.51"/><rect class="cls-4" x="51" y="168.97" width="4.96" height="4.81"/><rect class="cls-3" x="53.18" y="168.55" width="0.58" height="5.73"/><rect class="cls-3" x="50.52" y="171.13" width="5.9" height="0.57"/><rect class="cls-3" x="45.38" y="185.45" width="6.7" height="6.51"/><rect class="cls-4" x="46.25" y="186.3" width="4.95" height="4.81"/><rect class="cls-3" x="48.44" y="185.87" width="0.58" height="5.73"/><rect class="cls-3" x="45.78" y="188.45" width="5.9" height="0.57"/><rect class="cls-3" x="45.38" y="193.81" width="6.7" height="6.51"/><rect class="cls-4" x="46.25" y="194.66" width="4.95" height="4.81"/><rect class="cls-3" x="48.44" y="194.23" width="0.58" height="5.73"/><rect class="cls-3" x="45.78" y="196.81" width="5.9" height="0.57"/><rect class="cls-3" x="53.74" y="193.81" width="6.7" height="6.51"/><rect class="cls-4" x="54.62" y="194.66" width="4.95" height="4.81"/><rect class="cls-3" x="56.8" y="194.23" width="0.58" height="5.73"/><rect class="cls-3" x="54.14" y="196.81" width="5.9" height="0.57"/><rect class="cls-3" x="62.1" y="193.81" width="6.7" height="6.51"/><rect class="cls-4" x="62.98" y="194.66" width="4.95" height="4.81"/><rect class="cls-3" x="65.16" y="194.23" width="0.58" height="5.73"/><rect class="cls-3" x="62.5" y="196.81" width="5.9" height="0.57"/><rect class="cls-3" x="45.38" y="202.17" width="6.7" height="6.51"/><rect class="cls-4" x="46.25" y="203.02" width="4.95" height="4.81"/><rect class="cls-3" x="48.44" y="202.59" width="0.58" height="5.73"/><rect class="cls-3" x="45.78" y="205.17" width="5.9" height="0.57"/><rect class="cls-3" x="62.1" y="202.17" width="6.7" height="6.51"/><rect class="cls-4" x="62.98" y="203.02" width="4.95" height="4.81"/><rect class="cls-3" x="65.16" y="202.59" width="0.58" height="5.73"/><rect class="cls-3" x="62.5" y="205.17" width="5.9" height="0.57"/><rect class="cls-3" x="53.74" y="210.53" width="6.7" height="6.51"/><rect class="cls-4" x="54.62" y="211.38" width="4.95" height="4.81"/><rect class="cls-3" x="56.8" y="210.95" width="0.58" height="5.73"/><rect class="cls-3" x="54.14" y="213.53" width="5.9" height="0.57"/><rect class="cls-3" x="62.1" y="210.53" width="6.7" height="6.51"/><rect class="cls-4" x="62.98" y="211.38" width="4.95" height="4.81"/><rect class="cls-3" x="65.16" y="210.95" width="0.58" height="5.73"/><rect class="cls-3" x="62.5" y="213.53" width="5.9" height="0.57"/><rect class="cls-3" x="45.38" y="218.89" width="6.7" height="6.51"/><rect class="cls-4" x="46.25" y="219.74" width="4.95" height="4.81"/><rect class="cls-3" x="48.44" y="219.31" width="0.58" height="5.73"/><rect class="cls-3" x="45.78" y="221.89" width="5.9" height="0.57"/><rect class="cls-3" x="53.74" y="218.89" width="6.7" height="6.51"/><rect class="cls-4" x="54.62" y="219.74" width="4.95" height="4.81"/><rect class="cls-3" x="56.8" y="219.31" width="0.58" height="5.73"/><rect class="cls-3" x="54.14" y="221.89" width="5.9" height="0.57"/><rect class="cls-3" x="45.38" y="227.25" width="6.7" height="6.51"/><rect class="cls-4" x="46.25" y="228.1" width="4.95" height="4.81"/><rect class="cls-3" x="48.44" y="227.67" width="0.58" height="5.73"/><rect class="cls-3" x="45.78" y="230.25" width="5.9" height="0.57"/><rect class="cls-3" x="62.1" y="227.25" width="6.7" height="6.51"/><rect class="cls-4" x="62.98" y="228.1" width="4.95" height="4.81"/><rect class="cls-3" x="65.16" y="227.67" width="0.58" height="5.73"/><rect class="cls-3" x="62.5" y="230.25" width="5.9" height="0.57"/><rect class="cls-3" x="78.57" y="185.45" width="6.7" height="6.51"/><rect class="cls-4" x="79.44" y="186.3" width="4.96" height="4.81"/><rect class="cls-3" x="81.63" y="185.87" width="0.58" height="5.73"/><rect class="cls-3" x="78.97" y="188.45" width="5.9" height="0.57"/><rect class="cls-3" x="78.57" y="193.81" width="6.7" height="6.51"/><rect class="cls-4" x="79.44" y="194.66" width="4.96" height="4.81"/><rect class="cls-3" x="81.63" y="194.23" width="0.58" height="5.73"/><rect class="cls-3" x="78.97" y="196.81" width="5.9" height="0.57"/><rect class="cls-3" x="86.93" y="193.81" width="6.7" height="6.51"/><rect class="cls-4" x="87.8" y="194.66" width="4.96" height="4.81"/><rect class="cls-3" x="89.99" y="194.23" width="0.58" height="5.73"/><rect class="cls-3" x="87.33" y="196.81" width="5.9" height="0.57"/><rect class="cls-3" x="95.29" y="193.81" width="6.7" height="6.51"/><rect class="cls-4" x="96.16" y="194.66" width="4.96" height="4.81"/><rect class="cls-3" x="98.35" y="194.23" width="0.58" height="5.73"/><rect class="cls-3" x="95.69" y="196.81" width="5.9" height="0.57"/><rect class="cls-3" x="78.57" y="202.17" width="6.7" height="6.51"/><rect class="cls-4" x="79.44" y="203.02" width="4.96" height="4.81"/><rect class="cls-3" x="81.63" y="202.59" width="0.58" height="5.73"/><rect class="cls-3" x="78.97" y="205.17" width="5.9" height="0.57"/><rect class="cls-3" x="95.29" y="202.17" width="6.7" height="6.51"/><rect class="cls-4" x="96.16" y="203.02" width="4.96" height="4.81"/><rect class="cls-3" x="98.35" y="202.59" width="0.58" height="5.73"/><rect class="cls-3" x="95.69" y="205.17" width="5.9" height="0.57"/><rect class="cls-3" x="86.93" y="210.53" width="6.7" height="6.51"/><rect class="cls-4" x="87.8" y="211.38" width="4.96" height="4.81"/><rect class="cls-3" x="89.99" y="210.95" width="0.58" height="5.73"/><rect class="cls-3" x="87.33" y="213.53" width="5.9" height="0.57"/><rect class="cls-3" x="95.29" y="210.53" width="6.7" height="6.51"/><rect class="cls-4" x="96.16" y="211.38" width="4.96" height="4.81"/><rect class="cls-3" x="98.35" y="210.95" width="0.58" height="5.73"/><rect class="cls-3" x="95.69" y="213.53" width="5.9" height="0.57"/><rect class="cls-3" x="78.57" y="218.89" width="6.7" height="6.51"/><rect class="cls-4" x="79.44" y="219.74" width="4.96" height="4.81"/><rect class="cls-3" x="81.63" y="219.31" width="0.58" height="5.73"/><rect class="cls-3" x="78.97" y="221.89" width="5.9" height="0.57"/><rect class="cls-3" x="86.93" y="218.89" width="6.7" height="6.51"/><rect class="cls-4" x="87.8" y="219.74" width="4.96" height="4.81"/><rect class="cls-3" x="89.99" y="219.31" width="0.58" height="5.73"/><rect class="cls-3" x="87.33" y="221.89" width="5.9" height="0.57"/><rect class="cls-3" x="78.57" y="227.25" width="6.7" height="6.51"/><rect class="cls-4" x="79.44" y="228.1" width="4.96" height="4.81"/><rect class="cls-3" x="81.63" y="227.67" width="0.58" height="5.73"/><rect class="cls-3" x="78.97" y="230.25" width="5.9" height="0.57"/><rect class="cls-3" x="95.29" y="227.25" width="6.7" height="6.51"/><rect class="cls-4" x="96.16" y="228.1" width="4.96" height="4.81"/><rect class="cls-3" x="98.35" y="227.67" width="0.58" height="5.73"/><rect class="cls-3" x="95.69" y="230.25" width="5.9" height="0.57"/><rect class="cls-3" x="86.01" y="141.27" width="4.91" height="4.76"/><rect class="cls-4" x="86.65" y="141.89" width="3.63" height="3.52"/><rect class="cls-3" x="88.25" y="141.58" width="0.43" height="4.19"/><rect class="cls-3" x="86.31" y="143.47" width="4.32" height="0.42"/><rect class="cls-3" x="86.01" y="147.39" width="4.91" height="4.76"/><rect class="cls-4" x="86.65" y="148.01" width="3.63" height="3.52"/><rect class="cls-3" x="88.25" y="147.7" width="0.43" height="4.19"/><rect class="cls-3" x="86.31" y="149.59" width="4.32" height="0.42"/><rect class="cls-3" x="92.13" y="147.39" width="4.91" height="4.76"/><rect class="cls-4" x="92.77" y="148.01" width="3.63" height="3.52"/><rect class="cls-3" x="94.37" y="147.7" width="0.43" height="4.19"/><rect class="cls-3" x="92.43" y="149.59" width="4.32" height="0.42"/><rect class="cls-3" x="98.25" y="147.39" width="4.9" height="4.76"/><rect class="cls-4" x="98.89" y="148.01" width="3.62" height="3.52"/><rect class="cls-3" x="100.49" y="147.7" width="0.43" height="4.19"/><rect class="cls-3" x="98.54" y="149.59" width="4.32" height="0.42"/><rect class="cls-3" x="86.01" y="153.51" width="4.91" height="4.76"/><rect class="cls-4" x="86.65" y="154.13" width="3.63" height="3.52"/><rect class="cls-3" x="88.25" y="153.82" width="0.43" height="4.19"/><rect class="cls-3" x="86.31" y="155.7" width="4.32" height="0.42"/><rect class="cls-3" x="98.25" y="153.51" width="4.9" height="4.76"/><rect class="cls-4" x="98.89" y="154.13" width="3.62" height="3.52"/><rect class="cls-3" x="100.49" y="153.82" width="0.43" height="4.19"/><rect class="cls-3" x="98.54" y="155.7" width="4.32" height="0.42"/><rect class="cls-3" x="92.13" y="159.62" width="4.91" height="4.76"/><rect class="cls-4" x="92.77" y="160.24" width="3.63" height="3.52"/><rect class="cls-3" x="94.37" y="159.93" width="0.43" height="4.19"/><rect class="cls-3" x="92.43" y="161.82" width="4.32" height="0.41"/><rect class="cls-3" x="98.25" y="159.62" width="4.9" height="4.76"/><rect class="cls-4" x="98.89" y="160.24" width="3.62" height="3.52"/><rect class="cls-3" x="100.49" y="159.93" width="0.43" height="4.19"/><rect class="cls-3" x="98.54" y="161.82" width="4.32" height="0.41"/><rect class="cls-3" x="86.01" y="165.74" width="4.91" height="4.76"/><rect class="cls-4" x="86.65" y="166.36" width="3.63" height="3.52"/><rect class="cls-3" x="88.25" y="166.05" width="0.43" height="4.19"/><rect class="cls-3" x="86.31" y="167.94" width="4.32" height="0.41"/><rect class="cls-3" x="92.13" y="165.74" width="4.91" height="4.76"/><rect class="cls-4" x="92.77" y="166.36" width="3.63" height="3.52"/><rect class="cls-3" x="94.37" y="166.05" width="0.43" height="4.19"/><rect class="cls-3" x="92.43" y="167.94" width="4.32" height="0.41"/><rect class="cls-3" x="86.01" y="171.86" width="4.91" height="4.76"/><rect class="cls-4" x="86.65" y="172.48" width="3.63" height="3.52"/><rect class="cls-3" x="88.25" y="172.17" width="0.43" height="4.19"/><rect class="cls-3" x="86.31" y="174.06" width="4.32" height="0.41"/><rect class="cls-3" x="98.25" y="171.86" width="4.9" height="4.76"/><rect class="cls-4" x="98.89" y="172.48" width="3.62" height="3.52"/><rect class="cls-3" x="100.49" y="172.17" width="0.43" height="4.19"/><rect class="cls-3" x="98.54" y="174.06" width="4.32" height="0.41"/><rect class="cls-3" x="113.12" y="174.28" width="4.9" height="4.76"/><rect class="cls-4" x="113.76" y="174.9" width="3.63" height="3.52"/><rect class="cls-3" x="115.36" y="174.59" width="0.43" height="4.19"/><rect class="cls-3" x="113.42" y="176.48" width="4.32" height="0.42"/><rect class="cls-3" x="113.12" y="180.4" width="4.9" height="4.76"/><rect class="cls-4" x="113.76" y="181.02" width="3.63" height="3.52"/><rect class="cls-3" x="115.36" y="180.71" width="0.43" height="4.19"/><rect class="cls-3" x="113.42" y="182.6" width="4.32" height="0.42"/><rect class="cls-3" x="119.24" y="180.4" width="4.91" height="4.76"/><rect class="cls-4" x="119.88" y="181.02" width="3.62" height="3.52"/><rect class="cls-3" x="121.48" y="180.71" width="0.43" height="4.19"/><rect class="cls-3" x="119.54" y="182.6" width="4.32" height="0.42"/><rect class="cls-3" x="125.36" y="180.4" width="4.9" height="4.76"/><rect class="cls-4" x="126" y="181.02" width="3.63" height="3.52"/><rect class="cls-3" x="127.6" y="180.71" width="0.43" height="4.19"/><rect class="cls-3" x="125.65" y="182.6" width="4.32" height="0.42"/><rect class="cls-3" x="113.12" y="186.52" width="4.9" height="4.76"/><rect class="cls-4" x="113.76" y="187.14" width="3.63" height="3.52"/><rect class="cls-3" x="115.36" y="186.83" width="0.43" height="4.19"/><rect class="cls-3" x="113.42" y="188.71" width="4.32" height="0.41"/><rect class="cls-3" x="125.36" y="186.52" width="4.9" height="4.76"/><rect class="cls-4" x="126" y="187.14" width="3.63" height="3.52"/><rect class="cls-3" x="127.6" y="186.83" width="0.43" height="4.19"/><rect class="cls-3" x="125.65" y="188.71" width="4.32" height="0.41"/><rect class="cls-3" x="119.24" y="192.63" width="4.91" height="4.76"/><rect class="cls-4" x="119.88" y="193.25" width="3.62" height="3.52"/><rect class="cls-3" x="121.48" y="192.94" width="0.43" height="4.19"/><rect class="cls-3" x="119.54" y="194.83" width="4.32" height="0.41"/><rect class="cls-3" x="125.36" y="192.63" width="4.9" height="4.76"/><rect class="cls-4" x="126" y="193.25" width="3.63" height="3.52"/><rect class="cls-3" x="127.6" y="192.94" width="0.43" height="4.19"/><rect class="cls-3" x="125.65" y="194.83" width="4.32" height="0.41"/><rect class="cls-3" x="113.12" y="198.75" width="4.9" height="4.76"/><rect class="cls-4" x="113.76" y="199.37" width="3.63" height="3.52"/><rect class="cls-3" x="115.36" y="199.06" width="0.43" height="4.19"/><rect class="cls-3" x="113.42" y="200.95" width="4.32" height="0.41"/><rect class="cls-3" x="119.24" y="198.75" width="4.91" height="4.76"/><rect class="cls-4" x="119.88" y="199.37" width="3.62" height="3.52"/><rect class="cls-3" x="121.48" y="199.06" width="0.43" height="4.19"/><rect class="cls-3" x="119.54" y="200.95" width="4.32" height="0.41"/><rect class="cls-3" x="113.12" y="204.87" width="4.9" height="4.76"/><rect class="cls-4" x="113.76" y="205.49" width="3.63" height="3.52"/><rect class="cls-3" x="115.36" y="205.18" width="0.43" height="4.19"/><rect class="cls-3" x="113.42" y="207.07" width="4.32" height="0.41"/><rect class="cls-3" x="125.36" y="204.87" width="4.9" height="4.76"/><rect class="cls-4" x="126" y="205.49" width="3.63" height="3.52"/><rect class="cls-3" x="127.6" y="205.18" width="0.43" height="4.19"/><rect class="cls-3" x="125.65" y="207.07" width="4.32" height="0.41"/><rect class="cls-3" x="143.58" y="199.01" width="4" height="3.88"/><rect class="cls-4" x="144.1" y="199.51" width="2.95" height="2.87"/><rect class="cls-3" x="145.4" y="199.26" width="0.35" height="3.41"/><rect class="cls-3" x="143.82" y="200.8" width="3.52" height="0.34"/><rect class="cls-3" x="143.58" y="203.99" width="4" height="3.88"/><rect class="cls-4" x="144.1" y="204.5" width="2.95" height="2.87"/><rect class="cls-3" x="145.4" y="204.24" width="0.35" height="3.42"/><rect class="cls-3" x="143.82" y="205.78" width="3.52" height="0.34"/><rect class="cls-3" x="148.56" y="203.99" width="4" height="3.88"/><rect class="cls-4" x="149.08" y="204.5" width="2.96" height="2.87"/><rect class="cls-3" x="150.39" y="204.24" width="0.35" height="3.42"/><rect class="cls-3" x="148.8" y="205.78" width="3.52" height="0.34"/><rect class="cls-3" x="153.55" y="203.99" width="3.99" height="3.88"/><rect class="cls-4" x="154.07" y="204.5" width="2.95" height="2.87"/><rect class="cls-3" x="155.37" y="204.24" width="0.35" height="3.42"/><rect class="cls-3" x="153.78" y="205.78" width="3.52" height="0.34"/><rect class="cls-3" x="143.58" y="208.97" width="4" height="3.88"/><rect class="cls-4" x="144.1" y="209.48" width="2.95" height="2.87"/><rect class="cls-3" x="145.4" y="209.23" width="0.35" height="3.41"/><rect class="cls-3" x="143.82" y="210.76" width="3.52" height="0.34"/><rect class="cls-3" x="153.55" y="208.97" width="3.99" height="3.88"/><rect class="cls-4" x="154.07" y="209.48" width="2.95" height="2.87"/><rect class="cls-3" x="155.37" y="209.23" width="0.35" height="3.41"/><rect class="cls-3" x="153.78" y="210.76" width="3.52" height="0.34"/><rect class="cls-3" x="148.56" y="213.96" width="4" height="3.88"/><rect class="cls-4" x="149.08" y="214.46" width="2.96" height="2.87"/><rect class="cls-3" x="150.39" y="214.21" width="0.35" height="3.42"/><rect class="cls-3" x="148.8" y="215.75" width="3.52" height="0.34"/><rect class="cls-3" x="153.55" y="213.96" width="3.99" height="3.88"/><rect class="cls-4" x="154.07" y="214.46" width="2.95" height="2.87"/><rect class="cls-3" x="155.37" y="214.21" width="0.35" height="3.42"/><rect class="cls-3" x="153.78" y="215.75" width="3.52" height="0.34"/><rect class="cls-3" x="143.58" y="218.94" width="4" height="3.88"/><rect class="cls-4" x="144.1" y="219.45" width="2.95" height="2.87"/><rect class="cls-3" x="145.4" y="219.19" width="0.35" height="3.42"/><rect class="cls-3" x="143.82" y="220.73" width="3.52" height="0.34"/><rect class="cls-3" x="148.56" y="218.94" width="4" height="3.88"/><rect class="cls-4" x="149.08" y="219.45" width="2.96" height="2.87"/><rect class="cls-3" x="150.39" y="219.19" width="0.35" height="3.42"/><rect class="cls-3" x="148.8" y="220.73" width="3.52" height="0.34"/><rect class="cls-3" x="143.58" y="223.92" width="4" height="3.88"/><rect class="cls-4" x="144.1" y="224.43" width="2.95" height="2.87"/><rect class="cls-3" x="145.4" y="224.17" width="0.35" height="3.42"/><rect class="cls-3" x="143.82" y="225.71" width="3.52" height="0.34"/><rect class="cls-3" x="153.55" y="223.92" width="3.99" height="3.88"/><rect class="cls-4" x="154.07" y="224.43" width="2.95" height="2.87"/><rect class="cls-3" x="155.37" y="224.17" width="0.35" height="3.42"/><rect class="cls-3" x="153.78" y="225.71" width="3.52" height="0.34"/><line class="cls-5" x1="137.12" y1="185.32" x2="215.7" y2="212.73"/><line class="cls-5" x1="215.7" y1="212.73" x2="218.54" y2="249.49"/><line class="cls-5" x1="137.69" y1="185.52" x2="210.96" y2="241.73"/><line class="cls-5" x1="157.6" y1="218.75" x2="209.85" y2="242.07"/><line class="cls-5" x1="159.1" y1="225.12" x2="209.85" y2="242.07"/><line class="cls-5" x1="130.5" y1="238.43" x2="130.5" y2="186.7"/><line class="cls-5" x1="134.84" y1="238.43" x2="134.84" y2="186.53"/><path class="cls-6" d="M135.21,291.42V290.1h-.78v2.25s1.89-.32,1.89,1.17a1.17,1.17,0,0,1-2.32.24s0-.35-.48-.35-.46.35-.46.35a2.1,2.1,0,1,0,2.15-2.34Z" transform="translate(-2.49 -41.64)"/><rect class="cls-7" x="131.45" y="245.99" width="1.63" height="2.98"/><rect class="cls-8" x="131.45" y="245.99" width="0.82" height="2.98"/><polygon class="cls-9" points="136.05 239.5 129.05 239.5 129.05 242.9 129.05 242.9 129.05 242.9 130.66 246.68 134.37 246.68 136.05 242.9 136.05 242.9 136.05 242.9 136.05 239.5"/><polygon class="cls-10" points="135.57 239.5 129.52 239.5 129.52 242.73 129.52 242.73 129.52 242.73 130.91 246.31 134.13 246.31 135.57 242.73 135.57 242.73 135.57 242.73 135.57 239.5"/><polygon class="cls-11" points="133.4 246.31 134.13 246.31 134.45 245.5 133.4 246.31"/><polygon class="cls-11" points="135.57 239.5 133.37 239.5 129.52 242.44 129.52 242.73 129.52 242.73 129.52 242.73 130.02 244 135.57 239.75 135.57 239.5"/><polygon class="cls-11" points="129.52 239.5 129.52 240.74 131.15 239.5 129.52 239.5"/><polygon class="cls-11" points="135.57 242.73 135.57 242.73 135.57 242.73 135.57 241.45 130.53 245.31 130.91 246.31 131.18 246.31 135.45 243.03 135.57 242.73"/><polygon class="cls-12" points="135.45 243.03 131.18 246.31 133.4 246.31 134.45 245.5 135.45 243.03"/><polygon class="cls-12" points="135.57 239.75 130.02 244 130.53 245.31 135.57 241.45 135.57 239.75"/><polygon class="cls-12" points="131.15 239.5 129.52 240.74 129.52 242.44 133.37 239.5 131.15 239.5"/><path class="cls-13" d="M136,282.93A.93.93,0,1,1,135,282,.93.93,0,0,1,136,282.93Z" transform="translate(-2.49 -41.64)"/><path class="cls-7" d="M135.29,283.29a.44.44,0,1,1,.11-.62A.45.45,0,0,1,135.29,283.29Z" transform="translate(-2.49 -41.64)"/><path class="cls-8" d="M134.68,283.19a.44.44,0,1,1,.72-.52Z" transform="translate(-2.49 -41.64)"/><rect class="cls-7" x="129.05" y="238.01" width="6.99" height="1.63"/><rect class="cls-8" x="129.05" y="239.23" width="6.99" height="0.41"/><path class="cls-14" d="M138.34,279.94a.13.13,0,0,1-.13.13h-6.43a.13.13,0,0,1-.13-.13h0a.12.12,0,0,1,.13-.12h6.43a.12.12,0,0,1,.13.12Z" transform="translate(-2.49 -41.64)"/><path class="cls-12" d="M131.24,225.63a1.84,1.84,0,0,0,.53,2.55,2.79,2.79,0,0,0,.34.18h0l5.22,2.82.89-7.6-5.84,1.27h0A1.85,1.85,0,0,0,131.24,225.63Z" transform="translate(-2.49 -41.64)"/><line class="cls-15" x1="157.34" y1="254" x2="165.91" y2="257.54"/><line class="cls-15" x1="162.91" y1="237.33" x2="157.34" y2="254"/><line class="cls-15" x1="147.71" y1="233.18" x2="162.91" y2="237.33"/><line class="cls-15" x1="153.1" y1="217.19" x2="147.44" y2="232.18"/><line class="cls-15" x1="141.79" y1="208.3" x2="153.1" y2="217.19"/><line class="cls-15" x1="141.79" y1="206.99" x2="143.96" y2="194.83"/><line class="cls-15" x1="138.94" y1="196.07" x2="140.94" y2="189.54"/><line class="cls-15" x1="136.68" y1="191.28" x2="143.67" y2="194.16"/><polyline class="cls-15" points="135.46 186.63 150.67 244.44 161.34 262.59"/><polyline class="cls-15" points="139.81 185.52 163.5 238.66 167.03 259.03"/><line class="cls-16" x1="209.85" y1="248.53" x2="215.7" y2="212.73"/><path class="cls-17" d="M207.1,288.94a5.24,5.24,0,1,0,5.24-5.23A5.25,5.25,0,0,0,207.1,288.94Z" transform="translate(-2.49 -41.64)"/><rect class="cls-18" x="170.79" y="274.71" width="39.73" height="2.67"/><path class="cls-19" d="M227,326.39a7.37,7.37,0,0,1-7.37,7.36h-53a7.37,7.37,0,0,1-7.37-7.36h0a7.36,7.36,0,0,1,7.37-7.36h53a7.36,7.36,0,0,1,7.37,7.36Z" transform="translate(-2.49 -41.64)"/><polygon class="cls-19" points="223.88 285.29 223.91 284.75 225.09 284.75 225.06 285.38 223.88 285.29"/><path class="cls-19" d="M226.17,328.08s0-.13.07-.27a1.39,1.39,0,0,0,0-.27l1.17.21a2.67,2.67,0,0,1-.06.31l-.08.31Z" transform="translate(-2.49 -41.64)"/><path class="cls-19" d="M226,328.6s0-.13.09-.26l.06-.26,1.15.29-.08.31a2.24,2.24,0,0,1-.1.3Z" transform="translate(-2.49 -41.64)"/><polygon class="cls-19" points="223.06 288.02 223.31 287.53 224.38 288.02 224.1 288.59 223.06 288.02"/><polygon class="cls-19" points="222.78 288.48 223.06 288.02 224.1 288.59 223.77 289.14 222.78 288.48"/><path class="cls-19" d="M224.54,331s.38-.4.37-.41l.92.74s-.42.48-.42.48Z" transform="translate(-2.49 -41.64)"/><path class="cls-19" d="M224.15,331.41s.4-.37.39-.38l.87.81s-.46.45-.46.45Z" transform="translate(-2.49 -41.64)"/><path class="cls-19" d="M223.23,332.11a1.86,1.86,0,0,0,.23-.14l.22-.17.71.95-.26.19a1.89,1.89,0,0,1-.27.17Z" transform="translate(-2.49 -41.64)"/><path class="cls-19" d="M222.76,332.39s.47-.28.47-.28l.63,1s-.54.34-.55.33Z" transform="translate(-2.49 -41.64)"/><polygon class="cls-19" points="219.2 291.19 219.71 291.01 220.16 292.1 219.56 292.32 219.2 291.19"/><path class="cls-19" d="M221.17,333s.52-.13.52-.14l.36,1.12-.31.09-.31.08Z" transform="translate(-2.49 -41.64)"/><path class="cls-19" d="M220,333.14a4.93,4.93,0,0,0,.54-.05l.16,1.17-.31,0-.33,0Z" transform="translate(-2.49 -41.64)"/><path class="cls-19" d="M219.46,333.16s.56,0,.56,0l.06,1.18-.62,0Z" transform="translate(-2.49 -41.64)"/><rect class="cls-19" x="215.71" y="291.52" width="0.59" height="1.18"/><rect class="cls-19" x="215.12" y="291.52" width="0.59" height="1.18"/><rect class="cls-19" x="213.85" y="291.52" width="0.59" height="1.18"/><rect class="cls-19" x="213.26" y="291.52" width="0.59" height="1.18"/><rect class="cls-19" x="212" y="291.52" width="0.59" height="1.18"/><rect class="cls-19" x="211.4" y="291.52" width="0.59" height="1.18"/><rect class="cls-19" x="210.14" y="291.52" width="0.59" height="1.18"/><rect class="cls-19" x="209.55" y="291.52" width="0.59" height="1.18"/><rect class="cls-19" x="208.28" y="291.52" width="0.59" height="1.18"/><rect class="cls-19" x="207.69" y="291.52" width="0.59" height="1.18"/><rect class="cls-19" x="206.43" y="291.52" width="0.59" height="1.18"/><rect class="cls-19" x="205.83" y="291.52" width="0.59" height="1.18"/><rect class="cls-19" x="204.57" y="291.52" width="0.59" height="1.18"/><rect class="cls-19" x="203.98" y="291.52" width="0.59" height="1.18"/><rect class="cls-19" x="202.72" y="291.52" width="0.59" height="1.18"/><rect class="cls-19" x="202.12" y="291.52" width="0.59" height="1.18"/><rect class="cls-19" x="200.86" y="291.52" width="0.59" height="1.18"/><rect class="cls-19" x="200.27" y="291.52" width="0.59" height="1.18"/><rect class="cls-19" x="199" y="291.52" width="0.59" height="1.18"/><rect class="cls-19" x="198.41" y="291.52" width="0.59" height="1.18"/><rect class="cls-19" x="197.15" y="291.52" width="0.59" height="1.18"/><rect class="cls-19" x="196.56" y="291.52" width="0.59" height="1.18"/><rect class="cls-19" x="195.29" y="291.52" width="0.59" height="1.18"/><rect class="cls-19" x="194.7" y="291.52" width="0.59" height="1.18"/><rect class="cls-19" x="193.44" y="291.52" width="0.59" height="1.18"/><rect class="cls-19" x="192.84" y="291.52" width="0.59" height="1.18"/><rect class="cls-19" x="191.58" y="291.52" width="0.59" height="1.18"/><rect class="cls-19" x="190.99" y="291.52" width="0.59" height="1.18"/><rect class="cls-19" x="189.72" y="291.52" width="0.59" height="1.18"/><rect class="cls-19" x="189.13" y="291.52" width="0.59" height="1.18"/><rect class="cls-19" x="187.87" y="291.52" width="0.59" height="1.18"/><rect class="cls-19" x="187.28" y="291.52" width="0.59" height="1.18"/><rect class="cls-19" x="186.01" y="291.52" width="0.59" height="1.18"/><rect class="cls-19" x="185.42" y="291.52" width="0.59" height="1.18"/><rect class="cls-19" x="184.16" y="291.52" width="0.59" height="1.18"/><rect class="cls-19" x="183.56" y="291.52" width="0.59" height="1.18"/><rect class="cls-19" x="182.3" y="291.52" width="0.59" height="1.18"/><rect class="cls-19" x="181.71" y="291.52" width="0.59" height="1.18"/><rect class="cls-19" x="180.44" y="291.52" width="0.59" height="1.18"/><rect class="cls-19" x="179.85" y="291.52" width="0.59" height="1.18"/><rect class="cls-19" x="178.59" y="291.52" width="0.59" height="1.18"/><rect class="cls-19" x="178" y="291.52" width="0.59" height="1.18"/><rect class="cls-19" x="176.73" y="291.52" width="0.59" height="1.18"/><rect class="cls-19" x="176.14" y="291.52" width="0.59" height="1.18"/><rect class="cls-19" x="174.88" y="291.52" width="0.59" height="1.18"/><rect class="cls-19" x="174.28" y="291.52" width="0.59" height="1.18"/><rect class="cls-19" x="173.02" y="291.52" width="0.59" height="1.18"/><rect class="cls-19" x="172.43" y="291.52" width="0.59" height="1.18"/><rect class="cls-19" x="171.17" y="291.52" width="0.59" height="1.18"/><rect class="cls-19" x="170.57" y="291.52" width="0.59" height="1.18"/><rect class="cls-19" x="169.31" y="291.52" width="0.59" height="1.18"/><rect class="cls-19" x="168.72" y="291.52" width="0.59" height="1.18"/><rect class="cls-19" x="167.45" y="291.52" width="0.59" height="1.18"/><rect class="cls-19" x="166.86" y="291.52" width="0.59" height="1.18"/><rect class="cls-19" x="165.6" y="291.52" width="0.59" height="1.18"/><rect class="cls-19" x="165" y="291.52" width="0.59" height="1.18"/><path class="cls-19" d="M166.26,333.14s.55,0,.56,0v1.18l-.62,0Z" transform="translate(-2.49 -41.64)"/><path class="cls-19" d="M165.72,333.09a4.93,4.93,0,0,0,.54.05l-.06,1.18-.32,0-.32,0Z" transform="translate(-2.49 -41.64)"/><path class="cls-19" d="M164.59,332.84s.53.14.53.14l-.27,1.15-.31-.08-.31-.09Z" transform="translate(-2.49 -41.64)"/><polygon class="cls-19" points="161.59 291.01 162.1 291.19 161.74 292.32 161.14 292.1 161.59 291.01"/><path class="cls-19" d="M163.05,332.11s.46.29.47.28l-.55,1.05s-.55-.33-.55-.33Z" transform="translate(-2.49 -41.64)"/><path class="cls-19" d="M162.6,331.8l.22.17a1.86,1.86,0,0,0,.23.14l-.63,1a1.89,1.89,0,0,1-.27-.17l-.26-.19Z" transform="translate(-2.49 -41.64)"/><path class="cls-19" d="M161.74,331s.39.38.39.38l-.8.88s-.46-.43-.45-.45Z" transform="translate(-2.49 -41.64)"/><path class="cls-19" d="M161.38,330.62a4.59,4.59,0,0,0,.36.41l-.86.81s-.44-.46-.43-.48Z" transform="translate(-2.49 -41.64)"/><polygon class="cls-19" points="158.24 288.02 158.52 288.48 157.54 289.14 157.21 288.59 158.24 288.02"/><polygon class="cls-19" points="158 287.53 158.24 288.02 157.21 288.59 156.92 288.02 158 287.53"/><path class="cls-19" d="M160.11,328.08l.06.26c0,.13.09.26.09.26l-1.12.38a2.24,2.24,0,0,1-.1-.3l-.08-.31Z" transform="translate(-2.49 -41.64)"/><path class="cls-19" d="M160,327.55a1.36,1.36,0,0,0,0,.26c0,.14.07.27.07.27l-1.15.29-.08-.31a1.82,1.82,0,0,1,0-.31Z" transform="translate(-2.49 -41.64)"/><polygon class="cls-19" points="157.4 284.75 157.43 285.29 156.25 285.39 156.21 284.75 157.4 284.75"/><polygon class="cls-19" points="157.43 284.2 157.4 284.75 156.21 284.75 156.25 284.11 157.43 284.2"/><path class="cls-19" d="M160.11,324.7,160,325a1.54,1.54,0,0,0,0,.27l-1.16-.2a1.82,1.82,0,0,1,0-.31l.08-.31Z" transform="translate(-2.49 -41.64)"/><path class="cls-19" d="M160.26,324.18s0,.13-.09.26l-.06.26-1.15-.29.08-.31a2.74,2.74,0,0,1,.1-.31Z" transform="translate(-2.49 -41.64)"/><polygon class="cls-19" points="158.24 281.48 158 281.96 156.92 281.48 157.21 280.9 158.24 281.48"/><polygon class="cls-19" points="158.52 281.01 158.24 281.48 157.21 280.9 157.54 280.36 158.52 281.01"/><path class="cls-19" d="M161.74,321.75a3.52,3.52,0,0,0-.36.41l-.93-.74s.43-.48.43-.48Z" transform="translate(-2.49 -41.64)"/><path class="cls-19" d="M162.13,321.37s-.4.37-.39.38l-.86-.81s.45-.45.45-.45Z" transform="translate(-2.49 -41.64)"/><path class="cls-19" d="M163.05,320.67a1.86,1.86,0,0,0-.23.14l-.22.16-.71-.94.26-.19a1.89,1.89,0,0,1,.27-.17Z" transform="translate(-2.49 -41.64)"/><path class="cls-19" d="M163.52,320.39s-.47.28-.47.28l-.63-1s.54-.34.55-.33Z" transform="translate(-2.49 -41.64)"/><polygon class="cls-19" points="162.1 278.3 161.59 278.49 161.14 277.39 161.74 277.17 162.1 278.3"/><path class="cls-19" d="M165.12,319.8l-.53.14-.36-1.13.31-.08.31-.08Z" transform="translate(-2.49 -41.64)"/><path class="cls-19" d="M166.26,319.64a3.29,3.29,0,0,0-.54.05l-.16-1.17.32,0h.32Z" transform="translate(-2.49 -41.64)"/><path class="cls-19" d="M166.82,319.62s-.56,0-.56,0l-.06-1.18.62,0Z" transform="translate(-2.49 -41.64)"/><rect class="cls-19" x="165" y="276.79" width="0.59" height="1.18"/><rect class="cls-19" x="165.6" y="276.79" width="0.59" height="1.18"/><rect class="cls-19" x="166.86" y="276.79" width="0.59" height="1.18"/><rect class="cls-19" x="167.45" y="276.79" width="0.59" height="1.18"/><rect class="cls-19" x="168.72" y="276.79" width="0.59" height="1.18"/><rect class="cls-19" x="169.31" y="276.79" width="0.59" height="1.18"/><rect class="cls-19" x="170.57" y="276.79" width="0.59" height="1.18"/><rect class="cls-19" x="171.17" y="276.79" width="0.59" height="1.18"/><rect class="cls-19" x="172.43" y="276.79" width="0.59" height="1.18"/><rect class="cls-19" x="173.02" y="276.79" width="0.59" height="1.18"/><rect class="cls-19" x="174.28" y="276.79" width="0.59" height="1.18"/><rect class="cls-19" x="174.88" y="276.79" width="0.59" height="1.18"/><rect class="cls-19" x="176.14" y="276.79" width="0.59" height="1.18"/><rect class="cls-19" x="176.73" y="276.79" width="0.59" height="1.18"/><rect class="cls-19" x="178" y="276.79" width="0.59" height="1.18"/><rect class="cls-19" x="178.59" y="276.79" width="0.59" height="1.18"/><rect class="cls-19" x="179.85" y="276.79" width="0.59" height="1.18"/><rect class="cls-19" x="180.44" y="276.79" width="0.59" height="1.18"/><rect class="cls-19" x="181.71" y="276.79" width="0.59" height="1.18"/><rect class="cls-19" x="182.3" y="276.79" width="0.59" height="1.18"/><rect class="cls-19" x="183.56" y="276.79" width="0.59" height="1.18"/><rect class="cls-19" x="184.16" y="276.79" width="0.59" height="1.18"/><rect class="cls-19" x="185.42" y="276.79" width="0.59" height="1.18"/><rect class="cls-19" x="186.01" y="276.79" width="0.59" height="1.18"/><rect class="cls-19" x="187.28" y="276.79" width="0.59" height="1.18"/><rect class="cls-19" x="187.87" y="276.79" width="0.59" height="1.18"/><rect class="cls-19" x="189.13" y="276.79" width="0.59" height="1.18"/><rect class="cls-19" x="189.72" y="276.79" width="0.59" height="1.18"/><rect class="cls-19" x="190.99" y="276.79" width="0.59" height="1.18"/><rect class="cls-19" x="191.58" y="276.79" width="0.59" height="1.18"/><rect class="cls-19" x="192.84" y="276.79" width="0.59" height="1.18"/><rect class="cls-19" x="193.44" y="276.79" width="0.59" height="1.18"/><rect class="cls-19" x="194.7" y="276.79" width="0.59" height="1.18"/><rect class="cls-19" x="195.29" y="276.79" width="0.59" height="1.18"/><rect class="cls-19" x="196.56" y="276.79" width="0.59" height="1.18"/><rect class="cls-19" x="197.15" y="276.79" width="0.59" height="1.18"/><rect class="cls-19" x="198.41" y="276.79" width="0.59" height="1.18"/><rect class="cls-19" x="199" y="276.79" width="0.59" height="1.18"/><rect class="cls-19" x="200.27" y="276.79" width="0.59" height="1.18"/><rect class="cls-19" x="200.86" y="276.79" width="0.59" height="1.18"/><rect class="cls-19" x="202.12" y="276.79" width="0.59" height="1.18"/><rect class="cls-19" x="202.72" y="276.79" width="0.59" height="1.18"/><rect class="cls-19" x="203.98" y="276.79" width="0.59" height="1.18"/><rect class="cls-19" x="204.57" y="276.79" width="0.59" height="1.18"/><rect class="cls-19" x="205.83" y="276.79" width="0.59" height="1.18"/><rect class="cls-19" x="206.43" y="276.79" width="0.59" height="1.18"/><rect class="cls-19" x="207.69" y="276.79" width="0.59" height="1.18"/><rect class="cls-19" x="208.28" y="276.79" width="0.59" height="1.18"/><rect class="cls-19" x="209.55" y="276.79" width="0.59" height="1.18"/><rect class="cls-19" x="210.14" y="276.79" width="0.59" height="1.18"/><rect class="cls-19" x="211.4" y="276.79" width="0.59" height="1.18"/><rect class="cls-19" x="212" y="276.79" width="0.59" height="1.18"/><rect class="cls-19" x="213.26" y="276.79" width="0.59" height="1.18"/><rect class="cls-19" x="213.85" y="276.79" width="0.59" height="1.18"/><rect class="cls-19" x="215.11" y="276.79" width="0.59" height="1.18"/><rect class="cls-19" x="215.71" y="276.79" width="0.59" height="1.18"/><path class="cls-19" d="M220,319.64s-.55,0-.56,0v-1.19l.62,0Z" transform="translate(-2.49 -41.64)"/><path class="cls-19" d="M220.56,319.69a3.29,3.29,0,0,0-.54-.05l.06-1.18h.32l.32,0Z" transform="translate(-2.49 -41.64)"/><path class="cls-19" d="M221.69,319.94l-.52-.14.26-1.15.31.08.31.08Z" transform="translate(-2.49 -41.64)"/><polygon class="cls-19" points="219.71 278.49 219.2 278.3 219.56 277.17 220.16 277.39 219.71 278.49"/><path class="cls-19" d="M223.23,320.66s-.46-.28-.47-.27l.55-1.05s.55.33.55.33Z" transform="translate(-2.49 -41.64)"/><path class="cls-19" d="M223.68,321l-.22-.16-.23-.15.63-1a1.89,1.89,0,0,1,.27.17l.26.19Z" transform="translate(-2.49 -41.64)"/><path class="cls-19" d="M224.54,321.75s-.39-.38-.39-.38l.8-.88a6.25,6.25,0,0,1,.45.44Z" transform="translate(-2.49 -41.64)"/><path class="cls-19" d="M224.9,322.16a3.52,3.52,0,0,0-.36-.41l.86-.82s.44.47.43.49Z" transform="translate(-2.49 -41.64)"/><polygon class="cls-19" points="223.06 281.48 222.78 281.01 223.77 280.36 224.1 280.9 223.06 281.48"/><polygon class="cls-19" points="223.31 281.96 223.06 281.48 224.1 280.9 224.38 281.48 223.31 281.96"/><path class="cls-19" d="M226.17,324.7l-.06-.26a2.66,2.66,0,0,0-.09-.26l1.12-.39a2.74,2.74,0,0,1,.1.31l.08.31Z" transform="translate(-2.49 -41.64)"/><path class="cls-19" d="M226.29,325.23a1.54,1.54,0,0,0,0-.27c0-.13-.07-.26-.07-.26l1.15-.29.08.31a2.67,2.67,0,0,1,.06.31Z" transform="translate(-2.49 -41.64)"/><polygon class="cls-19" points="223.91 284.75 223.88 284.2 225.06 284.11 225.09 284.75 223.91 284.75"/><path class="cls-20" d="M224.79,326.39c0,3.13-3,5.66-6.76,5.66H168.25c-3.73,0-6.76-2.53-6.76-5.66h0c0-3.13,3-5.66,6.76-5.66H218c3.73,0,6.76,2.53,6.76,5.66Z" transform="translate(-2.49 -41.64)"/><path class="cls-21" d="M161.5,326.68c.19,3,3.13,5.37,6.75,5.37H218c3.62,0,6.56-2.38,6.74-5.37Z" transform="translate(-2.49 -41.64)"/><rect class="cls-22" x="195.77" y="231.2" width="3.05" height="14.91"/><rect class="cls-23" x="194.9" y="233.18" width="4.78" height="1.97"/><rect class="cls-23" x="201.89" y="237.33" width="2.87" height="9.48"/><polygon class="cls-24" points="221.05 274.71 158.82 274.71 158.82 261.36 196.33 261.36 192.26 240.36 221.05 247.52 221.05 274.71"/><polygon class="cls-25" points="193.11 258.29 166.17 258.29 158.82 261.47 196.33 261.47 192.26 240.36 190.68 240.36 193.11 258.29"/><polygon class="cls-24" points="193.11 258.29 165.66 258.4 171.26 238.66 190.44 238.66 193.11 258.29"/><polygon class="cls-26" points="189.68 255.85 169.1 255.93 173.29 241.12 187.68 241.12 189.68 255.85"/><path class="cls-27" d="M186.87,295.74c-4.58-.95-10.85-6-11.63-11.05l-3.66,12.88,20.59-.08-.19-1.38A21,21,0,0,1,186.87,295.74Z" transform="translate(-2.49 -41.64)"/><path class="cls-25" d="M219.83,300.24a.73.73,0,0,1-.73.73h-6.19a.73.73,0,0,1-.73-.73h0a.73.73,0,0,1,.73-.73h6.19a.73.73,0,0,1,.73.73Z" transform="translate(-2.49 -41.64)"/><path class="cls-25" d="M219.83,297.57a.74.74,0,0,1-.73.74h-6.19a.74.74,0,0,1-.73-.74h0a.73.73,0,0,1,.73-.73h6.19a.73.73,0,0,1,.73.73Z" transform="translate(-2.49 -41.64)"/><path class="cls-25" d="M219.83,294.91a.73.73,0,0,1-.73.73h-6.19a.73.73,0,0,1-.73-.73h0a.73.73,0,0,1,.73-.73h6.19a.73.73,0,0,1,.73.73Z" transform="translate(-2.49 -41.64)"/><polygon class="cls-24" points="223.39 267.32 211.3 262.59 211.3 274.71 223.39 274.71 223.39 267.32"/><path class="cls-28" d="M224.79,326.39a5.66,5.66,0,1,1-5.66-5.66A5.65,5.65,0,0,1,224.79,326.39Z" transform="translate(-2.49 -41.64)"/><path class="cls-23" d="M222.7,326.39a3.57,3.57,0,1,1-3.57-3.57A3.56,3.56,0,0,1,222.7,326.39Z" transform="translate(-2.49 -41.64)"/><path class="cls-22" d="M221.94,326.39a2.81,2.81,0,1,1-2.81-2.81A2.81,2.81,0,0,1,221.94,326.39Z" transform="translate(-2.49 -41.64)"/><path class="cls-28" d="M172.3,326.39a5.66,5.66,0,1,1-5.66-5.66A5.65,5.65,0,0,1,172.3,326.39Z" transform="translate(-2.49 -41.64)"/><path class="cls-23" d="M170.21,326.39a3.57,3.57,0,1,1-3.57-3.57A3.56,3.56,0,0,1,170.21,326.39Z" transform="translate(-2.49 -41.64)"/><path class="cls-22" d="M169.45,326.39a2.81,2.81,0,1,1-2.81-2.81A2.81,2.81,0,0,1,169.45,326.39Z" transform="translate(-2.49 -41.64)"/><rect class="cls-12" x="157.34" y="272.32" width="66.63" height="2.39"/><path class="cls-17" d="M221,254.37a2.84,2.84,0,1,1-2.84-2.84A2.84,2.84,0,0,1,221,254.37Z" transform="translate(-2.49 -41.64)"/><path class="cls-24" d="M138.22,223.58a3.9,3.9,0,0,0-2.13,5.08l1.94,4.73,7.21-2.94-1.94-4.74A3.9,3.9,0,0,0,138.22,223.58Z" transform="translate(-2.49 -41.64)"/><path class="cls-25" d="M141.86,226a2.44,2.44,0,1,1-3.18-1.33A2.43,2.43,0,0,1,141.86,226Z" transform="translate(-2.49 -41.64)"/><path class="cls-29" d="M141.3,226.27a1.83,1.83,0,1,1-2.39-1A1.83,1.83,0,0,1,141.3,226.27Z" transform="translate(-2.49 -41.64)"/><line class="cls-15" x1="137.92" y1="197.31" x2="143.96" y2="194.83"/><line class="cls-15" x1="140.94" y1="208.66" x2="148.64" y2="205.32"/><line class="cls-15" x1="144.79" y1="221" x2="153.93" y2="217.19"/><line class="cls-15" x1="147.71" y1="233.18" x2="158.49" y2="227.42"/><line class="cls-15" x1="150.67" y1="244.44" x2="162.97" y2="238.66"/><line class="cls-15" x1="156.81" y1="254.87" x2="165.53" y2="250.35"/><path class="cls-30" d="M161.59,261.89a1.5,1.5,0,1,1-1.5-1.5A1.5,1.5,0,0,1,161.59,261.89Z" transform="translate(-2.49 -41.64)"/><line class="cls-15" x1="157.6" y1="221.75" x2="160.12" y2="227.42"/><path class="cls-12" d="M155.38,243.43a1.84,1.84,0,0,0-1.84-1.85,1.58,1.58,0,0,0-.38,0h0l-3.77,0,3.37,7,2.11-3.92h0A1.83,1.83,0,0,0,155.38,243.43Z" transform="translate(-2.49 -41.64)"/><polygon class="cls-31" points="9.18 238.19 16.83 240.4 7.14 266.74 3.06 266.65 9.18 238.19"/><rect class="cls-32" x="48.58" y="269.4" width="6.8" height="9.49"/><polygon class="cls-12" points="158.44 272.04 151.82 272.04 151.82 276.04 152.71 278.89 158.44 272.04"/><polygon class="cls-12" points="158.44 272.04 151.82 272.04 148.88 268.87 147.55 264.42 169.7 267.1 173.1 266.04 170.81 270.24 158.44 272.04"/><rect class="cls-22" x="59.51" y="253.02" width="3.15" height="15.4"/><rect class="cls-23" x="58.62" y="255.06" width="4.94" height="2.04"/><polygon class="cls-24" points="54.4 285.97 121.35 285.97 121.35 269.55 104.54 264.01 65.79 264.01 54.4 268.81 54.4 285.97"/><polygon class="cls-25" points="69.11 260.72 96.94 260.72 104.54 264.01 65.79 264.01 69.11 260.72"/><polygon class="cls-25" points="121.35 269.55 138.69 279.15 151.82 276.3 152.71 279.15 139.31 283.06 121.35 279.15 121.35 269.55"/><polygon class="cls-24" points="69.11 260.72 97.47 260.83 91.68 240.44 73.68 240.44 69.11 260.72"/><polygon class="cls-26" points="72.65 258.2 93.92 258.28 89.59 242.99 75.99 242.99 72.65 258.2"/><path class="cls-27" d="M80.62,298c4.73-1,11.21-6.17,12-11.42l3.77,13.31-21.27-.09.19-1.43A22,22,0,0,0,80.62,298Z" transform="translate(-2.49 -41.64)"/><path class="cls-25" d="M90.36,312.61a.69.69,0,0,0,.76.59h6.39a.69.69,0,0,0,.76-.59h0a.7.7,0,0,0-.76-.6H91.12a.7.7,0,0,0-.76.6Z" transform="translate(-2.49 -41.64)"/><path class="cls-25" d="M90.36,310.45a.69.69,0,0,0,.76.59h6.39a.69.69,0,0,0,.76-.59h0a.7.7,0,0,0-.76-.6H91.12a.7.7,0,0,0-.76.6Z" transform="translate(-2.49 -41.64)"/><path class="cls-25" d="M90.36,308.29a.69.69,0,0,0,.76.59h6.39a.69.69,0,0,0,.76-.59h0a.7.7,0,0,0-.76-.6H91.12a.7.7,0,0,0-.76.6Z" transform="translate(-2.49 -41.64)"/><polygon class="cls-24" points="51.98 280.28 64.47 276.64 64.47 285.97 51.98 285.97 51.98 280.28"/><polygon class="cls-24" points="123.89 281.44 120.59 278.54 120.59 285.97 123.89 285.97 123.89 281.44"/><path class="cls-25" d="M84.8,327.62a12.53,12.53,0,1,0-23.7-5.7,12.55,12.55,0,0,0,1.37,5.7" transform="translate(-2.49 -41.64)"/><path class="cls-12" d="M62.17,321.92a11.47,11.47,0,1,0,11.47-11.47A11.46,11.46,0,0,0,62.17,321.92Z" transform="translate(-2.49 -41.64)"/><path class="cls-23" d="M66.41,321.92a7.23,7.23,0,1,0,7.23-7.22A7.23,7.23,0,0,0,66.41,321.92Z" transform="translate(-2.49 -41.64)"/><path class="cls-22" d="M68,321.92a5.69,5.69,0,1,0,5.69-5.69A5.69,5.69,0,0,0,68,321.92Z" transform="translate(-2.49 -41.64)"/><path class="cls-25" d="M121.23,327.64a10.16,10.16,0,1,0-19.68-3.54,10,10,0,0,0,.63,3.51" transform="translate(-2.49 -41.64)"/><path class="cls-12" d="M102.41,324.1a9.3,9.3,0,1,0,9.3-9.3A9.29,9.29,0,0,0,102.41,324.1Z" transform="translate(-2.49 -41.64)"/><path class="cls-23" d="M105.86,324.1a5.85,5.85,0,1,0,5.85-5.86A5.85,5.85,0,0,0,105.86,324.1Z" transform="translate(-2.49 -41.64)"/><path class="cls-22" d="M107.09,324.1a4.62,4.62,0,1,0,4.62-4.62A4.62,4.62,0,0,0,107.09,324.1Z" transform="translate(-2.49 -41.64)"/><path class="cls-25" d="M108.42,309.78a2.11,2.11,0,1,1-2.11-2.1A2.11,2.11,0,0,1,108.42,309.78Z" transform="translate(-2.49 -41.64)"/><path class="cls-33" d="M107.71,309.78a1.4,1.4,0,1,1-1.4-1.4A1.4,1.4,0,0,1,107.71,309.78Z" transform="translate(-2.49 -41.64)"/><rect class="cls-25" x="99.92" y="251.63" width="0.78" height="11.67"/><rect class="cls-24" x="75.99" y="241.37" width="2.5" height="18.48"/><path class="cls-32" d="M144.23,322.78a3,3,0,1,1-3-3A3,3,0,0,1,144.23,322.78Z" transform="translate(-2.49 -41.64)"/><path class="cls-34" d="M142.58,322.78a1.34,1.34,0,1,1-1.34-1.34A1.34,1.34,0,0,1,142.58,322.78Z" transform="translate(-2.49 -41.64)"/><path class="cls-35" d="M157.87,316.23a1.34,1.34,0,1,1-1.34-1.34A1.34,1.34,0,0,1,157.87,316.23Z" transform="translate(-2.49 -41.64)"/><polygon class="cls-25" points="48.58 278.89 42.32 274.14 27.74 248.19 36.7 240.44 48.58 269.4 48.58 278.89"/><polygon class="cls-36" points="9.18 238.19 27.74 248.19 36.7 240.44 11.31 233.81 9.18 238.19"/><path class="cls-37" d="M39.18,286.62A4.57,4.57,0,1,1,34.61,282,4.57,4.57,0,0,1,39.18,286.62Z" transform="translate(-2.49 -41.64)"/><path class="cls-38" d="M36.65,286.62a2,2,0,1,1-2-2.05A2,2,0,0,1,36.65,286.62Z" transform="translate(-2.49 -41.64)"/><path class="cls-38" d="M16.61,279.54a1,1,0,1,1-1-1A1,1,0,0,1,16.61,279.54Z" transform="translate(-2.49 -41.64)"/><polygon class="cls-12" points="25.49 283.59 5.1 283.59 0 271.56 3.06 266.65 7.14 266.74 22.91 281.21 27.74 281.13 25.49 283.59"/><polygon class="cls-23" points="378.94 247.81 363.59 272.72 344.19 272.72 370.59 247.81 370.59 245.03 378.94 245.03 378.94 247.81"/><rect class="cls-39" x="326.93" y="271.7" width="40.66" height="7.77"/><rect class="cls-39" x="276.53" y="244.01" width="8.47" height="42.6"/><path class="cls-13" d="M289.83,320.66c0,1.67-1,3-2.22,3h0c-1.23,0-2.22-1.36-2.22-3v-35c0-1.68,1-3,2.22-3h0c1.22,0,2.22,1.35,2.22,3Z" transform="translate(-2.49 -41.64)"/><rect class="cls-39" x="279.89" y="282.81" width="89.93" height="8.26"/><rect class="cls-17" x="279.89" y="279.47" width="86.24" height="3.34"/><polygon class="cls-24" points="227.17 291.07 279.89 291.07 279.89 262.97 234.31 263.11 227.17 269.22 227.17 291.07"/><rect class="cls-40" x="227.17" y="271.7" width="1.9" height="8.98"/><polygon class="cls-25" points="239.17 258.93 279.89 259.08 279.89 263.11 234.31 263.11 239.17 258.93"/><polygon class="cls-24" points="239.17 258.93 279.89 259.08 279.89 238.04 244.1 238.04 239.17 258.93"/><polygon class="cls-26" points="267.33 240.98 246.74 240.98 242.81 255.75 267.33 255.8 267.33 240.98"/><polygon class="cls-24" points="224.09 280.99 235.67 274.55 235.67 291.07 224.09 291.07 224.09 280.99"/><path class="cls-25" d="M274.2,332.83a10.06,10.06,0,1,0-17.93,0" transform="translate(-2.49 -41.64)"/><path class="cls-12" d="M256,328.26a9.21,9.21,0,1,0,9.21-9.21A9.21,9.21,0,0,0,256,328.26Z" transform="translate(-2.49 -41.64)"/><path class="cls-23" d="M259.44,328.26a5.8,5.8,0,1,0,5.8-5.8A5.8,5.8,0,0,0,259.44,328.26Z" transform="translate(-2.49 -41.64)"/><path class="cls-22" d="M260.67,328.26a4.57,4.57,0,1,0,4.57-4.57A4.57,4.57,0,0,0,260.67,328.26Z" transform="translate(-2.49 -41.64)"/><path class="cls-41" d="M309.73,332.83a10.07,10.07,0,1,0-17.93,0" transform="translate(-2.49 -41.64)"/><path class="cls-12" d="M291.55,328.26a9.21,9.21,0,1,0,9.21-9.21A9.21,9.21,0,0,0,291.55,328.26Z" transform="translate(-2.49 -41.64)"/><path class="cls-23" d="M295,328.26a5.8,5.8,0,1,0,5.8-5.8A5.8,5.8,0,0,0,295,328.26Z" transform="translate(-2.49 -41.64)"/><path class="cls-22" d="M296.19,328.26a4.57,4.57,0,1,0,4.57-4.57A4.58,4.58,0,0,0,296.19,328.26Z" transform="translate(-2.49 -41.64)"/><path class="cls-41" d="M342,332.83a10.06,10.06,0,1,0-17.93,0" transform="translate(-2.49 -41.64)"/><path class="cls-12" d="M323.85,328.26a9.21,9.21,0,1,0,9.21-9.21A9.21,9.21,0,0,0,323.85,328.26Z" transform="translate(-2.49 -41.64)"/><path class="cls-23" d="M327.26,328.26a5.8,5.8,0,1,0,5.8-5.8A5.8,5.8,0,0,0,327.26,328.26Z" transform="translate(-2.49 -41.64)"/><path class="cls-22" d="M328.49,328.26a4.57,4.57,0,1,0,4.57-4.57A4.57,4.57,0,0,0,328.49,328.26Z" transform="translate(-2.49 -41.64)"/><path class="cls-41" d="M366.84,332.83a10.06,10.06,0,1,0-17.93,0" transform="translate(-2.49 -41.64)"/><path class="cls-12" d="M348.67,328.26a9.21,9.21,0,1,0,9.21-9.21A9.21,9.21,0,0,0,348.67,328.26Z" transform="translate(-2.49 -41.64)"/><path class="cls-23" d="M352.08,328.26a5.8,5.8,0,1,0,5.8-5.8A5.8,5.8,0,0,0,352.08,328.26Z" transform="translate(-2.49 -41.64)"/><path class="cls-22" d="M353.31,328.26a4.57,4.57,0,1,0,4.57-4.57A4.58,4.58,0,0,0,353.31,328.26Z" transform="translate(-2.49 -41.64)"/><path class="cls-12" d="M257.56,308.81a1.33,1.33,0,0,0,1.33,1.33H266a1.33,1.33,0,0,0,1.33-1.33h0a1.32,1.32,0,0,0-1.33-1.33h-7.07a1.32,1.32,0,0,0-1.33,1.33Z" transform="translate(-2.49 -41.64)"/><path class="cls-42" d="M382.38,282.34a174.44,174.44,0,0,1-24.57,10c-13.62,4.33-27.52,2.82-27.52,2.82l-6.63-22.32s15.76-8.89,24.86-11.77,28.24-3.23,28.24-3.23a53.66,53.66,0,0,1,4.13,8.23A31.22,31.22,0,0,1,382.38,282.34Z" transform="translate(-2.49 -41.64)"/><rect class="cls-23" x="370.59" y="239.31" width="11.04" height="2.79"/><rect class="cls-41" x="371.83" y="242.09" width="9.81" height="2.93"/><path class="cls-43" d="M376.06,285.06s-18.68,18.16-41.62,25.44-33.68,2.84-33.68,2.84l-13.15-30.71s16.89-16.51,32.21-21.37,47.39-6,47.39-6a46.39,46.39,0,0,1,6.67,12.91C376.84,278.11,376.06,285.06,376.06,285.06Z" transform="translate(-2.49 -41.64)"/><path class="cls-44" d="M373.94,268.35a24.35,24.35,0,0,1-1.75,7.51c-1.85,4.46-6.11,7.36-10.22,9.58a154,154,0,0,1-15.21,7.46c-10.5,4.28-23.31,7.19-34.69,5.6-8.11-1.14-15-5.08-21.71-9.45l10.4,24.29s10.74,4.44,33.68-2.84,41.62-25.44,41.62-25.44S376.83,278.21,373.94,268.35Z" transform="translate(-2.49 -41.64)"/><path class="cls-45" d="M422.87,286l-7.29,3.14-3-1.41-3.79,3-5.1-.09s-9.14,7.66-9.31,7.9l28.53,1.83Z" transform="translate(-2.49 -41.64)"/><polygon class="cls-33" points="420.38 256.05 390.45 256.05 383.65 249.2 365.12 249.2 365.12 254.18 380.85 254.18 393 290.75 420.38 290.75 420.38 256.05"/><rect class="cls-39" x="384.5" y="292.43" width="35.88" height="6.49"/><rect class="cls-17" x="384.5" y="289.8" width="35.88" height="2.62"/><polygon class="cls-24" points="342.98 298.92 387.26 298.92 387.26 276.84 348.59 276.95 342.98 281.75 342.98 298.92"/><rect class="cls-40" x="342.98" y="283.7" width="1.5" height="7.05"/><polygon class="cls-25" points="352.41 273.67 386.05 273.78 387.26 276.95 348.59 276.95 352.41 273.67"/><polygon class="cls-24" points="352.41 273.67 386.05 273.78 380.27 257.25 356.29 257.25 352.41 273.67"/><polygon class="cls-26" points="355.27 271.17 382.5 271.23 378.17 259.56 358.35 259.56 355.27 271.17"/><polygon class="cls-24" points="340.56 291 349.66 285.94 349.66 298.92 340.56 298.92 340.56 291"/><path class="cls-25" d="M369.66,340.45a10.57,10.57,0,0,0-9.41-15.36,10.55,10.55,0,0,0-9.41,15.36" transform="translate(-2.49 -41.64)"/><circle class="cls-12" cx="360.25" cy="335.65" r="9.67" transform="translate(-134.31 311.4) rotate(-45)"/><path class="cls-23" d="M354.16,335.65a6.09,6.09,0,1,0,6.09-6.09A6.09,6.09,0,0,0,354.16,335.65Z" transform="translate(-2.49 -41.64)"/><path class="cls-22" d="M355.45,335.65a4.8,4.8,0,1,0,4.8-4.8A4.8,4.8,0,0,0,355.45,335.65Z" transform="translate(-2.49 -41.64)"/><path class="cls-41" d="M422.87,325.72A10.56,10.56,0,0,0,417,340.45h5.84Z" transform="translate(-2.49 -41.64)"/><path class="cls-12" d="M422.87,326.67a9.67,9.67,0,0,0,0,18Z" transform="translate(-2.49 -41.64)"/><path class="cls-23" d="M422.87,330.73a6.08,6.08,0,0,0,0,9.84Z" transform="translate(-2.49 -41.64)"/><path class="cls-22" d="M422.87,332.48a4.73,4.73,0,0,0,0,6.34Z" transform="translate(-2.49 -41.64)"/><path class="cls-12" d="M378.49,321.29a1,1,0,0,0,1.05,1h5.56a1,1,0,0,0,1-1h0a1,1,0,0,0-1-1.05h-5.56a1,1,0,0,0-1.05,1.05Z" transform="translate(-2.49 -41.64)"/></g></g></svg>