<svg xmlns="http://www.w3.org/2000/svg" viewBox="0 0 231.07 128.83"><defs><style>.cls-1{isolation:isolate;}.cls-2,.cls-5{fill:#fff;}.cls-3,.cls-4,.cls-5{opacity:0.2;mix-blend-mode:overlay;}.cls-10,.cls-4{fill:#f6f6f6;}.cls-6{fill:#466785;}.cls-7{fill:#adbbc8;}.cls-8{fill:#aa411a;}.cls-9{fill:#c25f2d;}.cls-11{fill:#ea9623;}.cls-12{fill:#edaa34;}.cls-13{fill:#f7f8f9;}.cls-14{fill:#2e4865;}.cls-15{fill:#ffd282;}.cls-16{fill:#a6e1ff;}.cls-17{fill:#22354a;}.cls-18{fill:#39597d;}.cls-19{fill:#b7c6d4;}.cls-20{fill:#a2afbc;}.cls-21{fill:#23374e;}.cls-22{fill:#3a556e;}.cls-23{fill:#ebb677;}.cls-24{fill:#f9c484;}.cls-25{fill:#575756;}.cls-26{fill:#c2d2e0;}.cls-27{fill:#3c3c3b;}.cls-28{fill:#ededed;}.cls-29{fill:#f9b233;}</style></defs><title>Векторный смарт-объект2</title><g class="cls-1"><g id="Layer_2" data-name="Layer 2"><path class="cls-2" d="M222.22,87.17A.25.25,0,0,1,222,87a17.78,17.78,0,0,1-.77-1.87.26.26,0,0,1,.16-.32.25.25,0,0,1,.32.15,17.9,17.9,0,0,0,.74,1.83.24.24,0,0,1-.12.33A.19.19,0,0,1,222.22,87.17Zm-1.34-3.77a.24.24,0,0,1-.24-.19c-.16-.64-.3-1.31-.42-2a.25.25,0,0,1,.21-.29.25.25,0,0,1,.29.2c.11.66.25,1.31.41,1.94a.25.25,0,0,1-.18.3Zm-.68-3.94a.25.25,0,0,1-.25-.22c-.06-.67-.11-1.34-.13-2a.25.25,0,0,1,.25-.25h0a.24.24,0,0,1,.25.24c0,.66.07,1.33.13,2a.25.25,0,0,1-.22.27Zm-.12-4h0a.25.25,0,0,1-.24-.26c0-.67.07-1.35.14-2a.25.25,0,1,1,.49,0c-.06.65-.11,1.31-.13,2A.26.26,0,0,1,220.08,75.47Zm.4-4h0a.26.26,0,0,1-.21-.29c.11-.66.25-1.33.4-2a.25.25,0,0,1,.49.12c-.15.64-.28,1.29-.39,1.94A.26.26,0,0,1,220.48,71.49Zm.92-3.89h-.07a.25.25,0,0,1-.17-.31c.2-.65.42-1.29.66-1.91a.25.25,0,0,1,.33-.14.24.24,0,0,1,.14.32c-.24.61-.45,1.24-.65,1.87A.25.25,0,0,1,221.4,67.6Zm1.44-3.73-.1,0a.24.24,0,0,1-.12-.33c.28-.61.59-1.21.92-1.8a.26.26,0,0,1,.34-.1A.25.25,0,0,1,224,62q-.48.87-.9,1.77A.24.24,0,0,1,222.84,63.87Zm1.95-3.49a.24.24,0,0,1-.21-.38q.55-.84,1.17-1.65a.24.24,0,0,1,.35,0,.25.25,0,0,1,.05.35c-.4.52-.79,1.06-1.15,1.61A.26.26,0,0,1,224.79,60.38Zm2.43-3.17a.27.27,0,0,1-.17-.06.25.25,0,0,1,0-.35c.45-.5.92-1,1.4-1.46a.25.25,0,0,1,.35,0,.25.25,0,0,1,0,.36c-.48.46-.94.94-1.37,1.43A.24.24,0,0,1,227.22,57.21Zm2.86-2.79a.27.27,0,0,1-.19-.08.25.25,0,0,1,0-.36c.51-.43,1-.85,1.58-1.24a.24.24,0,0,1,.35,0,.25.25,0,0,1,0,.35q-.81.59-1.56,1.23A.24.24,0,0,1,230.08,54.42Zm3.21-2.36a.25.25,0,0,1-.21-.12.24.24,0,0,1,.08-.34c.55-.36,1.14-.71,1.73-1a.25.25,0,1,1,.24.44c-.58.33-1.15.67-1.7,1A.33.33,0,0,1,233.29,52.06Zm3.5-1.94a.25.25,0,0,1-.23-.15.24.24,0,0,1,.12-.33c.59-.28,1.21-.56,1.84-.82a.25.25,0,0,1,.32.14.25.25,0,0,1-.13.33c-.62.25-1.23.52-1.82.8A.19.19,0,0,1,236.79,50.12Zm3.69-1.53a.25.25,0,0,1-.24-.17.26.26,0,0,1,.16-.32c.62-.22,1.26-.42,1.91-.62a.26.26,0,0,1,.31.17.25.25,0,0,1-.17.31c-.64.19-1.27.4-1.89.62Zm3.83-1.14a.26.26,0,0,1-.25-.19.25.25,0,0,1,.19-.3c.63-.16,1.29-.31,1.95-.45a.25.25,0,0,1,.3.2.25.25,0,0,1-.2.29c-.65.14-1.3.28-1.93.44Zm3.91-.8a.27.27,0,0,1-.25-.21.25.25,0,0,1,.21-.29c.65-.11,1.31-.2,2-.28a.24.24,0,0,1,.28.21.25.25,0,0,1-.22.28c-.67.08-1.32.18-2,.28Z" transform="translate(-209.25 -9.5)"/><path class="cls-2" d="M348,41.25a.25.25,0,0,1-.21-.11c-.36-.56-.75-1.1-1.14-1.63a.25.25,0,1,1,.4-.3c.4.54.79,1.09,1.16,1.66a.25.25,0,0,1-.08.34A.22.22,0,0,1,348,41.25ZM293.82,40a.24.24,0,0,1-.14-.05.25.25,0,0,1-.06-.35,17.6,17.6,0,0,1,1.3-1.56.26.26,0,0,1,.36,0,.25.25,0,0,1,0,.35A16.25,16.25,0,0,0,294,39.91.26.26,0,0,1,293.82,40Zm51.78-2a.25.25,0,0,1-.19-.09c-.43-.5-.88-1-1.33-1.46a.25.25,0,0,1,.35-.35c.47.47.93,1,1.36,1.49a.25.25,0,0,1,0,.35A.27.27,0,0,1,345.6,38.05Zm-49.05-.95a.27.27,0,0,1-.19-.08.25.25,0,0,1,0-.36c.49-.42,1-.85,1.57-1.26a.25.25,0,0,1,.35.05.24.24,0,0,1-.05.35c-.54.4-1.06.82-1.54,1.24A.27.27,0,0,1,296.55,37.1Zm46.25-1.9a.23.23,0,0,1-.16-.06c-.5-.43-1-.86-1.54-1.25a.25.25,0,0,1,.31-.4c.53.4,1,.83,1.56,1.28a.25.25,0,0,1,0,.35A.27.27,0,0,1,342.8,35.2Zm-43-.49a.24.24,0,0,1-.21-.11.25.25,0,0,1,.07-.35c.55-.35,1.13-.71,1.72-1a.25.25,0,1,1,.25.43c-.59.33-1.16.68-1.7,1A.22.22,0,0,1,299.76,34.71Zm39.86-1.92a.25.25,0,0,1-.14,0c-.55-.36-1.12-.7-1.7-1a.26.26,0,0,1-.1-.34.26.26,0,0,1,.34-.1c.59.33,1.18.68,1.73,1a.26.26,0,0,1,.08.35A.26.26,0,0,1,339.62,32.79Zm-36.39-.06a.24.24,0,0,1-.22-.14.25.25,0,0,1,.11-.33c.6-.3,1.21-.59,1.82-.86a.25.25,0,1,1,.2.46c-.6.26-1.2.55-1.8.84A.2.2,0,0,1,303.23,32.73Zm3.66-1.62a.24.24,0,0,1-.23-.16.24.24,0,0,1,.14-.32c.62-.25,1.26-.48,1.89-.69a.26.26,0,0,1,.32.16.25.25,0,0,1-.16.31c-.63.22-1.26.44-1.87.68Zm29.23-.24a.23.23,0,0,1-.11,0c-.59-.27-1.21-.53-1.83-.76a.24.24,0,0,1-.14-.32.25.25,0,0,1,.32-.15q.94.36,1.86.78a.24.24,0,0,1,.12.33A.25.25,0,0,1,336.12,30.87Zm-25.44-1a.25.25,0,0,1-.07-.49c.64-.19,1.29-.36,1.94-.52a.25.25,0,0,1,.3.18.24.24,0,0,1-.18.3c-.64.16-1.29.33-1.92.52Zm21.7-.37h-.07c-.63-.19-1.28-.36-1.92-.51a.25.25,0,0,1-.19-.3.25.25,0,0,1,.3-.19c.66.15,1.31.33,1.95.52a.25.25,0,0,1-.07.49Zm-17.82-.58a.25.25,0,0,1-.24-.2.24.24,0,0,1,.2-.29c.65-.13,1.31-.25,2-.35a.25.25,0,0,1,.28.21.25.25,0,0,1-.21.29c-.65.1-1.31.21-2,.34Zm13.93-.32h-.05c-.64-.11-1.3-.2-2-.27a.25.25,0,1,1,0-.49c.67.07,1.35.16,2,.27a.25.25,0,0,1,.2.29A.25.25,0,0,1,328.49,28.56Zm-10-.27a.24.24,0,0,1-.25-.22.26.26,0,0,1,.22-.28q1-.11,2-.15a.24.24,0,0,1,.26.23.26.26,0,0,1-.24.27c-.64,0-1.31.08-2,.15Zm6-.16h0c-.62,0-1.26-.05-1.9-.05h-.09a.25.25,0,0,1,0-.5h.09c.65,0,1.3,0,1.92.05a.25.25,0,0,1,.24.26A.26.26,0,0,1,324.51,28.13Z" transform="translate(-209.25 -9.5)"/><path class="cls-2" d="M418.71,76.93h0a.26.26,0,0,1-.24-.27c0-.51.06-1,.06-1.52v-.46a.25.25,0,0,1,.24-.25.26.26,0,0,1,.26.24v.47c0,.51,0,1-.06,1.55A.25.25,0,0,1,418.71,76.93Zm-.08-4a.25.25,0,0,1-.25-.22q-.12-1-.33-2a.26.26,0,0,1,.2-.3.25.25,0,0,1,.29.19c.14.66.25,1.33.33,2a.25.25,0,0,1-.22.28Zm-.85-3.9a.26.26,0,0,1-.24-.17,19.56,19.56,0,0,0-.7-1.85.26.26,0,0,1,.13-.33.25.25,0,0,1,.33.13c.27.61.51,1.25.72,1.89a.26.26,0,0,1-.16.32Zm-1.6-3.66a.25.25,0,0,1-.22-.13,18.45,18.45,0,0,0-1-1.67.25.25,0,1,1,.41-.29A19.55,19.55,0,0,1,416.4,65a.25.25,0,0,1-.1.34A.24.24,0,0,1,416.18,65.38Zm-2.26-3.28a.25.25,0,0,1-.2-.09c-.41-.5-.86-1-1.33-1.46a.25.25,0,0,1,0-.36.26.26,0,0,1,.36,0c.47.48.93,1,1.36,1.5a.25.25,0,0,1,0,.35A.27.27,0,0,1,413.92,62.1Zm-2.82-2.84a.25.25,0,0,1-.16-.06q-.75-.64-1.56-1.23a.25.25,0,1,1,.3-.4c.54.39,1.07.82,1.58,1.25a.24.24,0,0,1,0,.35A.25.25,0,0,1,411.1,59.26Zm-3.23-2.35a.28.28,0,0,1-.13,0c-.56-.35-1.14-.68-1.73-1a.26.26,0,0,1,.24-.45c.59.32,1.18.65,1.75,1a.26.26,0,0,1,.08.35A.27.27,0,0,1,407.87,56.91Zm-3.54-1.86a.19.19,0,0,1-.1,0c-.6-.26-1.22-.51-1.84-.73a.25.25,0,0,1,.17-.47c.63.22,1.26.48,1.87.75a.25.25,0,0,1,.13.33A.25.25,0,0,1,404.33,55.05Zm-21.42-.79a.25.25,0,0,1-.09-.48,19.41,19.41,0,0,1,1.9-.68.25.25,0,1,1,.15.47c-.64.2-1.26.42-1.86.67Zm17.66-.58h-.07c-.64-.18-1.28-.35-1.92-.49a.24.24,0,0,1-.19-.29.25.25,0,0,1,.3-.19c.64.14,1.3.31,1.95.49a.25.25,0,0,1,.17.31A.25.25,0,0,1,400.57,53.68Zm-13.84-.6a.25.25,0,0,1-.06-.5c.65-.14,1.32-.26,2-.35a.25.25,0,0,1,.28.22.24.24,0,0,1-.21.28c-.66.09-1.31.2-2,.34Zm9.94-.26h0c-.66-.1-1.32-.17-2-.23a.25.25,0,0,1-.23-.27.26.26,0,0,1,.27-.23c.66.06,1.34.14,2,.24a.25.25,0,0,1,.21.28A.24.24,0,0,1,396.67,52.82Zm-6-.28a.24.24,0,0,1-.25-.23.25.25,0,0,1,.23-.27c.54,0,1.09,0,1.63,0h.39a.24.24,0,0,1,.24.25.25.25,0,0,1-.25.25h-.38c-.53,0-1.07,0-1.6,0Z" transform="translate(-209.25 -9.5)"/><path class="cls-2" d="M395.34,133.1h0c-.67,0-1.35,0-2-.12a.25.25,0,1,1,0-.5c.65.07,1.32.1,2,.12a.23.23,0,0,1,.24.25A.25.25,0,0,1,395.34,133.1Zm2,0a.25.25,0,0,1-.25-.23.26.26,0,0,1,.24-.27c.65,0,1.32-.1,2-.19a.25.25,0,0,1,.28.21.24.24,0,0,1-.21.28c-.67.09-1.35.16-2,.2Zm-6-.33h0c-.66-.11-1.33-.26-2-.42a.25.25,0,0,1,.13-.49c.64.17,1.29.31,1.93.42a.25.25,0,0,1,.21.29A.27.27,0,0,1,391.37,132.72Zm9.93-.2a.26.26,0,0,1-.24-.2.25.25,0,0,1,.19-.3q1-.21,1.92-.48a.25.25,0,1,1,.14.48c-.64.19-1.3.35-2,.49Zm-13.8-.8-.08,0c-.63-.21-1.27-.46-1.88-.73a.23.23,0,0,1-.13-.32.24.24,0,0,1,.33-.13c.6.26,1.22.5,1.84.71a.26.26,0,0,1,.16.32A.27.27,0,0,1,387.5,131.72Zm17.64-.31a.25.25,0,0,1-.08-.48c.62-.23,1.23-.48,1.84-.75a.25.25,0,0,1,.33.13.26.26,0,0,1-.13.33c-.61.27-1.24.52-1.87.76Zm-21.31-1.28a.2.2,0,0,1-.11,0c-.59-.31-1.18-.64-1.75-1a.24.24,0,0,1-.08-.34.25.25,0,0,1,.34-.09c.57.36,1.14.69,1.72,1a.26.26,0,0,1,.11.34A.28.28,0,0,1,383.83,130.13Zm25-.35a.27.27,0,0,1-.22-.13.26.26,0,0,1,.11-.34c.59-.31,1.16-.65,1.71-1a.26.26,0,0,1,.35.08.25.25,0,0,1-.08.34c-.56.35-1.15.69-1.75,1A.24.24,0,0,1,408.79,129.78ZM380.44,128a.28.28,0,0,1-.15,0c-.54-.4-1.07-.81-1.59-1.24a.25.25,0,0,1,.32-.38c.51.42,1,.83,1.57,1.21a.25.25,0,0,1,.05.35A.23.23,0,0,1,380.44,128Zm31.74-.36a.28.28,0,0,1-.2-.1.25.25,0,0,1,.06-.35c.54-.4,1.06-.81,1.55-1.23a.26.26,0,0,1,.33.39c-.51.42-1,.84-1.59,1.24A.27.27,0,0,1,412.18,127.66Zm3.05-2.58a.23.23,0,0,1-.17-.08.24.24,0,0,1,0-.35c.47-.47.93-1,1.35-1.45a.25.25,0,0,1,.35,0,.24.24,0,0,1,0,.35c-.43.5-.9,1-1.38,1.47A.25.25,0,0,1,415.23,125.08Zm2.61-3a.28.28,0,0,1-.15,0,.25.25,0,0,1-.06-.35c.39-.54.75-1.1,1.08-1.66a.25.25,0,1,1,.43.25,18.22,18.22,0,0,1-1.1,1.7A.25.25,0,0,1,417.84,122Zm2-3.45-.1,0a.25.25,0,0,1-.12-.33,16.58,16.58,0,0,0,.69-1.85.25.25,0,1,1,.47.15,16.28,16.28,0,0,1-.71,1.9A.25.25,0,0,1,419.83,118.59Zm1.15-3.82h0a.25.25,0,0,1-.21-.29,12.9,12.9,0,0,0,.15-2,.25.25,0,1,1,.5,0,12.71,12.71,0,0,1-.16,2A.25.25,0,0,1,421,114.77Z" transform="translate(-209.25 -9.5)"/><path class="cls-2" d="M246.58,135.77a.25.25,0,0,1-.25-.24.26.26,0,0,1,.24-.26c.66,0,1.32-.06,2-.12a.24.24,0,0,1,.28.22.25.25,0,0,1-.23.27c-.67.07-1.35.12-2,.13Zm-2,0h0c-.68,0-1.35-.1-2-.2a.25.25,0,0,1-.21-.28.24.24,0,0,1,.28-.21c.65.09,1.31.16,2,.19a.26.26,0,0,1,.23.27A.25.25,0,0,1,244.58,135.74Zm6-.37a.25.25,0,0,1-.05-.5c.64-.11,1.29-.25,1.94-.41a.26.26,0,0,1,.31.19.25.25,0,0,1-.19.3c-.66.16-1.32.3-2,.41Zm-9.93-.2h-.06c-.65-.16-1.3-.35-1.94-.56a.25.25,0,0,1-.15-.32.25.25,0,0,1,.31-.16,17.93,17.93,0,0,0,1.9.55.25.25,0,0,1-.06.5Zm13.81-.75a.25.25,0,0,1-.07-.49c.61-.19,1.25-.4,1.88-.64a.25.25,0,0,1,.32.15.25.25,0,0,1-.15.32c-.64.24-1.28.46-1.91.65Zm-17.58-.55-.11,0q-.92-.42-1.8-.93a.24.24,0,0,1-.09-.34.25.25,0,0,1,.34-.09,19.43,19.43,0,0,0,1.76.9.25.25,0,0,1,.12.34A.24.24,0,0,1,236.86,133.87Zm21.33-.83a.25.25,0,0,1-.23-.16.24.24,0,0,1,.13-.32c.6-.26,1.21-.54,1.81-.83a.25.25,0,0,1,.33.11.26.26,0,0,1-.11.34l-1.83.84Zm-24.79-1.16a.3.3,0,0,1-.15,0c-.54-.39-1.08-.81-1.58-1.25a.25.25,0,0,1,0-.36.26.26,0,0,1,.36,0,18.48,18.48,0,0,0,1.55,1.22.25.25,0,0,1,0,.35A.24.24,0,0,1,233.4,131.88Zm28.39-.59a.23.23,0,0,1-.22-.13.25.25,0,0,1,.1-.34c.57-.31,1.15-.63,1.73-1a.24.24,0,0,1,.34.08.26.26,0,0,1-.08.35l-1.75,1A.27.27,0,0,1,261.79,131.29Zm-31.4-2a.27.27,0,0,1-.19-.08q-.69-.74-1.32-1.53a.25.25,0,0,1,.39-.31c.41.52.85,1,1.3,1.49a.26.26,0,0,1,0,.36A.28.28,0,0,1,230.39,129.26Zm-2.48-3.14a.25.25,0,0,1-.21-.12c-.36-.57-.7-1.15-1-1.74a.24.24,0,0,1,.1-.34.26.26,0,0,1,.34.1c.3.58.64,1.16,1,1.71a.25.25,0,0,1-.07.35A.33.33,0,0,1,227.91,126.12Zm-1.84-3.54a.25.25,0,0,1-.23-.16,19.7,19.7,0,0,1-.67-1.91.25.25,0,0,1,.17-.31.24.24,0,0,1,.31.17,18.66,18.66,0,0,0,.65,1.86.26.26,0,0,1-.14.33ZM225,118.74a.26.26,0,0,1-.25-.2,17.91,17.91,0,0,1-.24-2,.25.25,0,0,1,.5,0,16.9,16.9,0,0,0,.24,2,.26.26,0,0,1-.21.29Zm-.24-4h0a.26.26,0,0,1-.24-.27,13,13,0,0,1,.3-2,.24.24,0,0,1,.29-.19.25.25,0,0,1,.19.3,13.33,13.33,0,0,0-.28,1.94A.25.25,0,0,1,224.71,114.76Z" transform="translate(-209.25 -9.5)"/><g class="cls-3"><path class="cls-2" d="M404.87,44l-.78.38a7.27,7.27,0,0,1-10.47-6h-2.84A10.1,10.1,0,0,0,407,45.85l.28-.22,1.14.76.38-5.9-5.3,2.61Z" transform="translate(-209.25 -9.5)"/><path class="cls-2" d="M396.91,31.67l.78-.38a7.29,7.29,0,0,1,10.47,6H411a10.1,10.1,0,0,0-16.25-7.52l-.29.22-1.13-.75-.38,5.89,5.3-2.61Z" transform="translate(-209.25 -9.5)"/><circle class="cls-2" cx="191.64" cy="28.33" r="3.09"/></g><g class="cls-3"><path class="cls-2" d="M318,45.13l-.57.28a5.29,5.29,0,0,1-7.61-4.4h-2.06a7.34,7.34,0,0,0,11.82,5.47l.21-.16.82.55.28-4.29L317,44.48Z" transform="translate(-209.25 -9.5)"/><path class="cls-2" d="M312.18,36.17l.57-.28a5.38,5.38,0,0,1,2.33-.54,5.3,5.3,0,0,1,5.28,4.93h2.07a7.35,7.35,0,0,0-11.83-5.46l-.2.16-.83-.55-.27,4.29,3.85-1.91Z" transform="translate(-209.25 -9.5)"/><path class="cls-2" d="M312.83,40.65a2.25,2.25,0,1,0,2.25-2.25A2.25,2.25,0,0,0,312.83,40.65Z" transform="translate(-209.25 -9.5)"/></g><g class="cls-3"><path class="cls-2" d="M235.77,41.71l-.57.28a5.29,5.29,0,0,1-7.61-4.39h-2.07a7.36,7.36,0,0,0,11.83,5.47l.2-.16.83.55.27-4.29-3.85,1.9Z" transform="translate(-209.25 -9.5)"/><path class="cls-2" d="M230,32.75l.57-.27a5.2,5.2,0,0,1,2.32-.54,5.31,5.31,0,0,1,5.29,4.93h2.06A7.35,7.35,0,0,0,228.4,31.4l-.21.16-.82-.55-.28,4.29L231,33.4Z" transform="translate(-209.25 -9.5)"/><path class="cls-2" d="M230.62,37.23A2.25,2.25,0,1,0,232.87,35,2.25,2.25,0,0,0,230.62,37.23Z" transform="translate(-209.25 -9.5)"/></g><g class="cls-3"><path class="cls-2" d="M257.33,104l-.47.23a4.34,4.34,0,0,1-1.93.45,4.41,4.41,0,0,1-4.39-4.09h-1.71a6.09,6.09,0,0,0,9.81,4.53l.17-.13.69.46.23-3.56-3.2,1.58Z" transform="translate(-209.25 -9.5)"/><path class="cls-2" d="M252.53,96.57l.47-.23a4.34,4.34,0,0,1,1.93-.45,4.41,4.41,0,0,1,4.39,4.09H261a6.1,6.1,0,0,0-9.81-4.54l-.17.14-.69-.46-.23,3.56,3.2-1.58Z" transform="translate(-209.25 -9.5)"/><circle class="cls-2" cx="45.68" cy="90.79" r="1.87"/></g><g class="cls-3"><path class="cls-2" d="M243,129.62l-.33.16a3,3,0,0,1-4.35-2.52h-1.18a4.2,4.2,0,0,0,6.76,3.13l.12-.09.47.31.16-2.45-2.2,1.09Z" transform="translate(-209.25 -9.5)"/><path class="cls-2" d="M239.7,124.49l.32-.16a3.12,3.12,0,0,1,1.33-.31,3,3,0,0,1,3,2.83h1.18a4.22,4.22,0,0,0-4.21-4,4.28,4.28,0,0,0-2.56.87l-.11.09-.48-.32-.15,2.46,2.2-1.09Z" transform="translate(-209.25 -9.5)"/><path class="cls-2" d="M240.07,127.05a1.29,1.29,0,1,0,1.28-1.28A1.28,1.28,0,0,0,240.07,127.05Z" transform="translate(-209.25 -9.5)"/></g><path class="cls-4" d="M239.54,71.1a3.12,3.12,0,0,1-2-.54l-.61-.43-2.9-2L231,66l-.16-.11v-.38h0l-1.7-1h0a.38.38,0,0,0-.15-.34h0a.39.39,0,0,0-.54.05l-1.88,2.42a.39.39,0,0,0,.08.54h0a.37.37,0,0,0,.36.07h0l1.35,1.41h0l.36-.08.15.13,2.79,2.43,2.66,2.32.56.5a3,3,0,0,1,1,1.83,5.36,5.36,0,0,0,2,3.35l10.3,8a1.17,1.17,0,0,0,1.64-.21l4-5.13a1.16,1.16,0,0,0-.2-1.64l-10.3-8A5.32,5.32,0,0,0,239.54,71.1Z" transform="translate(-209.25 -9.5)"/><path class="cls-4" d="M291.29,79a2.1,2.1,0,0,1,1.19-.85L293,78l2.36-.68,2.49-.71.13,0,.21.16h0l1.27-.49h0a.25.25,0,0,0,.25.06h0a.27.27,0,0,0,.22-.31l-.48-2.09a.27.27,0,0,0-.33-.19h0a.27.27,0,0,0-.2.17h0l-1.36.11h0l-.11.23-.14,0-2.55.43-2.42.41-.52.09a2.12,2.12,0,0,1-1.44-.26,3.77,3.77,0,0,0-2.69-.4l-8.88,2a.81.81,0,0,0-.61,1l1,4.42a.82.82,0,0,0,1,.62l8.87-2A3.7,3.7,0,0,0,291.29,79Z" transform="translate(-209.25 -9.5)"/><path class="cls-4" d="M425.18,129.77a1.67,1.67,0,0,1,.89-.65l.38-.11,1.79-.51,1.88-.54.1,0,.15.12h0l1-.37h0a.2.2,0,0,0,.19,0h0a.21.21,0,0,0,.16-.24l-.36-1.58a.2.2,0,0,0-.25-.14h0a.22.22,0,0,0-.15.13h0l-1,.09h0l-.08.18h-.11l-1.92.33-1.84.31-.39.07a1.66,1.66,0,0,1-1.09-.2,2.82,2.82,0,0,0-2-.3l-6.71,1.53a.62.62,0,0,0-.46.74L416,132a.63.63,0,0,0,.74.47l6.71-1.54A2.8,2.8,0,0,0,425.18,129.77Z" transform="translate(-209.25 -9.5)"/><path class="cls-4" d="M344.89,75.06a1.42,1.42,0,0,1-.92.37l-.36,0-1.68.07-1.76.07h-.09l-.11-.14h0l-.92.12h0a.19.19,0,0,0-.16-.08h0a.18.18,0,0,0-.19.17l0,1.46a.19.19,0,0,0,.19.18h0a.18.18,0,0,0,.16-.08h0l.92.15h0l.11-.14h.1l1.75.12,1.68.12.35,0a1.43,1.43,0,0,1,.92.4,2.53,2.53,0,0,0,1.71.7l6.2.1a.57.57,0,0,0,.57-.55l0-3.09a.55.55,0,0,0-.54-.57l-6.21-.09A2.52,2.52,0,0,0,344.89,75.06Z" transform="translate(-209.25 -9.5)"/><path class="cls-4" d="M432.29,77.93a1.68,1.68,0,0,1-.14-1.1l.09-.39.41-1.81.43-1.9,0-.11.18-.07h0l.14-1h0a.2.2,0,0,0,.13-.14h0a.2.2,0,0,0-.13-.26l-1.55-.44a.2.2,0,0,0-.25.14h0a.21.21,0,0,0,0,.19h0l-.42.94h0l.11.16,0,.1-.64,1.85-.61,1.75-.13.38a1.63,1.63,0,0,1-.69.86A2.83,2.83,0,0,0,428,78.69l-1.89,6.62a.61.61,0,0,0,.42.76l3.3.94a.61.61,0,0,0,.76-.42L432.48,80A2.78,2.78,0,0,0,432.29,77.93Z" transform="translate(-209.25 -9.5)"/><polygon class="cls-5" points="108.76 52.13 107.49 51.32 106.67 50.79 105.42 49.99 104.73 48.08 104.48 47.38 101.77 47.78 101.56 47.69 98.85 46.49 97.4 45.85 98.01 49.32 96.43 51.13 95.34 52.39 97.87 53.39 97.4 56.43 100.01 56.43 101.97 60.34 103.61 57.96 106.15 58.87 106.09 55.93 107.49 56.63 108.76 52.13"/><polygon class="cls-5" points="188.09 55.55 188.58 54.7 188.9 54.16 189.38 53.32 190.6 52.81 191.04 52.63 190.7 50.88 190.75 50.74 191.45 48.94 191.82 47.98 189.59 48.48 188.36 47.52 187.51 46.84 186.94 48.52 184.95 48.31 185.03 50 182.55 51.4 184.15 52.39 183.63 54.07 185.54 53.94 185.13 54.87 188.09 55.55"/><polygon class="cls-5" points="185.93 120.6 186.42 119.75 186.73 119.2 187.22 118.36 188.44 117.86 188.88 117.67 188.54 115.92 188.59 115.78 189.28 113.99 189.66 113.03 187.42 113.53 186.2 112.56 185.34 111.89 184.77 113.57 182.78 113.35 182.86 115.05 180.39 116.44 181.98 117.44 181.47 119.11 183.38 118.98 182.97 119.91 185.93 120.6"/><polygon class="cls-5" points="213.35 43.39 212.56 42.88 212.04 42.55 211.25 42.04 210.82 40.84 210.66 40.4 208.96 40.65 208.82 40.59 207.12 39.84 206.21 39.44 206.59 41.62 205.6 42.76 204.91 43.55 206.51 44.18 206.21 46.09 207.85 46.09 209.08 48.55 210.12 47.06 211.72 47.63 211.67 45.78 212.56 46.22 213.35 43.39"/><polygon class="cls-5" points="163.98 68.15 163.62 67.64 163.38 67.31 163.03 66.81 163.06 65.97 163.07 65.66 161.96 65.39 161.9 65.33 161.04 64.45 160.58 63.97 160.28 65.4 159.39 65.86 158.77 66.17 159.6 66.95 158.94 68.05 159.95 68.45 160.1 70.26 161.1 69.6 161.94 70.34 162.37 69.2 162.79 69.69 163.98 68.15"/><polygon class="cls-5" points="59.67 68 58.88 67.5 58.36 67.16 57.57 66.66 57.14 65.46 56.98 65.02 55.28 65.27 55.14 65.21 53.44 64.46 52.53 64.06 52.91 66.24 51.92 67.38 51.23 68.17 52.83 68.8 52.53 70.71 54.17 70.71 55.4 73.17 56.44 71.67 58.04 72.25 57.99 70.39 58.88 70.84 59.67 68"/><path class="cls-5" d="M394.28,91.76l-.07-.19a3.4,3.4,0,0,1-2.11-1.94c-.45-.88-.7-1.85-1.17-2.72-1.1-2-3.24-3.23-4.47-5.16-.31-.5-.56-1-.91-1.51h0a1.54,1.54,0,0,0-.59-.67,2.4,2.4,0,0,1-1-1c-.25-.6-.44-1.22-.66-1.82l-.59.39-.48.32a4,4,0,0,1,1.07.77,1.19,1.19,0,0,1,.28,1.19,3.4,3.4,0,0,1-.29.48,2.46,2.46,0,0,0-.25,1.26v0a5.37,5.37,0,0,0,.61,2.56c.58,1.15,1.41,2.16,2,3.3a4.78,4.78,0,0,1,.56,3.71,5.77,5.77,0,0,1-1,1.69l-.7.92a3.22,3.22,0,0,0,3.14-1.92,4.56,4.56,0,0,0,.41-2c.1.3.2.6.29.89a8.33,8.33,0,0,0,1.15,2.6,3,3,0,0,0,2.41,1.32c-.38-1.21-.76-2.41-1.15-3.62.13.12.25.24.39.35A4,4,0,0,0,394.28,91.76Z" transform="translate(-209.25 -9.5)"/><path class="cls-5" d="M330.31,48.89l.12-.12a2.79,2.79,0,0,1,.7-2.25c.51-.64,1.14-1.17,1.62-1.83,1.11-1.51,1.28-3.54,2.29-5.13.26-.41.57-.78.8-1.21h0a1.21,1.21,0,0,0,.3-.67,2,2,0,0,1,.4-1.14c.36-.39.75-.75,1.13-1.13l-.5-.3-.41-.24a3.16,3.16,0,0,1-.19,1.06,1,1,0,0,1-.8.62,2.28,2.28,0,0,1-.45,0,2.07,2.07,0,0,0-1,.25h0a4.48,4.48,0,0,0-1.7,1.36c-.66.83-1.12,1.8-1.75,2.65a3.9,3.9,0,0,1-2.56,1.72,5.26,5.26,0,0,1-1.63-.17l-.93-.21a2.65,2.65,0,0,0,2.53,1.67,3.69,3.69,0,0,0,1.66-.4l-.57.52a7,7,0,0,0-1.53,1.77,2.45,2.45,0,0,0-.14,2.26l2.3-2.12a2.8,2.8,0,0,0-.13.41A3.26,3.26,0,0,0,330.31,48.89Z" transform="translate(-209.25 -9.5)"/><path class="cls-5" d="M278.86,29.29H279a2.83,2.83,0,0,1,2-1.21c.8-.14,1.62-.1,2.42-.27,1.84-.39,3.32-1.79,5.13-2.3.47-.13.95-.2,1.4-.36h0a1.25,1.25,0,0,0,.66-.3,2,2,0,0,1,1.07-.58c.52-.05,1.06-.06,1.58-.08-.05-.19-.11-.37-.16-.56s-.1-.3-.14-.46a2.87,2.87,0,0,1-.86.66,1,1,0,0,1-1-.06,2,2,0,0,1-.31-.34,2,2,0,0,0-.93-.5l0,0a4.46,4.46,0,0,0-2.18-.13c-1,.18-2,.6-3.07.8a3.92,3.92,0,0,1-3.06-.43A5.1,5.1,0,0,1,280.54,22c-.19-.25-.37-.51-.56-.77a2.67,2.67,0,0,0,.77,2.93,3.78,3.78,0,0,0,1.5.81h-.77a7.25,7.25,0,0,0-2.32.29,2.46,2.46,0,0,0-1.61,1.59l3.13,0a2.77,2.77,0,0,0-.37.22A3.25,3.25,0,0,0,278.86,29.29Z" transform="translate(-209.25 -9.5)"/><rect class="cls-6" x="148.6" y="17.35" width="2.02" height="3.15"/><rect class="cls-7" x="150.61" y="17.35" width="4.33" height="3.15"/><rect class="cls-6" x="158.88" y="17.35" width="2.02" height="3.15"/><rect class="cls-7" x="160.9" y="17.35" width="4.33" height="3.15"/><rect class="cls-8" x="145.56" y="19.86" width="7.34" height="40.61"/><rect class="cls-9" x="152.9" y="19.86" width="15.77" height="40.61"/><rect class="cls-10" x="148.16" y="22.15" width="2.14" height="2.09"/><rect class="cls-10" x="148.16" y="29.07" width="2.14" height="2.09"/><rect class="cls-10" x="148.16" y="35.99" width="2.14" height="2.09"/><rect class="cls-2" x="154.72" y="36.93" width="3.49" height="2.78"/><rect class="cls-2" x="159.16" y="36.93" width="3.49" height="2.78"/><rect class="cls-2" x="163.59" y="36.93" width="3.49" height="2.78"/><rect class="cls-2" x="154.72" y="43.75" width="3.49" height="2.78"/><rect class="cls-2" x="159.16" y="43.75" width="3.49" height="2.78"/><rect class="cls-2" x="163.59" y="43.75" width="3.49" height="2.78"/><polygon class="cls-8" points="141.69 0 137.1 0 135.82 39.72 142.97 39.72 141.69 0"/><path class="cls-7" d="M330.6,64.52h-3.67v-3A10.28,10.28,0,0,1,337.2,51.23H346v3.66H337.2a6.61,6.61,0,0,0-6.6,6.6Z" transform="translate(-209.25 -9.5)"/><rect class="cls-7" x="136.73" y="38.38" width="10.14" height="12.25"/><rect class="cls-6" x="131.73" y="38.38" width="7.91" height="12.25"/><rect class="cls-11" x="126.24" y="48.89" width="26.31" height="12.25"/><rect class="cls-12" x="152.55" y="48.89" width="26.31" height="12.25"/><path class="cls-7" d="M382.91,37.7a3.35,3.35,0,0,0-3.35,3.35V58.39h6.7V41.05A3.35,3.35,0,0,0,382.91,37.7Z" transform="translate(-209.25 -9.5)"/><rect class="cls-6" x="130.41" y="40.72" width="1.32" height="5.59"/><rect class="cls-6" x="116.71" y="53.06" width="5.59" height="1.32"/><rect class="cls-13" x="133.36" y="40.23" width="4.34" height="1.41"/><rect class="cls-13" x="141.35" y="40.23" width="4.34" height="1.41"/><rect class="cls-13" x="141.35" y="42.81" width="4.34" height="1.41"/><rect class="cls-13" x="141.35" y="45.4" width="4.34" height="1.41"/><rect class="cls-13" x="133.36" y="42.81" width="4.34" height="1.41"/><rect class="cls-13" x="133.36" y="45.4" width="4.34" height="1.41"/><rect class="cls-6" x="112.54" y="54.38" width="13.76" height="6.77"/><rect class="cls-13" x="114.81" y="56.53" width="3.07" height="2.47"/><rect class="cls-13" x="120.15" y="56.53" width="3.07" height="2.47"/><rect class="cls-13" x="168.67" y="53.82" width="7.96" height="7.35"/><rect class="cls-8" x="168.93" y="54.02" width="3.54" height="7.15"/><rect class="cls-8" x="172.8" y="54.02" width="3.54" height="7.15"/><rect class="cls-13" x="156.15" y="53.82" width="7.96" height="7.35"/><rect class="cls-8" x="156.41" y="54.02" width="3.54" height="7.15"/><rect class="cls-8" x="160.28" y="54.02" width="3.54" height="7.15"/><rect class="cls-13" x="127.98" y="51" width="2.88" height="2.92"/><rect class="cls-13" x="132" y="51" width="2.88" height="2.92"/><rect class="cls-13" x="136.02" y="51" width="2.88" height="2.92"/><rect class="cls-13" x="140.04" y="51" width="2.88" height="2.92"/><rect class="cls-13" x="144.06" y="51" width="2.88" height="2.92"/><rect class="cls-13" x="148.08" y="51" width="2.88" height="2.92"/><rect class="cls-13" x="127.98" y="55.94" width="2.88" height="2.92"/><rect class="cls-13" x="132" y="55.94" width="2.88" height="2.92"/><rect class="cls-13" x="136.02" y="55.94" width="2.88" height="2.92"/><rect class="cls-13" x="140.04" y="55.94" width="2.88" height="2.92"/><rect class="cls-13" x="144.06" y="55.94" width="2.88" height="2.92"/><rect class="cls-13" x="148.08" y="55.94" width="2.88" height="2.92"/><circle class="cls-13" cx="165.95" cy="52.29" r="1.04"/><rect class="cls-6" x="169.72" y="32.55" width="7.79" height="1.34"/><rect class="cls-6" x="169.72" y="39.03" width="7.79" height="1.33"/><rect class="cls-6" x="169.72" y="45.51" width="7.79" height="1.34"/><rect class="cls-9" x="135.82" y="13.32" width="7.15" height="1.83"/><rect class="cls-9" x="135.27" y="26.61" width="8.25" height="1.83"/><path class="cls-2" d="M371.5,40.12a3.14,3.14,0,0,1-1.35.31,3.07,3.07,0,0,1-3.07-3.07h-1.73a4.79,4.79,0,0,0,7.72,3.81l.71.47.22-3.45-3.1,1.53Z" transform="translate(-209.25 -9.5)"/><path class="cls-2" d="M368.81,34.61a2.94,2.94,0,0,1,1.34-.32,3.07,3.07,0,0,1,3.07,3.07H375a4.81,4.81,0,0,0-4.81-4.8,4.76,4.76,0,0,0-2.92,1l-.7-.47-.22,3.45,3.1-1.53Z" transform="translate(-209.25 -9.5)"/><path class="cls-2" d="M371.51,37.36A1.36,1.36,0,1,1,370.15,36,1.36,1.36,0,0,1,371.51,37.36Z" transform="translate(-209.25 -9.5)"/><polygon class="cls-11" points="180.71 101.76 177.27 117.64 165.06 122.44 166.75 110.19 151.48 73.73 166.75 73.73 180.71 101.76"/><polygon class="cls-12" points="170.54 109.7 157.01 77.42 164.47 77.42 176.84 102.24 174.09 114.93 169.57 116.71 170.54 109.7"/><polygon class="cls-8" points="166.75 110.19 165.06 122.44 85.93 122.44 85.93 108.66 161.61 110.1 166.75 110.19"/><polygon class="cls-14" points="86.31 76.88 82.83 94.96 82.83 120.16 86.31 120.16 86.31 76.88"/><polygon class="cls-11" points="166.75 110.19 161.65 110.19 85.93 110.08 85.93 73.73 151.48 73.73 166.75 110.19"/><polygon class="cls-12" points="89.61 106.4 89.61 77.42 149.02 77.42 161.2 106.5 89.61 106.4"/><path class="cls-7" d="M365.47,129.65a5.53,5.53,0,1,1-5.53-5.53A5.52,5.52,0,0,1,365.47,129.65Z" transform="translate(-209.25 -9.5)"/><path class="cls-14" d="M360,121a8.68,8.68,0,1,0,8.66,8.68A8.67,8.67,0,0,0,360,121Zm0,14a5.34,5.34,0,1,1,5.34-5.33A5.34,5.34,0,0,1,359.94,135Z" transform="translate(-209.25 -9.5)"/><path class="cls-13" d="M363.29,129.65a3.35,3.35,0,1,1-3.35-3.34A3.35,3.35,0,0,1,363.29,129.65Z" transform="translate(-209.25 -9.5)"/><path class="cls-7" d="M345.58,129.65a5.53,5.53,0,1,1-5.53-5.53A5.53,5.53,0,0,1,345.58,129.65Z" transform="translate(-209.25 -9.5)"/><path class="cls-14" d="M340.05,121a8.68,8.68,0,1,0,8.67,8.68A8.67,8.67,0,0,0,340.05,121Zm0,14a5.34,5.34,0,1,1,5.34-5.33A5.32,5.32,0,0,1,340,135Z" transform="translate(-209.25 -9.5)"/><path class="cls-13" d="M343.39,129.65a3.35,3.35,0,1,1-3.34-3.34A3.35,3.35,0,0,1,343.39,129.65Z" transform="translate(-209.25 -9.5)"/><rect class="cls-14" x="90.44" y="111.96" width="13.13" height="8.56"/><rect class="cls-11" x="143.02" y="75.38" width="4.28" height="33.28"/><rect class="cls-11" x="123.35" y="75.38" width="4.28" height="33.28"/><rect class="cls-11" x="103.68" y="75.38" width="4.28" height="33.28"/><polygon class="cls-9" points="117.23 117.16 110.25 117.16 111.32 69.36 116.16 69.36 117.23 117.16"/><polygon class="cls-8" points="120.9 68.63 120.9 71.31 106.58 71.31 106.58 68.63 103.98 68.63 103.98 71.31 103.98 72.59 103.98 74.77 123.5 74.77 123.5 72.59 123.5 71.31 123.5 68.63 120.9 68.63"/><rect class="cls-7" x="112.82" y="74.77" width="1.84" height="22.57"/><rect class="cls-11" x="368.61" y="92.86" width="11.36" height="2.65" transform="translate(-211.9 167.68) rotate(-26.54)"/><rect class="cls-11" x="372.52" y="102.96" width="11.36" height="2.65" transform="translate(-216 170.49) rotate(-26.54)"/><rect class="cls-11" x="376.17" y="112.64" width="11.36" height="2.65" transform="translate(-219.93 173.15) rotate(-26.54)"/><path class="cls-11" d="M365.21,83.23a3.8,3.8,0,1,1-3.8-3.79A3.8,3.8,0,0,1,365.21,83.23Z" transform="translate(-209.25 -9.5)"/><path class="cls-12" d="M363.37,83.23a2,2,0,1,1-2-2A2,2,0,0,1,363.37,83.23Z" transform="translate(-209.25 -9.5)"/><polygon class="cls-12" points="83.88 122.79 52.17 122.79 57.93 78.52 83.88 78.52 83.88 122.79"/><polygon class="cls-12" points="83.88 91.89 83.88 122.8 43.92 122.8 43.92 101.75 55.27 98.94 83.88 91.89"/><rect class="cls-12" x="54.71" y="78.52" width="29.17" height="4.01"/><rect class="cls-7" x="41.2" y="116.44" width="10.97" height="6.35"/><rect class="cls-14" x="43.91" y="113.6" width="3.92" height="1.64"/><rect class="cls-14" x="43.91" y="110.85" width="3.92" height="1.64"/><path class="cls-15" d="M259.35,118.43h-6.18v-4.77h4.15a2.14,2.14,0,0,1,2,2.22Z" transform="translate(-209.25 -9.5)"/><polygon class="cls-11" points="55.27 98.94 55.27 103.03 43.92 103.03 43.92 101.75 55.27 98.94"/><path class="cls-7" d="M280.86,129.65a5.53,5.53,0,1,1-5.53-5.53A5.53,5.53,0,0,1,280.86,129.65Z" transform="translate(-209.25 -9.5)"/><path class="cls-14" d="M275.33,121a8.68,8.68,0,1,0,8.67,8.68A8.68,8.68,0,0,0,275.33,121Zm0,14a5.34,5.34,0,1,1,5.34-5.33A5.33,5.33,0,0,1,275.32,135Z" transform="translate(-209.25 -9.5)"/><path class="cls-13" d="M278.67,129.65a3.35,3.35,0,1,1-3.34-3.34A3.34,3.34,0,0,1,278.67,129.65Z" transform="translate(-209.25 -9.5)"/><polygon class="cls-16" points="77.24 82.52 59.26 82.52 57.11 99.1 77.24 99.1 77.24 82.52"/><rect class="cls-12" x="62.73" y="81.03" width="1.81" height="19.63"/><path class="cls-14" d="M223.88,119.93l.54-3-.12-1-.42-3.37,1.17-4.74-.81-5.91,1.15-5.53A42.55,42.55,0,0,1,232,88.71h5.15c1.52,1.69,2.3,2.7,3.33,4,.63.82,1.36,1.76,2.43,3l1.81,5.53-.89,6.39,1.68,6.08-.45,3.49.87,2.64Z" transform="translate(-209.25 -9.5)"/><polygon class="cls-14" points="29.48 72.66 27.86 79.22 22.72 79.22 21.1 72.66 29.48 72.66"/><polygon class="cls-14" points="28.22 71.96 23.11 71.96 24.1 79.22 27.23 79.22 28.22 71.96"/><path class="cls-17" d="M245.9,119.93H229.38l4.48-3.43,7.17-1-.62-2.31L243,113l-2.23-3.8.85-3.3-4.3,1.76,3.08-4.52,2.34-1.53-3.41-2,3-2.93-1.82-3.89c.63.82,1.36,1.76,2.43,3l1.81,5.53-.89,6.39,1.68,6.08-.45,3.49Z" transform="translate(-209.25 -9.5)"/><path class="cls-18" d="M228.39,93.81l-1.12,2.75,1.51,2.63-1.91-1.28-1.17,3.64.78,3.81,2,3.08-1.23,1.13-2.47,4.65-.5,1.69-.42-3.37,1.17-4.74-.81-5.91,1.15-5.53c3.35-4.64,5-6.28,6.05-7.18L231.8,88l-1.45-5.88L232.87,89,230,93.81Z" transform="translate(-209.25 -9.5)"/><polygon class="cls-17" points="28.27 79.68 22.19 79.68 22.55 78.54 28.03 78.54 28.27 79.68"/><polygon class="cls-17" points="29.48 72.66 27.86 79.22 26.58 79.11 27.99 72.66 29.48 72.66"/><path class="cls-14" d="M209.25,119.93l.64-3.51-.15-1.21-.49-4,1.38-5.56-.95-6.94L211,92.26c3.94-5.45,6.45-7.92,7.73-9h6c1.8,2,2.71,3.17,3.91,4.74.75,1,1.61,2.07,2.85,3.59l2.14,6.48-1.05,7.5,2,7.14-.53,4.1,1,3.1Z" transform="translate(-209.25 -9.5)"/><polygon class="cls-14" points="17.44 66.08 15.54 73.78 9.5 73.78 7.6 66.08 17.44 66.08"/><polygon class="cls-14" points="15.96 65.26 9.97 65.26 11.12 73.78 14.8 73.78 15.96 65.26"/><path class="cls-17" d="M235.11,119.93h-19.4l7.66-2.4,6-2.86L227,114l4.64-2.23-1.19-5.19h-3.26l-1.93,1.86.56-3.33,3.74-1.42,1.68-5-1.08-6L228.7,88c.75,1,1.61,2.07,2.85,3.59l2.14,6.48-1.05,7.5,2,7.14-.53,4.1Z" transform="translate(-209.25 -9.5)"/><path class="cls-18" d="M214.54,89.27l-1.31,3.23L215,95.59l-2.24-1.51-1.38,4.27.92,4.48,2.37,3.61-1.45,1.32-2.89,5.47-.6,2-.49-4,1.38-5.56-.95-6.94L211,92.26c3.94-5.45,5.83-7.38,7.11-8.44l.43-1.33-1.71-6.91,3,8-3.42,5.69Z" transform="translate(-209.25 -9.5)"/><polygon class="cls-17" points="16.02 74.33 8.88 74.33 9.3 72.99 15.73 72.99 16.02 74.33"/><polygon class="cls-17" points="17.44 66.08 15.54 73.78 13.2 73.78 15.69 66.08 17.44 66.08"/><path class="cls-19" d="M430.1,116.4c0-1,1-1.75,2.35-1.75s2.35.77,2.35,1.75-1,1.75-2.35,1.75S430.1,117.38,430.1,116.4Zm.84,0c0,.49.71.92,1.51.92s1.52-.43,1.52-.92-.71-.91-1.52-.91S430.94,115.91,430.94,116.4Z" transform="translate(-209.25 -9.5)"/><path class="cls-19" d="M424.58,119.83v-1.72c0-2.34,15.74-2.34,15.74,0v1.72Z" transform="translate(-209.25 -9.5)"/><rect class="cls-20" x="215.33" y="108.61" width="15.74" height="1.72"/><path class="cls-21" d="M397.92,117.64c-.16,0-.4.13-.38,1.71h7.84C405.38,117.2,399.8,117.14,397.92,117.64Z" transform="translate(-209.25 -9.5)"/><rect class="cls-22" x="188.28" y="109.67" width="7.84" height="0.66"/><path class="cls-14" d="M425.45,80.56l-1-.82-.23-.37-.76-1.19L421.85,77l-1.31-2.11-1.84-1.48a17.93,17.93,0,0,0-4.15-.72L412.9,74c0,1,0,1.48,0,2.19,0,.43,0,.93,0,1.62l.89,2.27,2,1.82,1.07,2.4,1.07,1,.43,1.08Z" transform="translate(-209.25 -9.5)"/><polygon class="cls-14" points="201.38 62.84 203.64 64.52 205.3 63.16 204.08 60.61 201.38 62.84"/><polygon class="cls-14" points="201.6 62.28 203.24 60.92 204.85 63.52 203.84 64.36 201.6 62.28"/><path class="cls-17" d="M418.36,86.41,423.68,82l-2.36.08-2.58,1.57-.42-.91-.86.63-.29-1.81L416,80.74l1.85-.57-2.19-.64-1.16.13.56-1.57-1.74-.15-.45-1.73c0,.43,0,.93,0,1.62l.89,2.27,2,1.82,1.07,2.4,1.07,1Z" transform="translate(-209.25 -9.5)"/><path class="cls-18" d="M417.06,73.34l1.09.59.21,1.25.28-.92,1.34.86.76,1.44.17,1.53.7,0,2,.85.61.4-.76-1.19L421.85,77l-1.31-2.11-1.84-1.48a15.67,15.67,0,0,0-3.86-.71l-.41-.27-1.1-2.28,1,2.87,2.22.78Z" transform="translate(-209.25 -9.5)"/><polygon class="cls-17" points="203.63 64.78 205.59 63.16 205.17 62.89 203.41 64.35 203.63 64.78"/><polygon class="cls-17" points="201.38 62.84 203.64 64.52 204.03 64.15 201.86 62.45 201.38 62.84"/><path class="cls-14" d="M404.58,117.64c-.17,0-.41.13-.39,1.71H412C412,117.2,406.46,117.14,404.58,117.64Z" transform="translate(-209.25 -9.5)"/><rect class="cls-6" x="194.94" y="109.67" width="7.84" height="0.66"/><path class="cls-23" d="M400,74.91l0-3.4c1.21.06,2.83.11,3.11.07l.29,4.2S399.29,75.63,400,74.91Z" transform="translate(-209.25 -9.5)"/><path class="cls-8" d="M400,74.91l3.42.87s2.77,3.67,2.83,6.37c0,.09-.18,6.85-1,10.08L398.74,91C398,84.37,397.11,77.94,400,74.91Z" transform="translate(-209.25 -9.5)"/><path class="cls-24" d="M399.33,73a6.83,6.83,0,0,1-.71-2.11c-.31-3.33,2-3.46,3.26-3.62,1.44-.12,2.92.68,3.28,2.87-.05.23-.11.42-.11.42l.62,1.17a.34.34,0,0,1-.19.5l-.31.13c0,.22.17,1.17.17,1.17.05.57-.16,1.36-.84,1.43l-.72.07a2.65,2.65,0,0,1-2.43-2.32C400.82,72.66,399.59,73.41,399.33,73Z" transform="translate(-209.25 -9.5)"/><path class="cls-25" d="M400.06,73.57c2.3.21.72-2.19.72-2.19s.61.74.82.94a6,6,0,0,0,.68-.12c-.22-2.83-.93-4,2.26-3.76.59-.18.69-2.16-3-1.57a3.16,3.16,0,0,0-2.92,3C398.5,71.49,398.71,73.31,400.06,73.57Z" transform="translate(-209.25 -9.5)"/><path class="cls-24" d="M400.43,71.64c.07.52.58,1.06.92,1s.25-.46.19-1c0-.34,0-.84-.41-.9S400.33,70.88,400.43,71.64Z" transform="translate(-209.25 -9.5)"/><path class="cls-24" d="M408,81.35l7.15-1.26.09,1.51-6.56,2.72a1.52,1.52,0,0,1-1.81-1.13v0A1.51,1.51,0,0,1,408,81.35Z" transform="translate(-209.25 -9.5)"/><path class="cls-24" d="M400.14,80.06l7.58,4.2,1.56-2.56-7.07-4.46a1.71,1.71,0,0,0-2.45.38S398.73,79.23,400.14,80.06Z" transform="translate(-209.25 -9.5)"/><path class="cls-23" d="M414.71,80.47c0-.12-.07-.24-.11-.35a5.22,5.22,0,0,0,.77-1.53c0-.17.17-.38.41-.32h0c.32,0,.26.46.23.64a8.77,8.77,0,0,1-1,2.17A6.57,6.57,0,0,1,414.71,80.47Z" transform="translate(-209.25 -9.5)"/><path class="cls-23" d="M416.27,79.54h0a.32.32,0,0,1,.17-.42l2.13-1a.32.32,0,0,1,.42.17h0a.33.33,0,0,1-.17.43l-2.12,1A.33.33,0,0,1,416.27,79.54Z" transform="translate(-209.25 -9.5)"/><path class="cls-23" d="M416.35,80.1h0a.34.34,0,0,1,.23-.4l2.55-.69a.32.32,0,0,1,.39.23h0a.33.33,0,0,1-.23.4l-2.54.69A.32.32,0,0,1,416.35,80.1Z" transform="translate(-209.25 -9.5)"/><path class="cls-23" d="M416.52,80.65h0a.32.32,0,0,1,.27-.37l2.41-.38a.32.32,0,0,1,.37.27h0a.32.32,0,0,1-.27.36l-2.42.39A.32.32,0,0,1,416.52,80.65Z" transform="translate(-209.25 -9.5)"/><path class="cls-23" d="M416.69,81.19h0a.28.28,0,0,1,.27-.3l2-.11a.28.28,0,0,1,.29.27h0a.28.28,0,0,1-.27.3l-2,.11A.29.29,0,0,1,416.69,81.19Z" transform="translate(-209.25 -9.5)"/><path class="cls-24" d="M416.61,79l-.61.26h0l-.71.3c-.48.21-1,.67-.8,1.15l.09.43a1.33,1.33,0,0,0,1.45.75l1-.31h0l.42-.18a.29.29,0,0,0,.15-.37h0a.3.3,0,0,0-.38-.15l.1,0a.32.32,0,0,0,.17-.42h0a.32.32,0,0,0-.42-.17l.09,0a.32.32,0,0,0,.17-.42h0a.33.33,0,0,1-.26-.6h0A.32.32,0,0,0,416.61,79Z" transform="translate(-209.25 -9.5)"/><rect class="cls-26" x="204.83" y="81.54" width="15.74" height="28.89"/><rect class="cls-7" x="204.83" y="81.54" width="15.74" height="2.74"/><path class="cls-7" d="M426.21,117.64a.9.9,0,0,0,.91.9h0a.9.9,0,0,0,.9-.9v-22a.9.9,0,0,0-.9-.9h0a.9.9,0,0,0-.91.9Z" transform="translate(-209.25 -9.5)"/><path class="cls-7" d="M422.77,117.64a.9.9,0,0,0,.91.9h0a.9.9,0,0,0,.9-.9v-22a.9.9,0,0,0-.9-.9h0a.9.9,0,0,0-.91.9Z" transform="translate(-209.25 -9.5)"/><path class="cls-7" d="M419.33,117.64a.9.9,0,0,0,.91.9h0a.9.9,0,0,0,.9-.9v-22a.9.9,0,0,0-.9-.9h0a.9.9,0,0,0-.91.9Z" transform="translate(-209.25 -9.5)"/><path class="cls-7" d="M415.89,117.64a.9.9,0,0,0,.91.9h0a.9.9,0,0,0,.9-.9v-22a.9.9,0,0,0-.9-.9h0a.9.9,0,0,0-.91.9Z" transform="translate(-209.25 -9.5)"/><path class="cls-9" d="M402.17,77.09l3.25,2.17-1.65,2.81L400,80.14C398.06,79,399.35,75.43,402.17,77.09Z" transform="translate(-209.25 -9.5)"/><path class="cls-14" d="M398.92,94.54a4.92,4.92,0,0,0,0,1l.15,1.11,1.07,8.07a2.56,2.56,0,0,0,.05.27,2.37,2.37,0,0,0,2.61,1.86h.05a2.47,2.47,0,0,0,2-2.81l-.69-5.2-.52-4a3,3,0,0,0-.53-1.63,2.37,2.37,0,0,0-1.61-1A2.3,2.3,0,0,0,398.92,94.54Z" transform="translate(-209.25 -9.5)"/><path class="cls-14" d="M397.54,118.38l2.63-14.09a2.35,2.35,0,0,1,2.87-1.8h0a2.5,2.5,0,0,1,1.71,3l-2.55,12Z" transform="translate(-209.25 -9.5)"/><path class="cls-6" d="M400.19,94.67a3.71,3.71,0,0,0,.18,1l.29,1.07,2.16,7.83a1.06,1.06,0,0,0,.09.25,2.33,2.33,0,0,0,2.83,1.45l.05,0a2.5,2.5,0,0,0,1.62-3.08l-1.39-5L405,94.25a2.9,2.9,0,0,0-.73-1.52,2.34,2.34,0,0,0-4,1.94Z" transform="translate(-209.25 -9.5)"/><path class="cls-6" d="M404.19,118.6l-1.31-14a2.46,2.46,0,0,1,2.14-2.71h.05a2.4,2.4,0,0,1,2.57,2.24l1,13.24Z" transform="translate(-209.25 -9.5)"/><path class="cls-6" d="M401.62,97.3l3.6.23v-5.3L398.74,91l-.14,2.64A3.34,3.34,0,0,0,401.62,97.3Z" transform="translate(-209.25 -9.5)"/><path class="cls-8" d="M275.8,31.19A29.15,29.15,0,0,0,258.59,35a1.18,1.18,0,0,0-.59,1.28l.2,1L277.09,33l-.21-.93A1.18,1.18,0,0,0,275.8,31.19Z" transform="translate(-209.25 -9.5)"/><polygon class="cls-9" points="72.39 56.98 72.57 58.08 70.33 58.58 69.06 57.72 58.76 59.99 50.52 30.81 67.6 27.04 72.39 56.98"/><rect class="cls-8" x="257.72" y="36.03" width="20.79" height="2.41" transform="translate(-210.98 49.08) rotate(-12.43)"/><rect class="cls-9" x="257.31" y="34.46" width="20.79" height="1.81" transform="translate(-210.59 48.95) rotate(-12.43)"/><rect class="cls-8" x="262.76" y="38.62" width="1.75" height="4.59" transform="translate(-211.88 48.2) rotate(-12.43)"/><rect class="cls-8" x="272.92" y="36.38" width="1.75" height="4.59" transform="translate(-211.16 50.33) rotate(-12.43)"/><path class="cls-17" d="M247.92,46.3a4.09,4.09,0,0,0,0,.91l.14,1,1,7.38a2,2,0,0,0,.05.24,2.16,2.16,0,0,0,2.38,1.7h.05A2.27,2.27,0,0,0,253.4,55l-.63-4.75-.48-3.64a2.78,2.78,0,0,0-.48-1.49,2.23,2.23,0,0,0-1.47-.91A2.12,2.12,0,0,0,247.92,46.3Z" transform="translate(-209.25 -9.5)"/><path class="cls-14" d="M249.08,46.42a4.5,4.5,0,0,0,.16.9l.28,1,2,7.16a2.09,2.09,0,0,0,.08.23A2.13,2.13,0,0,0,254.16,57h0a2.29,2.29,0,0,0,1.48-2.82l-1.27-4.61-1-3.53a2.68,2.68,0,0,0-.68-1.4,2.14,2.14,0,0,0-3.68,1.78Z" transform="translate(-209.25 -9.5)"/><path class="cls-21" d="M247,67.41c-.15,0-.37.12-.35,1.57h7.17C253.83,67,248.73,67,247,67.41Z" transform="translate(-209.25 -9.5)"/><rect class="cls-22" x="37.41" y="59.31" width="7.17" height="0.6"/><path class="cls-14" d="M253.09,67.41c-.15,0-.37.12-.35,1.57h7.17C259.91,67,254.81,67,253.09,67.41Z" transform="translate(-209.25 -9.5)"/><rect class="cls-22" x="43.49" y="59.31" width="7.17" height="0.6"/><path class="cls-17" d="M246.66,68.09l2.4-12.88a2.16,2.16,0,0,1,2.63-1.65h0a2.29,2.29,0,0,1,1.57,2.76L251,67.27Z" transform="translate(-209.25 -9.5)"/><path class="cls-14" d="M252.74,68.29l-1.19-12.78A2.24,2.24,0,0,1,253.5,53h0a2.19,2.19,0,0,1,2.35,2l.93,12.1Z" transform="translate(-209.25 -9.5)"/><path class="cls-14" d="M250.39,48.82l3.29.21V44.19l-5.92-1.1-.13,2.41A3.05,3.05,0,0,0,250.39,48.82Z" transform="translate(-209.25 -9.5)"/><path class="cls-23" d="M245.57,28.89,245,25.84c1.1-.15,2.56-.38,2.81-.47l1,3.72S245.08,29.66,245.57,28.89Z" transform="translate(-209.25 -9.5)"/><path class="cls-11" d="M246.41,45.73a1.12,1.12,0,0,0,1.27.79l2.41-.39,1-.15,2.69-.43a1.14,1.14,0,0,0,.94-1.32c-.61-3.79-2.25-9.83-2.26-9.91-.52-2.41-1.74-4.73-3.64-5.22a7.53,7.53,0,0,0-3.21-.2C242.69,30.5,244.62,39.79,246.41,45.73Z" transform="translate(-209.25 -9.5)"/><path class="cls-24" d="M244.73,26.57a5.85,5.85,0,0,1-.42-2c.07-3,2.21-2.92,3.34-2.93a2.75,2.75,0,0,1,2.67,3c-.07.2-.14.37-.14.37l.44,1.13a.32.32,0,0,1-.23.44l-.29.08c0,.2,0,1.08,0,1.08,0,.52-.29,1.21-.92,1.21l-.66,0a2.42,2.42,0,0,1-2-2.36C246.11,26.48,244.92,27,244.73,26.57Z" transform="translate(-209.25 -9.5)"/><path class="cls-27" d="M244.28,24.45a6.68,6.68,0,0,0,0,.89h0c0,.89.33,1.64,1.07,1.88,1,.2,1.22-.2,1.22-.69h0a3,3,0,0,0-.31-1.18c.1.15.47.72.61.9h0l.64,0c0-1,0-1.85.08-2.41a1.1,1.1,0,0,1,.06-.26h0a.66.66,0,0,1,.13-.25.74.74,0,0,1,.39-.3,1.48,1.48,0,0,1,.56-.1,4.89,4.89,0,0,1,.86.08l.36.06c.57-.1.87-1.88-2.59-1.75a2.93,2.93,0,0,0-2.86,2,2.14,2.14,0,0,0-.06.27.83.83,0,0,0,0,.15.43.43,0,0,1,0,.11C244.33,24,244.3,24.23,244.28,24.45Z" transform="translate(-209.25 -9.5)"/><path class="cls-24" d="M245.86,25.51c0,.48.42,1,.73,1s.28-.39.27-.87c0-.32.08-.77-.27-.86S245.85,24.81,245.86,25.51Z" transform="translate(-209.25 -9.5)"/><path class="cls-24" d="M254.88,33.26l6.28,2.16-.59,1.26-6.46-.74a1.38,1.38,0,0,1-.94-1.71v0A1.38,1.38,0,0,1,254.88,33.26Z" transform="translate(-209.25 -9.5)"/><path class="cls-23" d="M260.67,35.55a1.91,1.91,0,0,0,.06-.33,4.47,4.47,0,0,0,1.3-.88c.11-.11.31-.23.47-.07h0c.23.18,0,.48-.1.61a8.16,8.16,0,0,1-1.8,1.27A4.07,4.07,0,0,1,260.67,35.55Z" transform="translate(-209.25 -9.5)"/><path class="cls-23" d="M262.34,35.5h0a.29.29,0,0,1,.32-.27l2.13.17a.29.29,0,0,1,.26.32h0a.29.29,0,0,1-.32.26l-2.13-.16A.3.3,0,0,1,262.34,35.5Z" transform="translate(-209.25 -9.5)"/><path class="cls-23" d="M262.15,36h0a.3.3,0,0,1,.36-.21l2.34.57a.29.29,0,0,1,.21.36h0a.3.3,0,0,1-.36.21l-2.34-.57A.29.29,0,0,1,262.15,36Z" transform="translate(-209.25 -9.5)"/><path class="cls-23" d="M262,36.5h0a.29.29,0,0,1,.38-.18l2.1.77a.29.29,0,0,1,.17.38h0a.3.3,0,0,1-.38.17l-2.1-.76A.3.3,0,0,1,262,36.5Z" transform="translate(-209.25 -9.5)"/><path class="cls-23" d="M261.93,37h0a.26.26,0,0,1,.35-.11l1.68.81a.27.27,0,0,1,.12.35h0a.26.26,0,0,1-.35.11l-1.68-.81A.26.26,0,0,1,261.93,37Z" transform="translate(-209.25 -9.5)"/><path class="cls-24" d="M262.82,35.25l-.6-.06h0l-.7-.07c-.48,0-1.1.08-1.15.56l-.12.39a1.2,1.2,0,0,0,.83,1.23l.91.19h0l.42,0a.25.25,0,0,0,.28-.23h0a.25.25,0,0,0-.23-.28h.09a.3.3,0,0,0,.33-.27h0a.31.31,0,0,0-.27-.33h.09a.3.3,0,0,0,.33-.26h0a.31.31,0,0,0-.27-.32.3.3,0,0,0,.33-.26h0A.31.31,0,0,0,262.82,35.25Z" transform="translate(-209.25 -9.5)"/><polygon class="cls-12" points="38.26 23.17 40.84 36.63 41.8 36.48 39.22 22.98 38.26 23.17"/><path class="cls-24" d="M246.61,33.49,254.13,36l1-2.57L248,30.6a1.57,1.57,0,0,0-2.14.76S245.19,33,246.61,33.49Z" transform="translate(-209.25 -9.5)"/><path class="cls-8" d="M247.91,30.48l3.29,1.39-1,2.8-3.69-1.09C244.55,32.88,245.1,29.47,247.91,30.48Z" transform="translate(-209.25 -9.5)"/><rect class="cls-8" x="247.55" y="36.68" width="2.75" height="0.92" transform="translate(-211.8 37.9) rotate(-10.82)"/><rect class="cls-8" x="248.59" y="42.13" width="2.75" height="0.92" transform="translate(-212.8 38.19) rotate(-10.82)"/><path class="cls-28" d="M244.28,24.45a6.68,6.68,0,0,0,0,.89l.13-.07,2.74-1.46.49-.26h0l.47-.25.17-.09-.12-.21-.25-.47-1.43.76-.49.26-.49.27-1.17.62Z" transform="translate(-209.25 -9.5)"/><path class="cls-11" d="M243.94,23.53h0a3.49,3.49,0,0,1,7,0h0Z" transform="translate(-209.25 -9.5)"/><rect class="cls-12" x="247.5" y="19.51" width="0.53" height="8.08" transform="translate(13.74 261.7) rotate(-89.72)"/><rect class="cls-12" x="248.61" y="22.33" width="1.06" height="0.86" transform="translate(15.92 262.3) rotate(-89.72)"/><rect class="cls-12" x="245.3" y="22.32" width="1.06" height="0.86" transform="translate(12.61 258.97) rotate(-89.72)"/><path class="cls-17" d="M270.71,68.49a2.39,2.39,0,1,1-2.39-2.39A2.39,2.39,0,0,1,270.71,68.49Z" transform="translate(-209.25 -9.5)"/><path class="cls-6" d="M269.6,68.49a1.28,1.28,0,0,1-2.56,0,1.28,1.28,0,0,1,2.56,0Z" transform="translate(-209.25 -9.5)"/><polygon class="cls-29" points="90.72 58.09 90.62 59.34 88.16 59.34 87.42 58.09 76.77 58.09 75.01 27.84 92.48 27.84 90.72 58.09"/><path class="cls-11" d="M301.86,31.88a29.16,29.16,0,0,0-17.61,0,1.19,1.19,0,0,0-.86,1.13v1h19.33V33A1.19,1.19,0,0,0,301.86,31.88Z" transform="translate(-209.25 -9.5)"/><rect class="cls-11" x="73.41" y="25.42" width="20.78" height="2.41"/><rect class="cls-29" x="73.41" y="23.82" width="20.78" height="1.81"/><rect class="cls-11" x="77.77" y="26.96" width="1.75" height="4.58"/><rect class="cls-11" x="88.16" y="26.96" width="1.75" height="4.58"/><path class="cls-17" d="M289,67.06a2.39,2.39,0,1,1-2.39-2.39A2.39,2.39,0,0,1,289,67.06Z" transform="translate(-209.25 -9.5)"/><path class="cls-6" d="M287.93,67.06a1.28,1.28,0,0,1-2.56,0,1.28,1.28,0,0,1,2.56,0Z" transform="translate(-209.25 -9.5)"/></g></g></svg>