<svg id="Layer_1" data-name="Layer 1" xmlns="http://www.w3.org/2000/svg" viewBox="0 0 570.15 168.57"><defs><style>.cls-1{fill:#152049;}.cls-2{fill:#17d3ff;}.cls-3{fill:#2f8cea;}</style></defs><title>Векторный смарт-объект5</title><rect class="cls-1" x="175.11" y="135.29" width="33.27" height="33.27"/><polygon class="cls-2" points="175.11 0 117.49 57.62 141.36 81.49 175.11 47.74 175.11 0"/><polygon class="cls-3" points="33.76 33.76 0 0 0 47.74 33.76 81.49 33.76 33.76"/><rect class="cls-3" x="360.18" y="156.94" width="33.76" height="33.76" transform="translate(-147.38 201.33) rotate(-45)"/><path class="cls-3" d="M456.71,138.72V123.46l-.12,0-1.73,4.21-3,6.75h-1.79L447,127.57l-1.66-4.11-.13,0v15.23h-2.61V116.86h2.64l3.61,8.26,2.08,5.06H451l2.14-5.12,3.54-8.2h2.61v21.86Z" transform="translate(-134.91 -116.19)"/><path class="cls-3" d="M463.18,138.72V116.86h2.61v16.58l.13,0,3.26-6.54,5.19-10.08h2.54v21.86h-2.64V122.08h-.09l-3.05,6.06-5.43,10.58Z" transform="translate(-134.91 -116.19)"/><path class="cls-3" d="M490.85,138.72v-10h-7.38v10h-2.6V116.86h2.6v9.61h7.38v-9.61h2.64v21.86Z" transform="translate(-134.91 -116.19)"/><path class="cls-3" d="M497.54,138.72V116.86h2.61v16.58l.12,0,3.27-6.54,5.18-10.08h2.54v21.86h-2.63V122.08h-.1l-3,6.06-5.44,10.58Z" transform="translate(-134.91 -116.19)"/><path class="cls-3" d="M527.19,134.67a5.33,5.33,0,0,1-2.19,3.15,6.72,6.72,0,0,1-3.87,1.09,6.87,6.87,0,0,1-2.67-.49,5.48,5.48,0,0,1-2-1.35,5.75,5.75,0,0,1-1.26-2.06,7.6,7.6,0,0,1-.44-2.63v-9.17a7.71,7.71,0,0,1,.42-2.58,5.9,5.9,0,0,1,1.25-2.06,5.81,5.81,0,0,1,2-1.36,6.86,6.86,0,0,1,2.71-.5A6.69,6.69,0,0,1,525,117.8a5.56,5.56,0,0,1,2.22,3.08l-2.48,1a3.58,3.58,0,0,0-1.21-1.92,3.68,3.68,0,0,0-2.37-.72,3.78,3.78,0,0,0-1.62.33,3.71,3.71,0,0,0-1.18.86,3.91,3.91,0,0,0-.72,1.26,4.37,4.37,0,0,0-.25,1.47v9.3a4.51,4.51,0,0,0,.25,1.51,4.07,4.07,0,0,0,.72,1.27,3.61,3.61,0,0,0,1.18.88,3.78,3.78,0,0,0,1.62.33,3.71,3.71,0,0,0,2.34-.72,3.59,3.59,0,0,0,1.24-2Z" transform="translate(-134.91 -116.19)"/><path class="cls-3" d="M535.54,119.22v19.5h-2.61v-19.5h-5v-2.36h12.59v2.36Z" transform="translate(-134.91 -116.19)"/><path class="cls-3" d="M542.61,138.72V116.86H554.2v2.45h-9v7.16h7.7v2.36h-7.7v7.35h9v2.54Z" transform="translate(-134.91 -116.19)"/><path class="cls-3" d="M569.49,123.43a8.65,8.65,0,0,1-.35,2.43,5.77,5.77,0,0,1-1.08,2.07,5.4,5.4,0,0,1-1.93,1.45,7,7,0,0,1-2.89.55H559.5v8.79h-2.6V116.86h6.21a6.47,6.47,0,0,1,4.71,1.62A6.63,6.63,0,0,1,569.49,123.43Zm-2.64,0a4.62,4.62,0,0,0-.88-3,3.53,3.53,0,0,0-2.92-1.1H559.5v8.17h3.58a4.19,4.19,0,0,0,1.82-.35,3.16,3.16,0,0,0,1.17-.91,3.46,3.46,0,0,0,.61-1.3A7,7,0,0,0,566.85,123.39Z" transform="translate(-134.91 -116.19)"/><path class="cls-3" d="M584.06,134.67a5.32,5.32,0,0,1-2.18,3.15,6.75,6.75,0,0,1-3.88,1.09,6.9,6.9,0,0,1-2.67-.49,5.48,5.48,0,0,1-2-1.35,6,6,0,0,1-1.26-2.06,7.6,7.6,0,0,1-.44-2.63v-9.17a7.72,7.72,0,0,1,.43-2.58,5.61,5.61,0,0,1,3.25-3.42,6.77,6.77,0,0,1,2.7-.5,6.7,6.7,0,0,1,3.85,1.09,5.59,5.59,0,0,1,2.21,3.08l-2.48,1a3.52,3.52,0,0,0-1.21-1.92,3.68,3.68,0,0,0-2.37-.72,3.78,3.78,0,0,0-1.62.33,3.71,3.71,0,0,0-1.18.86,3.91,3.91,0,0,0-.72,1.26,4.37,4.37,0,0,0-.25,1.47v9.3a4.51,4.51,0,0,0,.25,1.51,4.07,4.07,0,0,0,.72,1.27,3.61,3.61,0,0,0,1.18.88,3.78,3.78,0,0,0,1.62.33,3.71,3.71,0,0,0,2.34-.72,3.53,3.53,0,0,0,1.24-2Z" transform="translate(-134.91 -116.19)"/><path class="cls-3" d="M592.41,119.22v19.5h-2.6v-19.5h-5v-2.36h12.6v2.36Z" transform="translate(-134.91 -116.19)"/><path class="cls-3" d="M612,132.47a6.33,6.33,0,0,1-1.58,4.66,5.8,5.8,0,0,1-4.29,1.59h-6.69V116.86h6.26a5.27,5.27,0,0,1,5.93,5.75,6.16,6.16,0,0,1-.56,2.67,4.63,4.63,0,0,1-2.21,2v.09a3.73,3.73,0,0,1,1.45.72,4.4,4.4,0,0,1,1,1.18,5.41,5.41,0,0,1,.55,1.51A8.7,8.7,0,0,1,612,132.47Zm-9.95-13.25v7h3.42a3.47,3.47,0,0,0,2.75-1,3.77,3.77,0,0,0,.86-2.58,3.66,3.66,0,0,0-.86-2.53,3.56,3.56,0,0,0-2.75-.94Zm0,9.29v7.67h3.8a4.13,4.13,0,0,0,1.72-.32,2.78,2.78,0,0,0,1.1-.85,3.23,3.23,0,0,0,.58-1.24,6.09,6.09,0,0,0,.18-1.52,4.15,4.15,0,0,0-.84-2.68,3.35,3.35,0,0,0-2.81-1.06Z" transform="translate(-134.91 -116.19)"/><path class="cls-3" d="M627.52,132.34a7.29,7.29,0,0,1-.47,2.72,5.83,5.83,0,0,1-1.32,2.07,5.54,5.54,0,0,1-2,1.32,7,7,0,0,1-2.59.46,6.93,6.93,0,0,1-3-.57,5.3,5.3,0,0,1-2-1.52,6.14,6.14,0,0,1-1.11-2.21,10,10,0,0,1-.35-2.64v-8.76a7.87,7.87,0,0,1,.35-2.26,6,6,0,0,1,1.1-2.11,5.67,5.67,0,0,1,2-1.54,6.76,6.76,0,0,1,3-.59,6.68,6.68,0,0,1,2.87.56,5.83,5.83,0,0,1,2,1.49,6.22,6.22,0,0,1,1.16,2.09,7.65,7.65,0,0,1,.37,2.36Zm-2.67-9.1a4.79,4.79,0,0,0-.17-1.2,3.92,3.92,0,0,0-.6-1.32,4,4,0,0,0-1.15-1.08,3.46,3.46,0,0,0-1.86-.45,3.66,3.66,0,0,0-1.86.42,3.81,3.81,0,0,0-1.17,1,3.66,3.66,0,0,0-.61,1.33,5.48,5.48,0,0,0-.18,1.32l0,8.64a7.22,7.22,0,0,0,.2,1.77,3.81,3.81,0,0,0,.68,1.45,3.42,3.42,0,0,0,1.21,1,4.08,4.08,0,0,0,1.79.36,3.83,3.83,0,0,0,1.43-.27,3.18,3.18,0,0,0,1.17-.77,3.7,3.7,0,0,0,.78-1.22,4.23,4.23,0,0,0,.3-1.63Z" transform="translate(-134.91 -116.19)"/><path class="cls-3" d="M454.42,176.41H442.61V154.55h2.61V174h7.32V154.55h2.61V174h1.72v6.81h-2.45Z" transform="translate(-134.91 -116.19)"/><path class="cls-3" d="M459.6,176.41V154.55h2.61v16.58l.13,0,3.26-6.53,5.19-10.08h2.54v21.86h-2.64V159.76h-.09l-3.05,6.06-5.43,10.59Z" transform="translate(-134.91 -116.19)"/><path class="cls-3" d="M483.57,174.65h0a8.77,8.77,0,0,1-3.24-.77,5.6,5.6,0,0,1-2.15-1.82,7.68,7.68,0,0,1-1.19-2.91,19.45,19.45,0,0,1-.37-4.08,11.6,11.6,0,0,1,1.67-6.75,6.79,6.79,0,0,1,5.28-2.67h0v-1.1h2.6v1.1h.13a6.76,6.76,0,0,1,5.31,2.67,11.85,11.85,0,0,1,1.63,6.75,19,19,0,0,1-.38,4.05,7.44,7.44,0,0,1-1.21,2.84,5.61,5.61,0,0,1-2.15,1.79,10.53,10.53,0,0,1-3.2.9h-.13v1.76h-2.6Zm0-16.8a3.84,3.84,0,0,0-3.33,1.83,10.53,10.53,0,0,0-1.07,5.36,16.23,16.23,0,0,0,.31,3.51,6.67,6.67,0,0,0,.87,2.22A3.26,3.26,0,0,0,481.7,172a5.46,5.46,0,0,0,1.84.43Zm2.7,14.54a5.9,5.9,0,0,0,1.86-.41,3.31,3.31,0,0,0,1.43-1.16,6.18,6.18,0,0,0,.93-2.22,15.89,15.89,0,0,0,.33-3.56,9.83,9.83,0,0,0-1.16-5.39,4.07,4.07,0,0,0-3.39-1.8Z" transform="translate(-134.91 -116.19)"/><path class="cls-3" d="M509.13,161.11a8.67,8.67,0,0,1-.35,2.44,5.85,5.85,0,0,1-1.08,2.07,5.38,5.38,0,0,1-1.93,1.44,6.84,6.84,0,0,1-2.89.55h-3.74v8.8h-2.6V154.55h6.21a6.44,6.44,0,0,1,4.71,1.62A6.55,6.55,0,0,1,509.13,161.11Zm-2.64,0a4.6,4.6,0,0,0-.88-3,3.5,3.5,0,0,0-2.92-1.1h-3.55v8.16h3.58a4.19,4.19,0,0,0,1.82-.34,3.26,3.26,0,0,0,1.17-.91,3.44,3.44,0,0,0,.61-1.31A6.94,6.94,0,0,0,506.49,161.08Z" transform="translate(-134.91 -116.19)"/><path class="cls-3" d="M523.89,170a7.53,7.53,0,0,1-.47,2.72,6.32,6.32,0,0,1-1.32,2.07,5.58,5.58,0,0,1-2,1.32,7.19,7.19,0,0,1-2.59.45,7,7,0,0,1-3-.56,5.47,5.47,0,0,1-2-1.52,6,6,0,0,1-1.12-2.22,10,10,0,0,1-.34-2.64v-8.76a8,8,0,0,1,.34-2.26,6.12,6.12,0,0,1,1.1-2.1,5.61,5.61,0,0,1,2-1.54,7.63,7.63,0,0,1,5.86,0,5.67,5.67,0,0,1,2,1.49,6.13,6.13,0,0,1,1.16,2.09,7.6,7.6,0,0,1,.38,2.35Zm-2.67-9.11a5.3,5.3,0,0,0-.17-1.19,4.35,4.35,0,0,0-.6-1.32,3.85,3.85,0,0,0-1.15-1.08,3.42,3.42,0,0,0-1.86-.46,3.54,3.54,0,0,0-3,1.46,3.81,3.81,0,0,0-.62,1.34,6,6,0,0,0-.17,1.32l0,8.63a7.3,7.3,0,0,0,.21,1.78,3.82,3.82,0,0,0,.67,1.44,3.35,3.35,0,0,0,1.22,1,3.9,3.9,0,0,0,1.78.37,3.79,3.79,0,0,0,1.43-.27,3.27,3.27,0,0,0,1.17-.77,3.77,3.77,0,0,0,.79-1.23,4.19,4.19,0,0,0,.3-1.63Z" transform="translate(-134.91 -116.19)"/><path class="cls-3" d="M539.91,170.16a6.31,6.31,0,0,1-1.59,4.66,5.8,5.8,0,0,1-4.29,1.59h-6.69V154.55h6.27a5.26,5.26,0,0,1,5.92,5.74A6.1,6.1,0,0,1,539,163a4.51,4.51,0,0,1-2.2,2v.1a3.49,3.49,0,0,1,1.44.72,4.09,4.09,0,0,1,1,1.18,5.16,5.16,0,0,1,.55,1.5A8.16,8.16,0,0,1,539.91,170.16ZM530,156.9v7h3.42a3.49,3.49,0,0,0,2.75-1,3.74,3.74,0,0,0,.87-2.59,3.19,3.19,0,0,0-3.62-3.47Zm0,9.3v7.66h3.8a4.18,4.18,0,0,0,1.73-.31,2.86,2.86,0,0,0,1.1-.85,3.46,3.46,0,0,0,.58-1.24,6.68,6.68,0,0,0,.17-1.52,4.23,4.23,0,0,0-.83-2.69,3.39,3.39,0,0,0-2.81-1.05Z" transform="translate(-134.91 -116.19)"/><path class="cls-3" d="M555.39,170a7.53,7.53,0,0,1-.47,2.72,6.32,6.32,0,0,1-1.32,2.07,5.58,5.58,0,0,1-2,1.32,7.19,7.19,0,0,1-2.59.45,7,7,0,0,1-3-.56,5.47,5.47,0,0,1-2-1.52,6,6,0,0,1-1.12-2.22,10,10,0,0,1-.34-2.64v-8.76a8,8,0,0,1,.34-2.26,6.12,6.12,0,0,1,1.1-2.1,5.61,5.61,0,0,1,2-1.54,7.63,7.63,0,0,1,5.86,0,5.67,5.67,0,0,1,2,1.49,6.13,6.13,0,0,1,1.16,2.09,7.6,7.6,0,0,1,.38,2.35Zm-2.67-9.11a4.85,4.85,0,0,0-.18-1.19,4.09,4.09,0,0,0-.59-1.32,3.77,3.77,0,0,0-1.16-1.08,3.37,3.37,0,0,0-1.86-.46,3.51,3.51,0,0,0-3,1.46,3.81,3.81,0,0,0-.62,1.34,6,6,0,0,0-.17,1.32l0,8.63a7.3,7.3,0,0,0,.21,1.78,3.82,3.82,0,0,0,.67,1.44,3.35,3.35,0,0,0,1.22,1,3.9,3.9,0,0,0,1.78.37,3.83,3.83,0,0,0,1.43-.27,3.27,3.27,0,0,0,1.17-.77,3.77,3.77,0,0,0,.79-1.23,4.19,4.19,0,0,0,.3-1.63Z" transform="translate(-134.91 -116.19)"/><path class="cls-3" d="M561.45,157v19.41h-2.61V154.55h11.34V157Z" transform="translate(-134.91 -116.19)"/><path class="cls-3" d="M584.85,170a7.53,7.53,0,0,1-.47,2.72,6.32,6.32,0,0,1-1.32,2.07,5.58,5.58,0,0,1-2,1.32,7.19,7.19,0,0,1-2.59.45,6.93,6.93,0,0,1-3-.56,5.59,5.59,0,0,1-2-1.52,6.1,6.1,0,0,1-1.11-2.22,10,10,0,0,1-.35-2.64v-8.76a8,8,0,0,1,.35-2.26,6.12,6.12,0,0,1,1.1-2.1,5.61,5.61,0,0,1,2-1.54,7.61,7.61,0,0,1,5.85,0,5.7,5.7,0,0,1,2,1.49,6.13,6.13,0,0,1,1.16,2.09,7.6,7.6,0,0,1,.38,2.35Zm-2.67-9.11a4.85,4.85,0,0,0-.18-1.19,3.92,3.92,0,0,0-.6-1.32,3.63,3.63,0,0,0-1.15-1.08,3.37,3.37,0,0,0-1.86-.46,3.51,3.51,0,0,0-3,1.46,3.81,3.81,0,0,0-.62,1.34,5.43,5.43,0,0,0-.17,1.32l0,8.63a7.83,7.83,0,0,0,.2,1.78,4,4,0,0,0,.68,1.44,3.35,3.35,0,0,0,1.22,1,3.87,3.87,0,0,0,1.78.37,3.83,3.83,0,0,0,1.43-.27,3.45,3.45,0,0,0,1.17-.77,3.77,3.77,0,0,0,.79-1.23,4.19,4.19,0,0,0,.3-1.63Z" transform="translate(-134.91 -116.19)"/><path class="cls-3" d="M455.21,198.8a8.55,8.55,0,0,1-.35,2.43,5.68,5.68,0,0,1-1.08,2.07,5.4,5.4,0,0,1-1.93,1.45,7,7,0,0,1-2.89.55h-3.74v8.79h-2.61V192.23h6.22a6.47,6.47,0,0,1,4.71,1.62A6.63,6.63,0,0,1,455.21,198.8Zm-2.64,0a4.65,4.65,0,0,0-.88-3,3.54,3.54,0,0,0-2.92-1.1h-3.55v8.17h3.58a4.22,4.22,0,0,0,1.82-.35,3.24,3.24,0,0,0,1.17-.91,3.39,3.39,0,0,0,.61-1.3A6.94,6.94,0,0,0,452.57,198.77Z" transform="translate(-134.91 -116.19)"/><path class="cls-3" d="M467.17,214.09l-1.38-5h-7l-1.35,5H454.8l6.34-21.86h2.36l6.37,21.86Zm-3.58-13-1.22-4.84h-.13L461,201.09l-1.6,5.68h5.77Z" transform="translate(-134.91 -116.19)"/><path class="cls-3" d="M476.81,214.28a9,9,0,0,1-2.3-.29,5.86,5.86,0,0,1-1.92-.9,5.37,5.37,0,0,1-1.37-1.48,5.9,5.9,0,0,1-.72-2.07l2.48-.88a3.76,3.76,0,0,0,1.35,2.45,4.09,4.09,0,0,0,2.55.81,3.79,3.79,0,0,0,2.65-1,4.16,4.16,0,0,0,1.05-3.2,4.75,4.75,0,0,0-.8-2.85,2.92,2.92,0,0,0-2.56-1.12h-1.85V201.5h1.85a2.89,2.89,0,0,0,2.42-1,4.16,4.16,0,0,0,.82-2.64,3,3,0,0,0-1-2.52,3.78,3.78,0,0,0-2.47-.77,3.48,3.48,0,0,0-2.46.88,4.41,4.41,0,0,0-1.3,2.26l-2.52-.85a5.67,5.67,0,0,1,2.15-3.49,6.75,6.75,0,0,1,4.13-1.25,6.6,6.6,0,0,1,4.53,1.38,5.43,5.43,0,0,1,1.53,4.24A7.76,7.76,0,0,1,483,199a6.6,6.6,0,0,1-.42,1.4,4.9,4.9,0,0,1-.79,1.25,3.21,3.21,0,0,1-1.18.88v.13a4.05,4.05,0,0,1,1.42,1,4.61,4.61,0,0,1,.81,1.31,5.68,5.68,0,0,1,.38,1.44,11.58,11.58,0,0,1,.09,1.4,6.68,6.68,0,0,1-1.65,4.73A6.25,6.25,0,0,1,476.81,214.28Z" transform="translate(-134.91 -116.19)"/><path class="cls-3" d="M499.39,207.84a6.33,6.33,0,0,1-1.58,4.67,5.83,5.83,0,0,1-4.29,1.58h-6.69V192.23h6.27A5.27,5.27,0,0,1,499,198a6.1,6.1,0,0,1-.56,2.67,4.54,4.54,0,0,1-2.21,2v.09a3.61,3.61,0,0,1,1.45.73,4,4,0,0,1,1,1.17,5.22,5.22,0,0,1,.55,1.51A8.07,8.07,0,0,1,499.39,207.84Zm-9.95-13.25v7h3.42a3.5,3.5,0,0,0,2.75-1,3.77,3.77,0,0,0,.86-2.59,3.57,3.57,0,0,0-.86-2.52,3.53,3.53,0,0,0-2.75-.95Zm0,9.3v7.66h3.8a4.18,4.18,0,0,0,1.73-.32,2.93,2.93,0,0,0,1.1-.84,3.43,3.43,0,0,0,.58-1.25,6.61,6.61,0,0,0,.17-1.52,4.2,4.2,0,0,0-.83-2.68,3.39,3.39,0,0,0-2.81-1.05Z" transform="translate(-134.91 -116.19)"/><path class="cls-3" d="M502.69,214.09V192.23h2.61v16.59l.12,0,3.27-6.54,5.18-10.08h2.55v21.86h-2.64V197.45h-.1l-3,6.06-5.44,10.58Z" transform="translate(-134.91 -116.19)"/><path class="cls-3" d="M526,194.59v19.5h-2.6v-19.5h-5v-2.36H531v2.36Z" transform="translate(-134.91 -116.19)"/><path class="cls-3" d="M533,214.09V192.23h2.6v16.59l.13,0,3.27-6.54,5.18-10.08h2.54v21.86h-2.64V197.45H544l-3,6.06-5.43,10.58Z" transform="translate(-134.91 -116.19)"/><path class="cls-3" d="M560.22,204.39h-2.6a4.26,4.26,0,0,0-1.1.14,3.25,3.25,0,0,0-1.1.52,3.58,3.58,0,0,0-1,1.06,6.23,6.23,0,0,0-.73,1.79l-1.44,6.19h-2.76l1.57-6.56a9.4,9.4,0,0,1,.89-2.37,3.69,3.69,0,0,1,1.65-1.49,3.94,3.94,0,0,1-1.6-.79,4.43,4.43,0,0,1-1-1.21,4.89,4.89,0,0,1-.52-1.46,9.26,9.26,0,0,1-.14-1.57,8,8,0,0,1,.4-2.62,5.76,5.76,0,0,1,1.14-2,5,5,0,0,1,1.86-1.3,6.65,6.65,0,0,1,2.54-.46h6.53v21.86h-2.61ZM553,198.63a3.22,3.22,0,0,0,1,2.63,4.15,4.15,0,0,0,2.72.83h3.48v-7.5h-3.51a3.41,3.41,0,0,0-2.81,1.1A4.53,4.53,0,0,0,553,198.63Z" transform="translate(-134.91 -116.19)"/><path class="cls-3" d="M442.52,251.78V230h2.64v9.52h2.32a6.3,6.3,0,0,0,1-.1,2.83,2.83,0,0,0,1.05-.42,3.33,3.33,0,0,0,1-1,6.11,6.11,0,0,0,.75-1.71L453,230h2.48l-1.69,6.41a9.1,9.1,0,0,1-1.17,2.68,3.43,3.43,0,0,1-1.72,1.43,3.59,3.59,0,0,1,2,1.56,9.78,9.78,0,0,1,1.1,2.74l1.85,7h-2.73l-1.67-6.57a6.45,6.45,0,0,0-.7-1.77,3.83,3.83,0,0,0-.93-1,2.83,2.83,0,0,0-1.07-.47,6.34,6.34,0,0,0-1.16-.11h-2.48v10Z" transform="translate(-134.91 -116.19)"/><path class="cls-3" d="M469,251.78l-1.38-5h-7l-1.35,5h-2.67l6.34-21.86h2.36l6.37,21.86Zm-3.58-13L464.16,234H464l-1.22,4.81-1.6,5.68H467Z" transform="translate(-134.91 -116.19)"/><path class="cls-3" d="M478,241.77a27.15,27.15,0,0,1-.33,4.67,9.84,9.84,0,0,1-1,3,4.84,4.84,0,0,1-1.61,1.79,9.41,9.41,0,0,1-2.26,1c-.17-.34-.32-.67-.46-1s-.29-.68-.45-1a12.42,12.42,0,0,0,1.49-.87,3.7,3.7,0,0,0,1.14-1.24,6.53,6.53,0,0,0,.74-2.07,17.15,17.15,0,0,0,.27-3.39V229.92h11.3v21.86h-2.6V232.27H478Z" transform="translate(-134.91 -116.19)"/><path class="cls-3" d="M500.13,238.4l-2.68,8.45a14.45,14.45,0,0,1-1,2.68,5.44,5.44,0,0,1-1.13,1.51,3,3,0,0,1-1.22.67,6.27,6.27,0,0,1-1.32.19H491v-2.26h1.47a1.87,1.87,0,0,0,1.21-.45,3.89,3.89,0,0,0,1-1.65l.28-1c-.92-2.78-1.84-5.55-2.76-8.29s-1.84-5.5-2.76-8.29h2.7l2.35,7.41,1.76,5.62h.13l.39-1.3.69-2.31c.26-.88.54-1.82.85-2.82l.85-2.86.69-2.37c.2-.68.34-1.14.42-1.37h2.64C501.93,232.78,501,235.59,500.13,238.4Z" transform="translate(-134.91 -116.19)"/><path class="cls-3" d="M514.22,229.89h2.64v9.58h2a6.5,6.5,0,0,0,1-.1A2.8,2.8,0,0,0,521,239a3.37,3.37,0,0,0,1-1,5.2,5.2,0,0,0,.72-1.73l1.76-6.31h2.52l-1.73,6.41A8.37,8.37,0,0,1,524,239a3.51,3.51,0,0,1-1.74,1.43,3.59,3.59,0,0,1,2,1.56,10.09,10.09,0,0,1,1.13,2.74l1.82,7h-2.73l-1.67-6.57a6.26,6.26,0,0,0-.69-1.76,3.51,3.51,0,0,0-.91-1,2.76,2.76,0,0,0-1.08-.48,5.2,5.2,0,0,0-1.18-.13h-2.13v10h-2.64v-10h-2.17a5,5,0,0,0-1.16.13,2.85,2.85,0,0,0-1.07.48,4,4,0,0,0-.93,1,6.25,6.25,0,0,0-.7,1.76l-1.67,6.57h-2.73l1.85-7a9.78,9.78,0,0,1,1.1-2.74,3.59,3.59,0,0,1,2-1.56A3.07,3.07,0,0,1,507,239a11.05,11.05,0,0,1-1.09-2.68L504.17,230h2.48l1.76,6.31a5,5,0,0,0,.74,1.73,3.52,3.52,0,0,0,1,1,2.76,2.76,0,0,0,1.05.42,6.3,6.3,0,0,0,1,.1h2Z" transform="translate(-134.91 -116.19)"/><path class="cls-3" d="M541.82,247.73a5.27,5.27,0,0,1-2.18,3.15,6.83,6.83,0,0,1-3.88,1.09,7.13,7.13,0,0,1-2.67-.49,5.61,5.61,0,0,1-3.26-3.41,7.39,7.39,0,0,1-.44-2.64v-9.17a7.65,7.65,0,0,1,.42-2.57,5.66,5.66,0,0,1,3.25-3.43,7,7,0,0,1,2.7-.5,6.71,6.71,0,0,1,3.85,1.1,5.51,5.51,0,0,1,2.21,3.08l-2.48,1a3.53,3.53,0,0,0-1.21-1.91,3.65,3.65,0,0,0-2.37-.73,3.78,3.78,0,0,0-1.62.33,3.45,3.45,0,0,0-1.17.87,3.62,3.62,0,0,0-.73,1.25,4.74,4.74,0,0,0-.25,1.48v9.3a4.72,4.72,0,0,0,.25,1.5,3.85,3.85,0,0,0,.73,1.28,3.45,3.45,0,0,0,1.17.87,3.78,3.78,0,0,0,1.62.33,3.71,3.71,0,0,0,2.34-.72,3.47,3.47,0,0,0,1.24-1.95Z" transform="translate(-134.91 -116.19)"/><path class="cls-3" d="M544.49,251.78V230h2.64v9.52h2.32a6.3,6.3,0,0,0,1-.1,2.83,2.83,0,0,0,1-.42,3.33,3.33,0,0,0,1-1,6.11,6.11,0,0,0,.75-1.71L555,230h2.48l-1.69,6.41a9.1,9.1,0,0,1-1.17,2.68,3.43,3.43,0,0,1-1.72,1.43,3.59,3.59,0,0,1,2,1.56,9.78,9.78,0,0,1,1.1,2.74l1.85,7h-2.73l-1.67-6.57a6.45,6.45,0,0,0-.7-1.77,3.83,3.83,0,0,0-.93-1,2.83,2.83,0,0,0-1.07-.47,6.25,6.25,0,0,0-1.16-.11h-2.48v10Z" transform="translate(-134.91 -116.19)"/><path class="cls-3" d="M572.47,245.4a7.32,7.32,0,0,1-.47,2.72,5.92,5.92,0,0,1-1.32,2.07,5.54,5.54,0,0,1-2,1.32,7.23,7.23,0,0,1-2.59.46,7,7,0,0,1-3-.57,5.45,5.45,0,0,1-2-1.52,6.12,6.12,0,0,1-1.12-2.22,9.85,9.85,0,0,1-.34-2.64v-8.76A8,8,0,0,1,560,234a6.22,6.22,0,0,1,1.1-2.1,5.8,5.8,0,0,1,2-1.54,7.63,7.63,0,0,1,5.86,0,5.58,5.58,0,0,1,2,1.49,6.15,6.15,0,0,1,1.17,2.09,7.59,7.59,0,0,1,.37,2.35Zm-2.67-9.11a4.78,4.78,0,0,0-.17-1.19,4.35,4.35,0,0,0-.6-1.32,3.74,3.74,0,0,0-1.15-1.08,3.37,3.37,0,0,0-1.86-.46,3.56,3.56,0,0,0-1.86.43,3.62,3.62,0,0,0-1.78,2.37,5.48,5.48,0,0,0-.18,1.32l0,8.63a7.3,7.3,0,0,0,.21,1.78,3.84,3.84,0,0,0,.68,1.44,3.34,3.34,0,0,0,1.21,1,4.07,4.07,0,0,0,1.78.36,3.84,3.84,0,0,0,1.44-.27,3.19,3.19,0,0,0,1.16-.77,3.73,3.73,0,0,0,.79-1.22,4.28,4.28,0,0,0,.3-1.64Z" transform="translate(-134.91 -116.19)"/><path class="cls-3" d="M575.9,251.78V229.92h2.6V246.5l.13,0,3.26-6.53,5.19-10.08h2.54v21.86H587V235.13h-.09l-3,6.06-5.43,10.59Zm4.64-27.14a2.21,2.21,0,0,0,.19.66,2.49,2.49,0,0,0,.44.65,2.09,2.09,0,0,0,.68.48,1.9,1.9,0,0,0,.86.19,2.13,2.13,0,0,0,.94-.19,2,2,0,0,0,.69-.48,2.23,2.23,0,0,0,.43-.65,1.82,1.82,0,0,0,.14-.66H587a5.66,5.66,0,0,1-.3,1.32,3.66,3.66,0,0,1-.72,1.27,3.79,3.79,0,0,1-1.28,1,4.57,4.57,0,0,1-2,.39,4.7,4.7,0,0,1-2-.39,3.86,3.86,0,0,1-1.32-1,3.71,3.71,0,0,1-.74-1.27,4.27,4.27,0,0,1-.23-1.32Z" transform="translate(-134.91 -116.19)"/><path class="cls-3" d="M612.33,245.4a7.32,7.32,0,0,1-.48,2.72,6,6,0,0,1-1.31,2.07,5.66,5.66,0,0,1-2,1.32,7.23,7.23,0,0,1-2.59.46,6.93,6.93,0,0,1-2.95-.57,5.4,5.4,0,0,1-2-1.52,6.1,6.1,0,0,1-1.11-2.22,9.84,9.84,0,0,1-.35-2.64v-8.76a8,8,0,0,1,.35-2.26,6,6,0,0,1,1.1-2.1,5.67,5.67,0,0,1,2-1.54,6.78,6.78,0,0,1,3-.6,6.65,6.65,0,0,1,2.87.57,5.7,5.7,0,0,1,2,1.49,6.13,6.13,0,0,1,1.16,2.09,7.6,7.6,0,0,1,.38,2.35Zm-2.67-9.11a4.85,4.85,0,0,0-.18-1.19,3.92,3.92,0,0,0-.6-1.32,3.74,3.74,0,0,0-1.15-1.08,3.37,3.37,0,0,0-1.86-.46,3.56,3.56,0,0,0-1.86.43,3.91,3.91,0,0,0-1.17,1,3.78,3.78,0,0,0-.61,1.34,5.43,5.43,0,0,0-.17,1.32l0,8.63a7.83,7.83,0,0,0,.2,1.78,3.84,3.84,0,0,0,.68,1.44,3.42,3.42,0,0,0,1.21,1,4.08,4.08,0,0,0,1.79.36,3.83,3.83,0,0,0,1.43-.27,3.31,3.31,0,0,0,1.17-.77,3.89,3.89,0,0,0,.79-1.22,4.28,4.28,0,0,0,.3-1.64Z" transform="translate(-134.91 -116.19)"/><path class="cls-3" d="M618.35,239h3.55a8,8,0,0,1,2.92.47,5.24,5.24,0,0,1,2,1.29,5.1,5.1,0,0,1,1.14,2,7.65,7.65,0,0,1,.38,2.49,6.63,6.63,0,0,1-1.65,4.89,6.34,6.34,0,0,1-4.69,1.65h-6.28V229.92h10.86v2.42h-8.23Zm0,10.3h3.52a3.58,3.58,0,0,0,2.92-1.07,4.44,4.44,0,0,0,.88-2.92,5.47,5.47,0,0,0-.19-1.46,3.15,3.15,0,0,0-.62-1.24,3.07,3.07,0,0,0-1.18-.85,4.72,4.72,0,0,0-1.84-.31h-3.49Z" transform="translate(-134.91 -116.19)"/><path class="cls-3" d="M635.38,241.77a27.15,27.15,0,0,1-.33,4.67,9.84,9.84,0,0,1-1,3,5,5,0,0,1-1.61,1.79,9.31,9.31,0,0,1-2.27,1c-.16-.34-.32-.67-.45-1s-.29-.68-.46-1a12.57,12.57,0,0,0,1.5-.87,3.8,3.8,0,0,0,1.14-1.24,6.53,6.53,0,0,0,.74-2.07,17.15,17.15,0,0,0,.27-3.39V229.92h11.3v21.86h-2.6V232.27h-6.25Z" transform="translate(-134.91 -116.19)"/><path class="cls-3" d="M659,251.78l-1.38-5h-7l-1.35,5h-2.67L653,229.92h2.36l6.37,21.86Zm-3.58-13L654.19,234h-.13l-1.22,4.81-1.6,5.68H657Z" transform="translate(-134.91 -116.19)"/><path class="cls-3" d="M676,247.73a5.32,5.32,0,0,1-2.18,3.15,6.83,6.83,0,0,1-3.88,1.09,7.13,7.13,0,0,1-2.67-.49,5.74,5.74,0,0,1-2-1.35,6.14,6.14,0,0,1-1.26-2.06,7.61,7.61,0,0,1-.44-2.64v-9.17a7.66,7.66,0,0,1,.43-2.57,5.65,5.65,0,0,1,1.24-2.06,5.78,5.78,0,0,1,2-1.37,7,7,0,0,1,2.7-.5,6.71,6.71,0,0,1,3.85,1.1,5.56,5.56,0,0,1,2.21,3.08l-2.48,1a3.53,3.53,0,0,0-1.21-1.91,3.68,3.68,0,0,0-2.37-.73,3.78,3.78,0,0,0-1.62.33,3.59,3.59,0,0,0-1.18.87,3.76,3.76,0,0,0-.72,1.25,4.74,4.74,0,0,0-.25,1.48v9.3a4.72,4.72,0,0,0,.25,1.5,4,4,0,0,0,.72,1.28,3.59,3.59,0,0,0,1.18.87,3.78,3.78,0,0,0,1.62.33,3.71,3.71,0,0,0,2.34-.72,3.47,3.47,0,0,0,1.24-1.95Z" transform="translate(-134.91 -116.19)"/><path class="cls-3" d="M684.3,232.27v19.51h-2.6V232.27h-5v-2.35h12.6v2.35Z" transform="translate(-134.91 -116.19)"/><path class="cls-3" d="M691.34,251.78V229.92H694V246.5l.12,0,3.27-6.53,5.18-10.08h2.54v21.86h-2.64V235.13h-.09l-3.05,6.06-5.43,10.59Z" transform="translate(-134.91 -116.19)"/><polygon class="cls-1" points="0 135.29 33.76 135.29 33.76 81.49 0 47.74 0 135.29"/><polygon class="cls-2" points="33.76 33.76 33.76 81.49 87.56 135.29 111.42 111.42 33.76 33.76"/><polygon class="cls-3" points="141.36 81.49 141.36 81.49 175.11 115.25 175.11 47.74 141.36 81.49 141.36 81.49"/><polygon class="cls-1" points="141.36 81.49 141.36 135.29 175.11 135.29 175.11 115.25 141.36 81.49 141.36 81.49"/><polygon class="cls-1" points="208.39 0 208.39 47.74 218.27 57.62 242.14 33.76 208.39 0"/><polygon class="cls-2" points="218.27 57.62 208.39 67.51 208.39 115.25 242.14 81.49 218.27 57.62"/></svg>